<svg width="16" height="12" viewBox="0 0 16 12" fill="none" xmlns="http://www.w3.org/2000/svg">
<path fill-rule="evenodd" clip-rule="evenodd" d="M10.7273 5.16699C11.8591 5.16699 12.7659 4.05033 12.7659 2.66699C12.7659 1.28366 11.8591 0.166992 10.7273 0.166992C9.59545 0.166992 8.68182 1.28366 8.68182 2.66699C8.68182 4.05033 9.59545 5.16699 10.7273 5.16699ZM5.27273 5.16699C6.40455 5.16699 7.31136 4.05033 7.31136 2.66699C7.31136 1.28366 6.40455 0.166992 5.27273 0.166992C4.14091 0.166992 3.22727 1.28366 3.22727 2.66699C3.22727 4.05033 4.14091 5.16699 5.27273 5.16699ZM5.27273 6.83366C3.68409 6.83366 0.5 7.80866 0.5 9.75033V11.0003C0.5 11.4587 0.806818 11.8337 1.18182 11.8337H9.36364C9.73864 11.8337 10.0455 11.4587 10.0455 11.0003V9.75033C10.0455 7.80866 6.86136 6.83366 5.27273 6.83366ZM10.7273 6.83366C10.5295 6.83366 10.3045 6.85033 10.0659 6.87533C10.0795 6.88366 10.0864 6.90033 10.0932 6.90866C10.8705 7.60033 11.4091 8.52532 11.4091 9.75033V11.0003C11.4091 11.292 11.3614 11.5753 11.2864 11.8337H14.8182C15.1932 11.8337 15.5 11.4587 15.5 11.0003V9.75033C15.5 7.80866 12.3159 6.83366 10.7273 6.83366Z" fill="#1F2937"/>
</svg>
