<svg width="25" height="25" viewBox="0 0 25 25" fill="none" xmlns="http://www.w3.org/2000/svg">
<g clip-path="url(#clip0_1_22121)">
<path d="M22.6987 19.4826C22.3206 20.356 21.8731 21.16 21.3546 21.8992C20.6478 22.9069 20.0691 23.6044 19.6231 23.9917C18.9318 24.6275 18.1911 24.9531 17.3979 24.9716C16.8285 24.9716 16.1418 24.8096 15.3424 24.4809C14.5404 24.1537 13.8034 23.9917 13.1295 23.9917C12.4227 23.9917 11.6647 24.1537 10.854 24.4809C10.042 24.8096 9.38782 24.9809 8.88768 24.9979C8.12705 25.0303 7.3689 24.6954 6.61213 23.9917C6.12912 23.5704 5.52498 22.8482 4.80123 21.8251C4.02472 20.7326 3.38631 19.4656 2.88617 18.0212C2.35054 16.4611 2.08203 14.9503 2.08203 13.4877C2.08203 11.8123 2.44406 10.3673 3.16919 9.15636C3.73908 8.18371 4.49723 7.41645 5.44612 6.85319C6.39501 6.28994 7.42029 6.00291 8.52442 5.98455C9.12856 5.98455 9.92082 6.17142 10.9054 6.5387C11.8871 6.9072 12.5175 7.09408 12.7939 7.09408C13.0005 7.09408 13.7008 6.87557 14.8879 6.43993C16.0106 6.03593 16.9581 5.86865 17.7343 5.93455C19.8376 6.10429 21.4178 6.93344 22.4687 8.42722C20.5876 9.567 19.6571 11.1634 19.6756 13.2113C19.6926 14.8065 20.2713 16.1339 21.4086 17.1879C21.924 17.6771 22.4996 18.0552 23.14 18.3237C23.0011 18.7264 22.8545 19.1122 22.6987 19.4826ZM17.8747 0.500143C17.8747 1.75043 17.418 2.91782 16.5075 3.99834C15.4088 5.28287 14.0798 6.02513 12.6386 5.908C12.6203 5.75801 12.6096 5.60014 12.6096 5.43425C12.6096 4.23398 13.1321 2.94945 14.06 1.89917C14.5233 1.3674 15.1125 0.925238 15.827 0.572516C16.5399 0.225057 17.2143 0.0329052 17.8485 0C17.867 0.167144 17.8747 0.334298 17.8747 0.500126V0.500143Z" fill="black"/>
</g>
<defs>
<clipPath id="clip0_1_22121">
<rect width="25" height="25" fill="white"/>
</clipPath>
</defs>
</svg>