<svg width="69" height="41" viewBox="0 0 69 41" fill="none" xmlns="http://www.w3.org/2000/svg">
<path d="M4.34798 39.7041L0.701518 31.2882C0.494695 30.8108 0.485976 30.2708 0.677281 29.787C0.868585 29.3031 1.24424 28.9151 1.72162 28.7082L10.1375 25.0618C10.4872 24.9103 10.8827 24.9039 11.2371 25.044C11.5915 25.1841 11.8758 25.4593 12.0273 25.8089C12.1788 26.1586 12.1852 26.5542 12.0451 26.9086C11.905 27.263 11.6298 27.5472 11.2801 27.6987L5.55659 30.1975C22.736 36.7924 31.7416 30.9115 35.5965 26.7828C35.8742 26.4854 36.1415 26.1791 36.3984 25.864C34.8595 25.6927 33.3342 25.4152 31.8336 25.0336C26.8566 23.759 23.2013 21.5231 21.5417 18.7364C19.0188 14.5003 18.8538 10.1284 21.0758 6.42776C22.2247 4.54322 23.8682 3.00969 25.8277 1.99388C27.7773 0.955506 29.9694 0.457857 32.1762 0.552585C36.4823 0.75909 40.1237 3.33423 42.1668 7.61846C44.1259 11.7259 43.991 16.9601 42.0922 21.7622C41.899 22.2506 41.6877 22.7339 41.4581 23.2119C43.2719 23.162 45.0786 22.9644 46.8603 22.6209C52.9747 21.434 63.5423 17.4355 65.6248 3.99243C65.6871 3.62028 65.8936 3.2877 66.1995 3.06678C66.5054 2.84586 66.8861 2.75439 67.259 2.81222C67.6318 2.87004 67.9669 3.07248 68.1915 3.37568C68.4162 3.67887 68.5123 4.05837 68.459 4.43193C68.1552 6.45071 67.6269 8.42925 66.8839 10.3307C65.5771 13.6787 63.5005 16.6719 60.8221 19.0682C57.316 22.2114 52.6773 24.4136 47.4074 25.4367C44.9039 25.9179 42.3569 26.1355 39.808 26.0862C39.1729 27.0246 38.4657 27.9121 37.6928 28.7407C34.2819 32.3934 29.7011 34.7777 24.4453 35.6355C18.5171 36.6032 11.8158 35.673 4.51947 32.8727L6.9846 38.5619C7.05961 38.7351 7.09979 38.9213 7.10284 39.11C7.10588 39.2987 7.07174 39.4861 7.00234 39.6616C6.93296 39.837 6.82968 39.9971 6.69842 40.1327C6.56716 40.2683 6.41049 40.3767 6.23734 40.4517C6.06419 40.5267 5.87796 40.5669 5.68929 40.5699C5.50061 40.573 5.31319 40.5388 5.13771 40.4694C4.96223 40.4 4.80214 40.2968 4.66657 40.1655C4.531 40.0342 4.42262 39.8776 4.3476 39.7044L4.34798 39.7041ZM32.5452 22.2552C34.4137 22.7278 36.3217 23.0277 38.2451 23.1512C40.873 18.4818 41.5019 12.8863 39.5782 8.85269C37.9811 5.50393 35.3041 3.57368 32.0391 3.41706C28.6609 3.2552 25.2434 5.05837 23.5348 7.90385C23.3079 8.28093 23.1124 8.67603 22.9503 9.08516C21.9631 11.582 22.3215 14.4402 24.0061 17.2684C25.2565 19.3684 28.369 21.1858 32.545 22.2551L32.5452 22.2552Z" fill="white"/>
</svg>
