<svg width="20" height="20" viewBox="0 0 20 20" fill="none" xmlns="http://www.w3.org/2000/svg">
<path d="M14.6666 2.66699H5.3334C4.6002 2.66699 4 3.26739 4 4.00039V9.33379H5.3334V7.33379C5.3334 6.96719 5.6336 6.66699 6 6.66699H8.6666C9.0332 6.66699 9.3332 6.96719 9.3332 7.33379V9.33379H10.6666V7.33379C10.6666 6.96719 10.9668 6.66699 11.3334 6.66699H14C14.3666 6.66699 14.6666 6.96719 14.6666 7.33379V9.33379H16V4.00039C16 3.26739 15.3998 2.66699 14.6666 2.66699Z" fill="#1F2937"/>
<path d="M18 14.667H2V16.0002H3.3334V17.3336H4.6666V16.0002H15.3334V17.3336H16.6666V16.0002H18V14.667Z" fill="#1F2937"/>
<path d="M17.3328 13.3336V12.0002C17.3328 11.2672 16.7324 10.667 15.9994 10.667H3.99942C3.26602 10.667 2.66602 11.2672 2.66602 12.0002V13.3336H17.3328Z" fill="#1F2937"/>
</svg>
