<svg width="24" height="25" viewBox="0 0 24 25" fill="none" xmlns="http://www.w3.org/2000/svg">
<path d="M20.0472 16.9733C18.8435 15.5 17.9936 14.75 17.9936 10.6883C17.9936 6.96875 16.0943 5.64359 14.531 5C14.3233 4.91469 14.1279 4.71875 14.0646 4.50547C13.7904 3.57219 13.0216 2.75 11.9997 2.75C10.9779 2.75 10.2086 3.57266 9.93724 4.50641C9.87396 4.72203 9.67849 4.91469 9.47084 5C7.90568 5.64453 6.00818 6.965 6.00818 10.6883C6.00584 14.75 5.15599 15.5 3.95224 16.9733C3.45349 17.5836 3.89037 18.5 4.76271 18.5H19.2415C20.1091 18.5 20.5432 17.5808 20.0472 16.9733Z" stroke="white" stroke-width="1.5" stroke-linecap="round" stroke-linejoin="round"/>
<path d="M15 18.5V19.25C15 20.0456 14.6839 20.8087 14.1213 21.3713C13.5587 21.9339 12.7956 22.25 12 22.25C11.2044 22.25 10.4413 21.9339 9.87868 21.3713C9.31607 20.8087 9 20.0456 9 19.25V18.5" stroke="white" stroke-width="1.5" stroke-linecap="round" stroke-linejoin="round"/>
</svg>
