<svg width="25" height="27" viewBox="0 0 25 27" fill="none" xmlns="http://www.w3.org/2000/svg">
<path d="M22.9791 2.11973C22.6739 1.79889 22.2741 1.63867 21.8744 1.63867C21.4744 1.63867 21.0747 1.79889 20.7696 2.11973L2.01846 21.8081C1.40791 22.4489 1.40791 23.4871 2.01846 24.128C2.32363 24.4484 2.72344 24.6087 3.12319 24.6087C3.52314 24.6087 3.92275 24.4484 4.22793 24.128L22.9791 4.43968C23.5896 3.79881 23.5896 2.76019 22.9791 2.11973Z" fill="#BDADAD"/>
<path d="M3.57919 17.8503L7.83666 13.3799C7.83368 13.2933 7.81234 13.2116 7.81234 13.1235C7.81234 10.4126 9.91347 8.20445 12.4954 8.20122C12.4969 8.19963 12.5 8.19963 12.5032 8.20122C12.5032 8.20122 12.5032 8.20122 12.5046 8.20122C12.587 8.20122 12.6633 8.22204 12.744 8.22686L15.5489 5.28204C14.6073 5.07055 13.6169 4.91992 12.5076 4.91992C12.5076 4.91992 12.5076 4.91992 12.5061 4.91992C12.5046 4.91992 12.5032 4.91992 12.5 4.91992C12.5 4.91992 12.4969 4.91992 12.4939 4.91992C12.4924 4.91992 12.4924 4.91992 12.4924 4.91992C6.42972 4.9232 3.06039 8.3839 0.322742 12.1233C-0.107581 12.7134 -0.107581 13.5337 0.322742 14.1233C1.29491 15.4515 2.35541 16.7352 3.57919 17.8503Z" fill="#BDADAD"/>
<path d="M24.6773 12.1232C23.7051 10.7954 22.6446 9.5116 21.4208 8.39648L17.1634 12.8669C17.1663 12.9535 17.1877 13.0352 17.1877 13.1233C17.1877 15.8342 15.0866 18.042 12.5046 18.0456C12.5032 18.0456 12.5032 18.0456 12.5032 18.0456C12.5032 18.0456 12.5016 18.0456 12.5 18.0456C12.4985 18.0456 12.4969 18.0456 12.4969 18.0456C12.4969 18.0456 12.4969 18.0456 12.4955 18.0456C12.413 18.0456 12.3368 18.0243 12.2558 18.0199L9.45117 20.9648C10.3927 21.1762 11.3831 21.3269 12.4924 21.3269C12.4924 21.3269 12.4924 21.3269 12.4939 21.3269H12.4955C12.4969 21.3269 12.5001 21.3269 12.5001 21.3269C12.5001 21.3269 12.5016 21.3269 12.5032 21.3269C12.5032 21.3269 12.5032 21.3269 12.5046 21.3269H12.5062C12.5077 21.3269 12.5077 21.3269 12.5077 21.3269C12.5123 21.3269 12.5184 21.3269 12.5245 21.3269C12.5306 21.3253 12.5367 21.3253 12.5459 21.3269C18.5826 21.3092 21.9443 17.855 24.6774 14.1231C25.1075 13.5335 25.1075 12.7132 24.6773 12.1232Z" fill="#BDADAD"/>
</svg>
