<svg width="25" height="25" viewBox="0 0 25 25" fill="none" xmlns="http://www.w3.org/2000/svg">
<path d="M22.5 13.8529C22.5 16.5599 20.5726 18.8221 18 19.3722M6.78571 19.5C4.41878 19.5 2.5 17.6038 2.5 15.2647C2.5 12.9256 4.41878 11.0294 6.78571 11.0294C7.06983 11.0294 7.3475 11.0567 7.61616 11.1089M7.61616 11.1089C7.38706 10.4978 7.2619 9.83687 7.2619 9.14706C7.2619 6.02827 9.82028 3.5 12.9762 3.5C15.9159 3.5 18.3371 5.69371 18.6551 8.51498M7.61616 11.1089C8.18059 11.2184 8.70528 11.4374 9.16667 11.7426M14.881 8.52721C15.4767 8.31911 16.1178 8.20588 16.7857 8.20588C17.4404 8.20588 18.0693 8.31468 18.6551 8.51498M18.6551 8.51498C19.3381 8.74853 19.9623 9.10648 20.5 9.56141" stroke="white" stroke-width="1.5" stroke-linecap="round"/>
<path d="M10.5 20.3L11.6429 21.5L14.5 18.5" stroke="white" stroke-width="1.5" stroke-linecap="round" stroke-linejoin="round"/>
</svg>
