<svg width="38" height="38" viewBox="0 0 38 38" fill="none" xmlns="http://www.w3.org/2000/svg">
<g clip-path="url(#clip0_2073_12667)">
<path d="M30.2685 14.1166H23.4285V6.13195C23.4278 2.74446 20.6841 0.000742187 17.2966 0H7.7375C4.35 0.000742187 1.60629 2.74446 1.60547 6.13195V38H4.35223V6.13195C4.35297 5.19309 4.72926 4.35545 5.34402 3.73847C5.96107 3.12364 6.79863 2.74743 7.7375 2.74661H17.2966C18.2354 2.74736 19.0731 3.12364 19.6901 3.73847C20.3048 4.35545 20.6811 5.19309 20.6818 6.13195V38H23.4285V16.8632H30.2685C31.2074 16.864 32.045 17.2403 32.662 17.8551C33.2768 18.4721 33.653 19.3097 33.6539 20.2486V38H36.4006V20.2485C36.3997 16.861 33.656 14.1173 30.2685 14.1166Z" fill="white"/>
<path d="M10.6244 9.76697H8.26367V13.773H10.6244V9.76697Z" fill="white"/>
<path d="M16.4643 9.76697H14.1035V13.773H16.4643V9.76697Z" fill="white"/>
<path d="M10.6244 18.9236H8.26367V22.9296H10.6244V18.9236Z" fill="white"/>
<path d="M16.4643 18.9236H14.1035V22.9296H16.4643V18.9236Z" fill="white"/>
<path d="M10.6244 28.0803H8.26367V32.0864H10.6244V28.0803Z" fill="white"/>
<path d="M16.4643 28.0803H14.1035V32.0864H16.4643V28.0803Z" fill="white"/>
<path d="M29.3393 21.499H26.9785V25.505H29.3393V21.499Z" fill="white"/>
<path d="M29.3393 30.274H26.9785V34.2801H29.3393V30.274Z" fill="white"/>
</g>
<defs>
<clipPath id="clip0_2073_12667">
<rect width="38" height="38" fill="white"/>
</clipPath>
</defs>
</svg>
