<svg width="43" height="44" viewBox="0 0 43 44" fill="none" xmlns="http://www.w3.org/2000/svg">
<path fill-rule="evenodd" clip-rule="evenodd" d="M4.2899 11.1437L4.50804 10.8983C5.30751 10.0623 6.49854 9.64404 8.08003 9.64404H35.1835C36.674 9.64404 37.8192 10.0078 38.6192 10.7347L38.6465 10.762C38.8101 10.9076 38.9742 11.0799 39.1373 11.2801C39.1373 11.2986 39.1465 11.3166 39.1645 11.3346L39.1918 11.3619C39.7922 12.1074 40.0916 13.1615 40.0916 14.5249V29.958C40.0736 33.2301 38.4376 34.8661 35.1835 34.8661H8.08003C4.82597 34.8481 3.19922 33.2121 3.19922 29.958V14.5249C3.19922 13.0524 3.56296 11.9252 4.2899 11.1437ZM36.0834 12.3162C35.8107 12.2437 35.5107 12.2159 35.1841 12.2344H8.08003C7.87989 12.2164 7.68902 12.2251 7.50742 12.2617L21.55 26.4951L36.0834 12.3162ZM5.78959 14.2249C5.7716 14.316 5.7716 14.4158 5.78959 14.5249V29.958C5.78959 31.5035 6.55307 32.2758 8.08003 32.2758H35.1835C36.7285 32.2758 37.5012 31.5035 37.5012 29.958V14.5521L22.4498 29.2491C22.1771 29.5038 21.8685 29.6308 21.5233 29.6308C21.1595 29.6128 20.8503 29.4852 20.5962 29.2491L5.78959 14.2249Z" fill="#C42A25"/>
<path fill-rule="evenodd" clip-rule="evenodd" d="M4.28906 11.1434C4.3256 11.0888 4.37086 11.0343 4.4254 10.9798C4.44394 10.9432 4.47066 10.9159 4.5072 10.8979L4.28906 11.1434Z" fill="#C42A25"/>
</svg>
