<svg width="39" height="47" viewBox="0 0 39 47" fill="none" xmlns="http://www.w3.org/2000/svg">
<path d="M15.0126 46.1446C14.5814 46.1446 14.1894 45.9486 13.915 45.635C12.5039 44.0279 0 29.7993 0 21.9598C0 13.6892 6.74194 6.94727 15.0126 6.94727C23.2832 6.94727 30.0252 13.6892 30.0252 21.9598C30.0252 29.7601 17.5212 44.0279 16.1101 45.635C15.8357 45.9486 15.4437 46.1446 15.0126 46.1446ZM15.0126 9.92626C8.38823 9.92626 2.979 15.3355 2.979 21.9598C2.979 27.1339 10.8577 37.4428 15.0126 42.3816C19.1675 37.482 27.0462 27.1339 27.0462 21.9598C27.0462 15.3355 21.6369 9.92626 15.0126 9.92626Z" fill="#C42A25"/>
<path d="M15.0122 29.6817C10.8573 29.6817 7.48633 26.3107 7.48633 22.1558C7.48633 18.0009 10.8573 14.6299 15.0122 14.6299C19.1671 14.6299 22.5381 18.0009 22.5381 22.1558C22.5381 26.3107 19.1671 29.6817 15.0122 29.6817ZM15.0122 17.6089C12.5036 17.6089 10.4653 19.6471 10.4653 22.1558C10.4653 24.6644 12.5036 26.7027 15.0122 26.7027C17.5208 26.7027 19.5591 24.6644 19.5591 22.1558C19.5591 19.6471 17.5208 17.6089 15.0122 17.6089Z" fill="#C42A25"/>
</svg>
