<svg width="40" height="40" viewBox="0 0 40 40" fill="none" xmlns="http://www.w3.org/2000/svg">
<g clip-path="url(#clip0_1_15732)">
<path d="M20.9911 10.5928C22.9089 10.922 24.662 11.8292 26.0592 13.2225C27.4487 14.612 28.3597 16.3652 28.6889 18.2868C28.8153 19.0447 29.466 19.5921 30.2354 19.5921C30.3349 19.5921 30.423 19.5806 30.4842 19.5691C30.488 19.5691 30.4919 19.5691 30.4957 19.5653C30.9129 19.4964 31.2766 19.2705 31.5177 18.9222C31.7589 18.5777 31.8508 18.1643 31.778 17.7547C31.3416 15.19 30.132 12.855 28.2755 10.9985C26.4114 9.14202 24.0725 7.93242 21.5117 7.49987H21.5079C20.6543 7.35824 19.8466 7.93624 19.7049 8.78603C19.571 9.64347 20.1451 10.4512 20.9911 10.5928Z" fill="#C42A25"/>
<path d="M30.641 23.7328C29.7836 22.8409 28.7462 22.3701 27.64 22.3701C26.5452 22.3701 25.5002 22.8333 24.6236 23.7137L22.4456 25.8917C22.392 25.8649 22.3384 25.8381 22.2886 25.8113L22.1776 25.7577C21.9441 25.6391 21.6762 25.5051 21.4541 25.3673C19.2187 23.9472 17.1784 22.0868 15.2109 19.6753C14.3688 18.6149 13.7793 17.7154 13.3467 16.8197C13.8941 16.3029 14.4032 15.7862 14.8817 15.2962C14.9889 15.189 15.0961 15.078 15.2071 14.967C15.3143 14.856 15.4253 14.745 15.5363 14.634C16.4473 13.7229 16.9296 12.6664 16.9258 11.5793C16.9258 10.496 16.4435 9.44338 15.5363 8.54001L13.4195 6.4232C13.297 6.30071 13.1745 6.17822 13.0558 6.05573C12.9372 5.93323 12.8147 5.81074 12.696 5.69208L12.5276 5.51982C12.1103 5.09493 11.6778 4.65473 11.2414 4.2528C10.3916 3.40684 9.36193 2.95898 8.27098 2.95898C7.18387 2.95898 6.14652 3.40684 5.26228 4.2528C5.25846 4.25663 5.25463 4.25663 5.25463 4.26046L2.60192 6.90934C1.51863 7.99262 0.902347 9.31324 0.768372 10.8329V10.8367C0.626741 12.6358 0.952109 14.5344 1.79424 16.812C3.06892 20.2571 4.98285 23.4495 7.81164 26.8563C11.2644 30.9713 15.41 34.2173 20.1297 36.5025H20.1335C21.9518 37.3715 24.3939 38.3897 27.15 38.5696C27.1538 38.5696 27.1577 38.5696 27.1615 38.5696H27.1806C27.3376 38.5773 27.5022 38.5849 27.6744 38.5849C29.6075 38.5849 31.2382 37.8844 32.5167 36.5025L32.5358 36.4834C32.5511 36.4681 32.5626 36.4566 32.5741 36.4413C32.9569 35.982 33.3971 35.5571 33.8909 35.0824C34.2316 34.757 34.5799 34.424 34.9167 34.0642C35.7857 33.157 36.245 32.1005 36.2412 31.0096C36.2374 29.9148 35.7704 28.8698 34.8899 27.9894L30.641 23.7328ZM30.22 34.4011C29.5386 35.1283 28.7577 35.4537 27.6936 35.4537C27.594 35.4537 27.483 35.4461 27.3682 35.4384C25.1633 35.2968 23.0772 34.424 21.5077 33.6776C17.1746 31.5914 13.3774 28.621 10.2194 24.8467C7.63556 21.7347 5.89388 18.8331 4.74169 15.7249C4.05268 13.876 3.79238 12.4444 3.89956 11.0932C3.96847 10.3047 4.26321 9.67688 4.82591 9.12184L7.45948 6.48827C7.73508 6.22415 8.01835 6.08252 8.28247 6.08252C8.53128 6.08252 8.7954 6.22032 9.07484 6.4921C9.07866 6.49593 9.08249 6.49976 9.08632 6.50359C9.54183 6.93231 9.98587 7.38399 10.4567 7.85865L10.472 7.87396C10.6979 8.10746 10.9581 8.37541 11.2223 8.63188L13.3352 10.7449C13.9515 11.3611 13.9515 11.7937 13.3352 12.41C13.1132 12.632 12.8874 12.8578 12.6654 13.0875L12.5084 13.2483C11.9151 13.8493 11.3562 14.4158 10.7476 14.9555C10.74 14.9632 10.7285 14.9708 10.7208 14.9823L10.6825 15.0206C10.0356 15.6675 9.85955 16.4407 10.1619 17.3135C10.1696 17.3364 10.1773 17.3556 10.1849 17.3747C10.1887 17.3862 10.1926 17.3977 10.2002 17.4092C10.7668 18.7757 11.5629 20.0734 12.7879 21.6236C12.7879 21.6275 12.7917 21.6275 12.7917 21.6313C14.9659 24.307 17.2588 26.397 19.8043 28.0123C20.1374 28.2229 20.4819 28.399 20.8034 28.5597C21.0407 28.6784 21.3087 28.8162 21.5307 28.9502C21.546 28.9617 21.5613 28.9693 21.5766 28.977L21.5881 28.9846C21.6111 28.9961 21.6341 29.0114 21.6609 29.0229C21.9939 29.1913 22.3231 29.2717 22.6637 29.2717C23.2456 29.2717 23.7815 29.0306 24.214 28.575L26.8629 25.9262C27.0543 25.7348 27.3529 25.5051 27.6668 25.5051C27.9577 25.5051 28.2409 25.7309 28.4247 25.9223C28.4285 25.9262 28.4285 25.9262 28.4323 25.93L32.7081 30.2057C33.1291 30.6268 33.4162 31.1244 32.6736 31.9053L32.6698 31.9091C32.4363 32.1618 32.1875 32.4029 31.9234 32.6594C31.8659 32.713 31.8085 32.7704 31.7511 32.8278C31.2152 33.3293 30.7023 33.8269 30.22 34.4011Z" fill="#C42A25"/>
<path d="M38.4352 17.448C37.7309 13.3024 35.771 9.52049 32.7661 6.51561C29.7498 3.50691 25.9678 1.54705 21.8184 0.846549C20.9648 0.704918 20.1571 1.28293 20.0155 2.13271C19.8739 2.98632 20.4519 3.794 21.2978 3.93563C24.808 4.53278 28.0043 6.19407 30.546 8.73195C33.0877 11.2736 34.7451 14.4699 35.3423 17.9762C35.4686 18.7342 36.1193 19.2815 36.8887 19.2815C36.8926 19.2815 36.8964 19.2815 36.9002 19.2815C36.9959 19.2815 37.0763 19.2701 37.1375 19.2586C37.1414 19.2586 37.1452 19.2586 37.149 19.2547C37.5663 19.1858 37.9299 18.96 38.1711 18.6117C38.416 18.271 38.5079 17.8576 38.4352 17.448Z" fill="#C42A25"/>
</g>
<defs>
<clipPath id="clip0_1_15732">
<rect width="39.1973" height="39.1973" fill="white" transform="translate(0 0.107422)"/>
</clipPath>
</defs>
</svg>
