<svg width="32" height="33" viewBox="0 0 32 33" fill="none" xmlns="http://www.w3.org/2000/svg">
<path d="M22.3453 5.64543V3.57796C22.3453 3.03459 21.8947 2.58398 21.3513 2.58398C20.8079 2.58398 20.3573 3.03459 20.3573 3.57796V5.56591H11.7428V3.57796C11.7428 3.03459 11.2922 2.58398 10.7489 2.58398C10.2055 2.58398 9.75489 3.03459 9.75489 3.57796V5.64543C6.17658 5.97675 4.44043 8.11049 4.17537 11.278C4.14887 11.6623 4.46694 11.9804 4.83802 11.9804H27.2621C27.6465 11.9804 27.9645 11.649 27.9248 11.278C27.6597 8.11049 25.9236 5.97675 22.3453 5.64543Z" fill="#C42A25"/>
<path opacity="0.4" d="M26.6532 13.9678C27.3821 13.9678 27.9785 14.5642 27.9785 15.2931V23.4569C27.9785 27.4328 25.9905 30.0834 21.352 30.0834H10.7496C6.111 30.0834 4.12305 27.4328 4.12305 23.4569V15.2931C4.12305 14.5642 4.71943 13.9678 5.44835 13.9678H26.6532Z" fill="#C42A25"/>
<path d="M11.4112 20.8083C11.0667 20.8083 10.7221 20.6625 10.4703 20.424C10.2317 20.1722 10.0859 19.8276 10.0859 19.483C10.0859 19.1384 10.2317 18.7939 10.4703 18.5421C10.8414 18.171 11.4245 18.0517 11.9149 18.2637C12.0871 18.33 12.2329 18.4228 12.3522 18.5421C12.5908 18.7939 12.7365 19.1384 12.7365 19.483C12.7365 19.8276 12.5908 20.1722 12.3522 20.424C12.1004 20.6625 11.7558 20.8083 11.4112 20.8083Z" fill="#C42A25"/>
<path d="M16.0499 20.8083C15.7053 20.8083 15.3608 20.6625 15.1089 20.424C14.8704 20.1722 14.7246 19.8276 14.7246 19.483C14.7246 19.1384 14.8704 18.7939 15.1089 18.5421C15.2282 18.4228 15.374 18.33 15.5463 18.2637C16.0367 18.0517 16.6198 18.171 16.9909 18.5421C17.2294 18.7939 17.3752 19.1384 17.3752 19.483C17.3752 19.8276 17.2294 20.1722 16.9909 20.424C16.9246 20.477 16.8583 20.53 16.7921 20.583C16.7126 20.636 16.633 20.6758 16.5535 20.7023C16.474 20.7421 16.3945 20.7686 16.315 20.7818C16.2222 20.7951 16.1427 20.8083 16.0499 20.8083Z" fill="#C42A25"/>
<path d="M20.6866 20.8078C20.3421 20.8078 19.9975 20.662 19.7457 20.4235C19.5071 20.1717 19.3613 19.8271 19.3613 19.4825C19.3613 19.138 19.5071 18.7934 19.7457 18.5416C19.8782 18.4223 20.0107 18.3295 20.183 18.2632C20.4216 18.1572 20.6866 18.1307 20.9517 18.1837C21.0312 18.197 21.1107 18.2235 21.1902 18.2632C21.2698 18.2898 21.3493 18.3295 21.4288 18.3826C21.4951 18.4356 21.5613 18.4886 21.6276 18.5416C21.8661 18.7934 22.0119 19.138 22.0119 19.4825C22.0119 19.8271 21.8661 20.1717 21.6276 20.4235C21.5613 20.4765 21.4951 20.5295 21.4288 20.5825C21.3493 20.6355 21.2698 20.6753 21.1902 20.7018C21.1107 20.7416 21.0312 20.7681 20.9517 20.7814C20.8589 20.7946 20.7661 20.8078 20.6866 20.8078Z" fill="#C42A25"/>
<path d="M11.4112 25.4465C11.2389 25.4465 11.0667 25.4068 10.9076 25.3405C10.7353 25.2742 10.6028 25.1814 10.4703 25.0622C10.2317 24.8104 10.0859 24.4658 10.0859 24.1212C10.0859 23.7766 10.2317 23.4321 10.4703 23.1803C10.6028 23.061 10.7353 22.9682 10.9076 22.9019C11.1462 22.7959 11.4112 22.7694 11.6763 22.8224C11.7558 22.8357 11.8353 22.8622 11.9149 22.9019C11.9944 22.9284 12.0739 22.9682 12.1534 23.0212C12.2197 23.0742 12.2859 23.1273 12.3522 23.1803C12.5908 23.4321 12.7365 23.7766 12.7365 24.1212C12.7365 24.4658 12.5908 24.8104 12.3522 25.0622C12.2859 25.1152 12.2197 25.1814 12.1534 25.2212C12.0739 25.2742 11.9944 25.314 11.9149 25.3405C11.8353 25.3803 11.7558 25.4068 11.6763 25.42C11.5835 25.4333 11.504 25.4465 11.4112 25.4465Z" fill="#C42A25"/>
<path d="M16.0499 25.4455C15.7053 25.4455 15.3608 25.2998 15.1089 25.0612C14.8704 24.8094 14.7246 24.4648 14.7246 24.1202C14.7246 23.7757 14.8704 23.4311 15.1089 23.1793C15.5993 22.6889 16.5005 22.6889 16.9909 23.1793C17.2294 23.4311 17.3752 23.7757 17.3752 24.1202C17.3752 24.4648 17.2294 24.8094 16.9909 25.0612C16.7391 25.2998 16.3945 25.4455 16.0499 25.4455Z" fill="#C42A25"/>
<path d="M20.6866 25.4455C20.3421 25.4455 19.9975 25.2998 19.7457 25.0612C19.5071 24.8094 19.3613 24.4648 19.3613 24.1202C19.3613 23.7757 19.5071 23.4311 19.7457 23.1793C20.236 22.6889 21.1372 22.6889 21.6276 23.1793C21.8661 23.4311 22.0119 23.7757 22.0119 24.1202C22.0119 24.4648 21.8661 24.8094 21.6276 25.0612C21.3758 25.2998 21.0312 25.4455 20.6866 25.4455Z" fill="#C42A25"/>
</svg>
