<svg width="33" height="33" viewBox="0 0 33 33" fill="none" xmlns="http://www.w3.org/2000/svg">
<path opacity="0.4" d="M16.2113 19.5387L11.715 24.035C11.22 23.595 10.7387 23.1412 10.2712 22.6737C8.855 21.2437 7.57625 19.745 6.435 18.1775C5.3075 16.61 4.4 15.0425 3.74 13.4887C3.08 11.9212 2.75 10.4225 2.75 8.9925C2.75 8.0575 2.915 7.16375 3.245 6.33875C3.575 5.5 4.0975 4.73 4.82625 4.0425C5.70625 3.17625 6.66875 2.75 7.68625 2.75C8.07125 2.75 8.45625 2.8325 8.8 2.9975C9.1575 3.1625 9.47375 3.41 9.72125 3.7675L12.9113 8.26375C13.1588 8.6075 13.3375 8.92375 13.4613 9.22625C13.585 9.515 13.6538 9.80375 13.6538 10.065C13.6538 10.395 13.5575 10.725 13.365 11.0412C13.1863 11.3575 12.925 11.6875 12.595 12.0175L11.55 13.1037C11.3987 13.255 11.33 13.4337 11.33 13.6537C11.33 13.7637 11.3438 13.86 11.3713 13.97C11.4125 14.08 11.4538 14.1625 11.4813 14.245C11.7288 14.6987 12.155 15.29 12.76 16.005C13.3787 16.72 14.0387 17.4487 14.7537 18.1775C15.2487 18.6587 15.73 19.1262 16.2113 19.5387Z" fill="white"/>
<path d="M30.2089 25.2034C30.2089 25.5884 30.1402 25.9872 30.0027 26.3722C29.9614 26.4822 29.9202 26.5922 29.8652 26.7022C29.6314 27.1972 29.3289 27.6647 28.9302 28.1047C28.2564 28.8472 27.5139 29.3834 26.6752 29.7272C26.6614 29.7272 26.6477 29.7409 26.6339 29.7409C25.8227 30.0709 24.9427 30.2497 23.9939 30.2497C22.5914 30.2497 21.0927 29.9197 19.5114 29.2459C17.9302 28.5722 16.3489 27.6647 14.7814 26.5234C14.2452 26.1247 13.7089 25.7259 13.2002 25.2997L17.6964 20.8034C18.0814 21.0922 18.4252 21.3122 18.7139 21.4634C18.7827 21.4909 18.8652 21.5322 18.9614 21.5734C19.0714 21.6147 19.1814 21.6284 19.3052 21.6284C19.5389 21.6284 19.7177 21.5459 19.8689 21.3947L20.9139 20.3634C21.2577 20.0197 21.5877 19.7584 21.9039 19.5934C22.2202 19.4009 22.5364 19.3047 22.8802 19.3047C23.1414 19.3047 23.4164 19.3597 23.7189 19.4834C24.0214 19.6072 24.3377 19.7859 24.6814 20.0197L29.2327 23.2509C29.5902 23.4984 29.8377 23.7872 29.9889 24.1309C30.1264 24.4747 30.2089 24.8184 30.2089 25.2034Z" fill="white"/>
</svg>
