<svg width="22" height="21" viewBox="0 0 22 21" fill="none" xmlns="http://www.w3.org/2000/svg">
<path fill-rule="evenodd" clip-rule="evenodd" d="M8.59292 20.25H13.4077C16.7889 20.25 18.4794 20.25 19.6939 19.4533C20.2195 19.1084 20.6709 18.6652 21.0222 18.1491C21.8337 16.9568 21.8337 15.2969 21.8337 11.9772C21.8337 8.65768 21.8337 6.99781 21.0222 5.80548C20.6709 5.28932 20.2195 4.84613 19.6939 4.50124C18.9134 3.98931 17.9366 3.80633 16.4408 3.74093C15.727 3.74093 15.1125 3.2099 14.9726 2.52272C14.7625 1.49196 13.8407 0.75 12.7702 0.75H9.23048C8.15988 0.75 7.23807 1.49196 7.0281 2.52272C6.88812 3.2099 6.27358 3.74093 5.55983 3.74093C4.0641 3.80633 3.08717 3.98931 2.30684 4.50124C1.7811 4.84613 1.32971 5.28932 0.978431 5.80548C0.166992 6.99781 0.166992 8.65768 0.166992 11.9772C0.166992 15.2969 0.166992 16.9568 0.978431 18.1491C1.32971 18.6652 1.7811 19.1084 2.30684 19.4533C3.52125 20.25 5.2118 20.25 8.59292 20.25ZM11.0003 7.54546C8.50737 7.54546 6.48643 9.52966 6.48643 11.9772C6.48643 14.4249 8.50737 16.409 11.0003 16.409C13.4933 16.409 15.5142 14.4249 15.5142 11.9772C15.5142 9.52966 13.4933 7.54546 11.0003 7.54546ZM11.0003 9.31819C9.50457 9.31819 8.29199 10.5087 8.29199 11.9772C8.29199 13.4458 9.50457 14.6364 11.0003 14.6364C12.4961 14.6364 13.7087 13.4458 13.7087 11.9772C13.7087 10.5087 12.4961 9.31819 11.0003 9.31819ZM16.116 8.43181C16.116 7.94229 16.5202 7.54546 17.0189 7.54546H18.2226C18.7211 7.54546 19.1253 7.94229 19.1253 8.43181C19.1253 8.92137 18.7211 9.31819 18.2226 9.31819H17.0189C16.5202 9.31819 16.116 8.92137 16.116 8.43181Z" fill="#C42A25"/>
</svg>
