<svg width="12" height="12" viewBox="0 0 12 12" fill="none" xmlns="http://www.w3.org/2000/svg">
<path fill-rule="evenodd" clip-rule="evenodd" d="M1.22836 3.35195C1 3.90326 1 4.60218 1 6C1 7.39782 1 8.09674 1.22836 8.64805C1.53284 9.38313 2.11687 9.96716 2.85195 10.2716C3.40326 10.5 4.10218 10.5 5.5 10.5H6.5C7.89782 10.5 8.59674 10.5 9.14805 10.2716C9.88313 9.96716 10.4672 9.38313 10.7716 8.64805C11 8.09674 11 7.39782 11 6C11 4.60218 11 3.90326 10.7716 3.35195C10.4672 2.61687 9.88313 2.03284 9.14805 1.72836C8.59674 1.5 7.89782 1.5 6.5 1.5H5.5C4.10218 1.5 3.40326 1.5 2.85195 1.72836C2.11687 2.03284 1.53284 2.61687 1.22836 3.35195ZM8 4C8.27614 4 8.5 4.22386 8.5 4.5V8.5C8.5 8.77614 8.27614 9 8 9C7.72386 9 7.5 8.77614 7.5 8.5V4.5C7.5 4.22386 7.72386 4 8 4ZM4.5 5.5C4.5 5.22386 4.27614 5 4 5C3.72386 5 3.5 5.22386 3.5 5.5V8.5C3.5 8.77614 3.72386 9 4 9C4.27614 9 4.5 8.77614 4.5 8.5L4.5 5.5ZM6.5 6.5C6.5 6.22386 6.27614 6 6 6C5.72386 6 5.5 6.22386 5.5 6.5V8.5C5.5 8.77614 5.72386 9 6 9C6.27614 9 6.5 8.77614 6.5 8.5V6.5Z" fill="#222222"/>
</svg>
