<svg width="34" height="23" viewBox="0 0 34 23" fill="none" xmlns="http://www.w3.org/2000/svg">
<path fill-rule="evenodd" clip-rule="evenodd" d="M0.00239368 4.89529C0 5.23754 0 5.60498 0 6V11.5C0 14.3284 0 15.7426 0.87868 16.6213C1.75736 17.5 3.17157 17.5 6 17.5H16.5C19.3284 17.5 20.7426 17.5 21.6213 16.6213C22.5 15.7426 22.5 14.3284 22.5 11.5V6C22.5 5.60498 22.5 5.23754 22.4976 4.89529L12.2213 10.6044C11.6172 10.9399 10.8828 10.9399 10.2787 10.6044L0.00239368 4.89529ZM0.103678 2.75513C0.234025 2.76865 0.363845 2.80818 0.485643 2.87584L11.25 8.85604L22.0144 2.87584C22.1362 2.80818 22.266 2.76866 22.3963 2.75514C22.2886 1.91313 22.069 1.32639 21.6213 0.87868C20.7426 0 19.3284 0 16.5 0H6C3.17157 0 1.75736 0 0.87868 0.87868C0.430972 1.32639 0.211382 1.91313 0.103678 2.75513Z" fill="#BBBBBB"/>
<path fill-rule="evenodd" clip-rule="evenodd" d="M26.25 21C29.1495 21 31.5 18.6495 31.5 15.75C31.5 12.8505 29.1495 10.5 26.25 10.5C23.3505 10.5 21 12.8505 21 15.75C21 18.6495 23.3505 21 26.25 21ZM29.65 14.05C29.8157 13.8291 29.7709 13.5157 29.55 13.35C29.3291 13.1843 29.0157 13.2291 28.85 13.45L26.5594 16.5041C26.2124 16.9668 25.9837 17.2697 25.7871 17.4663C25.6001 17.6532 25.5095 17.674 25.452 17.6766C25.3946 17.6791 25.3024 17.6665 25.0996 17.497C24.8862 17.3188 24.6314 17.0374 24.2445 16.6076L23.6216 15.9155C23.4369 15.7103 23.1208 15.6936 22.9155 15.8784C22.7103 16.0631 22.6936 16.3792 22.8784 16.5845L23.5012 17.2765L23.5257 17.3038C23.8813 17.6989 24.1836 18.0349 24.4585 18.2645C24.7501 18.5081 25.0822 18.6941 25.4967 18.6756C25.9111 18.657 26.2253 18.4422 26.4941 18.1735C26.7473 17.9203 27.0185 17.5587 27.3374 17.1335L27.3374 17.1335L27.3594 17.1041L29.65 14.05Z" fill="#3A70D0"/>
</svg>
