<svg width="20" height="20" viewBox="0 0 20 20" fill="none" xmlns="http://www.w3.org/2000/svg">
<path opacity="0.4" d="M3.32408 12.2167L2.05742 10.95C1.54076 10.4334 1.54076 9.58335 2.05742 9.06668L3.32408 7.8C3.54075 7.58333 3.71575 7.15833 3.71575 6.85833V5.06669C3.71575 4.33336 4.31575 3.73333 5.04909 3.73333H6.84075C7.14075 3.73333 7.56575 3.55835 7.78242 3.34168L9.04908 2.075C9.56574 1.55833 10.4158 1.55833 10.9324 2.075L12.1991 3.34168C12.4158 3.55835 12.8407 3.73333 13.1407 3.73333H14.9324C15.6658 3.73333 16.2657 4.33336 16.2657 5.06669V6.85833C16.2657 7.15833 16.4407 7.58333 16.6574 7.8L17.9241 9.06668C18.4408 9.58335 18.4408 10.4334 17.9241 10.95L16.6574 12.2167C16.4407 12.4333 16.2657 12.8583 16.2657 13.1583V14.95C16.2657 15.6833 15.6658 16.2833 14.9324 16.2833H13.1407C12.8407 16.2833 12.4158 16.4583 12.1991 16.675L10.9324 17.9417C10.4158 18.4584 9.56574 18.4584 9.04908 17.9417L7.78242 16.675C7.56575 16.4583 7.14075 16.2833 6.84075 16.2833H5.04909C4.31575 16.2833 3.71575 15.6833 3.71575 14.95V13.1583C3.71575 12.85 3.54075 12.425 3.32408 12.2167Z" fill="white"/>
<path d="M12.4999 13.3332C12.0332 13.3332 11.6582 12.9582 11.6582 12.4998C11.6582 12.0415 12.0332 11.6665 12.4915 11.6665C12.9499 11.6665 13.3249 12.0415 13.3249 12.4998C13.3249 12.9582 12.9582 13.3332 12.4999 13.3332Z" fill="white"/>
<path d="M7.50964 8.33317C7.04298 8.33317 6.66797 7.95817 6.66797 7.49984C6.66797 7.0415 7.04297 6.6665 7.5013 6.6665C7.95964 6.6665 8.33464 7.0415 8.33464 7.49984C8.33464 7.95817 7.96798 8.33317 7.50964 8.33317Z" fill="white"/>
<path d="M7.49987 13.1249C7.34154 13.1249 7.1832 13.0666 7.0582 12.9416C6.81654 12.6999 6.81654 12.2999 7.0582 12.0582L12.0582 7.0582C12.2999 6.81654 12.6999 6.81654 12.9415 7.0582C13.1832 7.29987 13.1832 7.69992 12.9415 7.94159L7.94153 12.9416C7.81653 13.0666 7.6582 13.1249 7.49987 13.1249Z" fill="white"/>
</svg>
