<svg width="57" height="57" viewBox="0 0 57 57" fill="none" xmlns="http://www.w3.org/2000/svg">
<rect width="57" height="57" rx="28.5" fill="#C42A25" fill-opacity="0.1"/>
<path fill-rule="evenodd" clip-rule="evenodd" d="M28.3533 17.7652C28.0546 17.6936 27.7265 17.6875 26.7648 17.6875H25.25C24.1844 17.6875 23.4416 17.6883 22.8633 17.7355C22.296 17.7819 21.9701 17.8683 21.7232 17.9941C21.194 18.2637 20.7637 18.694 20.4941 19.2232C20.3683 19.4701 20.2818 19.796 20.2355 20.3634C20.1882 20.9417 20.1875 21.6845 20.1875 22.75V33.25C20.1875 34.3157 20.1882 35.0584 20.2355 35.6367C20.2818 36.204 20.3683 36.53 20.4941 36.7769C20.7637 37.306 21.194 37.7364 21.7232 38.006C21.9701 38.1318 22.296 38.2182 22.8633 38.2645C23.4416 38.3118 24.1844 38.3125 25.25 38.3125H30.75C31.8156 38.3125 32.5584 38.3118 33.1366 38.2645C33.704 38.2182 34.03 38.1318 34.2769 38.006C34.806 37.7364 35.2363 37.306 35.506 36.7769C35.6318 36.53 35.7181 36.204 35.7645 35.6367C35.8117 35.0584 35.8125 34.3157 35.8125 33.25V26.7353C35.8125 25.7735 35.8065 25.4454 35.7347 25.1468C35.6659 24.8598 35.5522 24.5854 35.398 24.3338C35.2376 24.072 35.0099 23.8357 34.3298 23.1556L30.3445 19.1703C29.6644 18.4902 29.428 18.2624 29.1662 18.102C28.9146 17.9478 28.6403 17.8341 28.3533 17.7652ZM26.8715 15.8125C27.686 15.8123 28.2498 15.8121 28.791 15.942C29.2692 16.0569 29.7265 16.2463 30.1459 16.5033C30.6205 16.7941 31.019 17.1929 31.5948 17.7689L31.6702 17.8445L35.6555 21.8298L35.7311 21.9053C36.3071 22.481 36.7059 22.8795 36.9967 23.3541C37.2537 23.7735 37.4431 24.2308 37.558 24.7091C37.6879 25.2503 37.6877 25.814 37.6875 26.6285V26.7353V33.25V33.2902C37.6875 34.3063 37.6875 35.1258 37.6333 35.7894C37.5775 36.4727 37.4595 37.0728 37.1766 37.6282C36.7271 38.5102 36.0101 39.2273 35.1281 39.6767C34.5728 39.9595 33.9726 40.0775 33.2894 40.1333C32.6258 40.1875 31.8062 40.1875 30.7901 40.1875H30.75H25.25H25.2099C24.1938 40.1875 23.3743 40.1875 22.7107 40.1333C22.0274 40.0775 21.4272 39.9595 20.8719 39.6767C19.9899 39.2273 19.2728 38.5102 18.8234 37.6282C18.5405 37.0728 18.4225 36.4727 18.3667 35.7894C18.3125 35.1258 18.3125 34.3062 18.3125 33.2902V33.25V22.75V22.7099C18.3125 21.6939 18.3125 20.8743 18.3667 20.2107C18.4225 19.5274 18.5405 18.9272 18.8234 18.372C19.2728 17.4899 19.9899 16.7728 20.8719 16.3234C21.4272 16.0405 22.0274 15.9226 22.7107 15.8667C23.3743 15.8125 24.1938 15.8125 25.2099 15.8125H25.25H26.7648L26.8715 15.8125ZM28 22.0625C28.5178 22.0625 28.9375 22.4823 28.9375 23V32.8477C29.1836 32.7555 29.4614 32.585 29.8581 32.2482C30.3005 31.8727 30.8263 31.3479 31.5798 30.5945L32.3371 29.8372C32.7032 29.471 33.2968 29.471 33.6629 29.8372C34.029 30.2033 34.029 30.7968 33.6629 31.1629L32.9055 31.9203L32.8773 31.9487C32.1588 32.6672 31.5793 33.2467 31.0716 33.6775C30.549 34.1213 30.0413 34.4623 29.4485 34.6548C28.5071 34.9607 27.4929 34.9607 26.5515 34.6548C25.9588 34.4623 25.451 34.1213 24.9284 33.6775C24.4208 33.2467 23.8413 32.6672 23.1228 31.9487L23.0944 31.9203L22.3371 31.1629C21.971 30.7968 21.971 30.2033 22.3371 29.8372C22.7032 29.471 23.2968 29.471 23.6629 29.8372L24.4203 30.5945C25.1737 31.3479 25.6995 31.8727 26.1419 32.2482C26.5386 32.585 26.8164 32.7555 27.0625 32.8477V23C27.0625 22.4823 27.4823 22.0625 28 22.0625Z" fill="#C42A25"/>
</svg>
