<svg width="22" height="20" viewBox="0 0 22 20" fill="none" xmlns="http://www.w3.org/2000/svg">
<path d="M5.73014 6.84133C5.65718 6.76838 5.5993 6.68176 5.5598 6.58643C5.52031 6.4911 5.49999 6.38893 5.49998 6.28575C5.49998 6.18256 5.5203 6.08039 5.55978 5.98506C5.59926 5.88973 5.65714 5.80311 5.73009 5.73014C5.80305 5.65718 5.88967 5.5993 5.985 5.5598C6.08032 5.52031 6.1825 5.49999 6.28568 5.49998C6.38886 5.49998 6.49104 5.5203 6.58637 5.55978C6.6817 5.59926 6.76832 5.65714 6.84129 5.73009L10.2143 9.10314V0.785714C10.2143 0.57733 10.2971 0.37748 10.4444 0.23013C10.5918 0.0827803 10.7916 0 11 0C11.2084 0 11.4082 0.0827803 11.5556 0.23013C11.7029 0.37748 11.7857 0.57733 11.7857 0.785714V9.10314L15.1587 5.73009C15.2317 5.65714 15.3183 5.59926 15.4136 5.55978C15.509 5.5203 15.6111 5.49998 15.7143 5.49998C15.8175 5.49999 15.9197 5.52031 16.015 5.5598C16.1103 5.5993 16.1969 5.65718 16.2699 5.73014C16.3429 5.80311 16.4007 5.88973 16.4402 5.98506C16.4797 6.08039 16.5 6.18256 16.5 6.28575C16.5 6.38893 16.4797 6.4911 16.4402 6.58643C16.4007 6.68176 16.3428 6.76838 16.2699 6.84133L11.5556 11.5556C11.5533 11.5579 11.5508 11.5597 11.5485 11.562C11.5323 11.5778 11.5157 11.5931 11.4982 11.6075C11.4886 11.6154 11.4784 11.6223 11.4685 11.6297C11.4579 11.6376 11.4474 11.6459 11.4364 11.6533C11.4249 11.661 11.413 11.6676 11.4013 11.6746C11.391 11.6807 11.381 11.6872 11.3704 11.6928C11.3586 11.6992 11.3464 11.7045 11.3344 11.7102C11.3232 11.7155 11.3121 11.7211 11.3007 11.7259C11.2891 11.7307 11.2772 11.7345 11.2654 11.7388C11.253 11.7432 11.2407 11.748 11.2281 11.7518C11.2163 11.7554 11.2044 11.758 11.1925 11.761C11.1795 11.7642 11.1667 11.7679 11.1535 11.7705C11.1398 11.7732 11.126 11.7748 11.1122 11.7768C11.1006 11.7785 11.0892 11.7806 11.0775 11.7818C11.0517 11.7843 11.0259 11.7857 11 11.7857C10.9741 11.7857 10.9483 11.7843 10.9225 11.7818C10.9108 11.7806 10.8994 11.7785 10.8878 11.7768C10.874 11.7748 10.8602 11.7732 10.8465 11.7705C10.8333 11.7679 10.8205 11.7642 10.8075 11.761C10.7956 11.758 10.7837 11.7554 10.7719 11.7518C10.7593 11.748 10.747 11.7432 10.7346 11.7388C10.7228 11.7345 10.7109 11.7307 10.6993 11.7259C10.6879 11.7211 10.6768 11.7155 10.6656 11.7102C10.6536 11.7045 10.6414 11.6992 10.6296 11.6928C10.619 11.6872 10.609 11.6807 10.5987 11.6746C10.587 11.6676 10.5751 11.661 10.5636 11.6533C10.5526 11.6459 10.5421 11.6376 10.5315 11.6297C10.5216 11.6223 10.5114 11.6154 10.5018 11.6075C10.4847 11.5934 10.4683 11.5783 10.4524 11.5628C10.4498 11.5603 10.447 11.5582 10.4444 11.5556L5.73014 6.84133ZM22 11.7857V18.0714C21.9995 18.4881 21.8338 18.8875 21.5392 19.1821C21.2446 19.4767 20.8452 19.6424 20.4286 19.6429H1.57143C1.15481 19.6424 0.755384 19.4767 0.460787 19.1821C0.16619 18.8875 0.000476475 18.4881 0 18.0714V11.7857C0.000476475 11.3691 0.16619 10.9697 0.460787 10.6751C0.755384 10.3805 1.15481 10.2148 1.57143 10.2143H6.88075L9.33323 12.6668C9.77529 13.1088 10.3748 13.3571 11 13.3571C11.6252 13.3571 12.2247 13.1088 12.6668 12.6668L15.1192 10.2143H20.4286C20.8452 10.2148 21.2446 10.3805 21.5392 10.6751C21.8338 10.9697 21.9995 11.3691 22 11.7857ZM18.0715 14.9286C18.0715 14.6955 18.0024 14.4676 17.8729 14.2738C17.7433 14.08 17.5593 13.9289 17.3439 13.8397C17.1286 13.7505 16.8916 13.7272 16.663 13.7726C16.4344 13.8181 16.2244 13.9304 16.0595 14.0952C15.8947 14.26 15.7825 14.47 15.737 14.6986C15.6915 14.9273 15.7148 15.1642 15.804 15.3796C15.8933 15.5949 16.0443 15.779 16.2381 15.9085C16.4319 16.038 16.6598 16.1071 16.8929 16.1071C17.2055 16.1071 17.5053 15.983 17.7263 15.7619C17.9473 15.5409 18.0715 15.2411 18.0715 14.9286Z" fill="#C42A25"/>
</svg>
