<svg width="38" height="38" viewBox="0 0 38 38" fill="none" xmlns="http://www.w3.org/2000/svg">
<g clip-path="url(#clip0_2073_12679)">
<path d="M5.34015 24.1245H2V30.0881H5.34015V24.1245Z" fill="white"/>
<path d="M12.4808 17.188H9.14062V30.088H12.4808V17.188Z" fill="white"/>
<path d="M19.6214 18.9413H16.2812V30.088H19.6214V18.9413Z" fill="white"/>
<path d="M26.764 12.4913H23.4238V30.088H26.764V12.4913Z" fill="white"/>
<path d="M26.0216 8.87436L26.3781 9.16834C26.4499 9.22756 26.5583 9.17646 26.5583 9.0834V7.11013C26.5583 7.04272 26.4982 6.9911 26.4315 7.00129L24.4125 7.30962C24.3185 7.32403 24.2857 7.44291 24.3591 7.50346L24.687 7.77384L19.0745 13.9295C18.895 13.8773 18.7057 13.8479 18.5093 13.8479C18.0612 13.8479 17.6485 13.9954 17.3133 14.2422L13.3867 12.2155C13.3875 12.1922 13.3903 12.1693 13.3903 12.1458C13.3903 11.0291 12.4849 10.1237 11.3682 10.1237C10.2514 10.1237 9.34617 11.0291 9.34617 12.1458C9.34617 12.3515 9.37732 12.5499 9.43444 12.7369L4.9982 16.7716C4.76049 16.6734 4.5003 16.6185 4.22712 16.6185C3.11034 16.6185 2.20508 17.5238 2.20508 18.6406C2.20508 19.7573 3.11034 20.6626 4.22712 20.6626C5.34385 20.6626 6.24916 19.7573 6.24916 18.6406C6.24916 18.4349 6.21796 18.2365 6.1609 18.0495L10.5971 14.0148C10.8348 14.113 11.095 14.1678 11.3682 14.1678C11.83 14.1678 12.2542 14.0114 12.5946 13.7509L16.4927 15.7628C16.4908 15.7985 16.4873 15.8338 16.4873 15.8699C16.4873 16.9866 17.3925 17.892 18.5093 17.892C19.626 17.892 20.5314 16.9866 20.5314 15.8699C20.5314 15.5875 20.4731 15.3188 20.3685 15.0746L26.0216 8.87436Z" fill="white"/>
<path d="M33.4257 26.0081L30.1961 20.3501L30.1986 19.0181L31.2786 19.0201C31.7106 19.0209 32.0887 18.9616 32.4129 18.8422C32.7492 18.7108 33.0255 18.5254 33.242 18.2858C33.4704 18.0462 33.6269 17.7585 33.7116 17.4226L30.2016 17.4161L30.204 16.0841L33.696 16.0906C33.6246 15.7785 33.4991 15.5022 33.3195 15.2619C33.152 15.0216 32.9243 14.8352 32.6366 14.7026C32.3608 14.5581 32.025 14.4855 31.629 14.4848L30.207 14.4821L30.2094 13.1501L38.3274 13.1651L38.325 14.4971L35.499 14.4919C35.7025 14.7203 35.8701 14.9666 36.0016 15.2308C36.1451 15.4951 36.2406 15.7833 36.288 16.0954L38.322 16.0991L38.3196 17.4311L36.3216 17.4274C36.1999 18.3152 35.8566 19.0106 35.2917 19.5135C34.7268 20.0045 34.0002 20.3392 33.1118 20.5175L36.6297 26.014L33.4257 26.0081Z" fill="white"/>
</g>
<defs>
<clipPath id="clip0_2073_12679">
<rect width="38" height="38" fill="white"/>
</clipPath>
</defs>
</svg>
