<svg width="24" height="24" viewBox="0 0 24 24" fill="none" xmlns="http://www.w3.org/2000/svg">
<g clip-path="url(#clip0_1_17659)">
<path d="M2 5C1.45 5 1 5.45 1 6V21C1 22.1 1.9 23 3 23H18C18.55 23 19 22.55 19 22C19 21.45 18.55 21 18 21H4C3.45 21 3 20.55 3 20V6C3 5.45 2.55 5 2 5ZM21 1H7C5.9 1 5 1.9 5 3V17C5 18.1 5.9 19 7 19H21C22.1 19 23 18.1 23 17V3C23 1.9 22.1 1 21 1ZM20 17H8C7.45 17 7 16.55 7 16V4C7 3.45 7.45 3 8 3H20C20.55 3 21 3.45 21 4V16C21 16.55 20.55 17 20 17Z" fill="#636363"/>
<path d="M10 12.0336V13.7223C10 13.8778 10.1222 14 10.2777 14H11.9664C12.0386 14 12.1108 13.9722 12.1608 13.9167L18.2266 7.85641L16.1436 5.77337L10.0833 11.8336C10.0278 11.8892 10 11.9558 10 12.0336ZM19.8375 6.24552C20.0542 6.02889 20.0542 5.67893 19.8375 5.4623L18.5377 4.16248C18.3211 3.94584 17.9711 3.94584 17.7545 4.16248L16.738 5.179L18.821 7.26205L19.8375 6.24552Z" fill="#636363"/>
</g>
<defs>
<clipPath id="clip0_1_17659">
<rect width="24" height="24" fill="white"/>
</clipPath>
</defs>
</svg>
