<svg width="16" height="16" viewBox="0 0 16 16" fill="none" xmlns="http://www.w3.org/2000/svg">
<path d="M14.7624 1.77089L13.3933 0.401798C12.8575 -0.133933 12.0242 -0.133933 11.4885 0.401798L1.01194 10.8188C0.95241 10.8783 0.95241 10.8783 0.95241 10.9378L0 14.2713C0 14.3903 0 14.4499 0.0595256 14.5094L0.119051 14.5689L0.476205 14.9261L0.595257 15.0451C0.654782 15.1046 0.773833 15.1642 0.833359 15.1046L4.1668 14.1522C4.22632 14.1522 4.22632 14.0927 4.28585 14.0927L14.7624 3.61618C15.2386 3.13998 15.2386 2.30662 14.7624 1.77089ZM12.9766 0.818478L14.2862 2.12804C14.5838 2.42567 14.5838 2.90188 14.2862 3.1995L13.2147 4.27096L10.7741 1.83041L11.9051 0.818478C12.2028 0.520849 12.679 0.520849 12.9766 0.818478ZM1.01194 14.3903L0.714308 14.0927L1.60719 11.0569L10.2979 2.42567L12.7385 4.86622L4.34537 13.2593L1.78577 10.5807C1.66672 10.4616 1.36909 10.6402 1.25004 10.6997C1.13099 10.8188 1.13099 10.9378 1.25004 11.0569L3.69059 13.6165L1.01194 14.3903ZM11.4885 4.92575C11.6075 5.0448 11.667 5.2829 11.548 5.34243L5.71446 11.1759C5.53589 11.3545 5.35731 11.295 5.23826 11.1759C5.11921 11.0569 5.05968 10.8188 5.17873 10.7593L11.0122 4.92575C11.1908 4.74717 11.3694 4.8067 11.4885 4.92575Z" fill="#C42A25"/>
</svg>
