<svg width="23" height="23" viewBox="0 0 23 23" fill="none" xmlns="http://www.w3.org/2000/svg">
<path d="M22.4567 2.69216L20.374 0.610826C19.5591 -0.203609 18.2913 -0.203609 17.4764 0.610826L1.53937 16.447C1.44882 16.5375 1.44882 16.5375 1.44882 16.628L0 21.6956C0 21.8766 0 21.9671 0.0905512 22.0576L0.181102 22.1481L0.724409 22.691L0.905512 22.872C0.996063 22.9625 1.17717 23.053 1.26772 22.9625L6.33858 21.5146C6.42913 21.5146 6.42913 21.4241 6.51968 21.4241L22.4567 5.49743C23.1811 4.77349 23.1811 3.50659 22.4567 2.69216ZM19.7402 1.24427L21.7323 3.23511C22.185 3.68758 22.185 4.41152 21.7323 4.86398L20.1024 6.49285L16.3898 2.78265L18.1102 1.24427C18.563 0.791811 19.2874 0.791811 19.7402 1.24427ZM1.53937 21.8766L1.08661 21.4241L2.44488 16.809L15.6654 3.68758L19.378 7.39778L6.61024 20.1572L2.71654 16.0851C2.53543 15.9041 2.08268 16.1756 1.90157 16.2661C1.72047 16.447 1.72047 16.628 1.90157 16.809L5.61417 20.7002L1.53937 21.8766ZM17.4764 7.48827C17.6575 7.66926 17.748 8.03123 17.5669 8.12172L8.69291 16.99C8.42126 17.2615 8.14961 17.171 7.9685 16.99C7.7874 16.809 7.69685 16.447 7.87795 16.3566L16.752 7.48827C17.0236 7.21679 17.2953 7.30728 17.4764 7.48827Z" fill="#6B7280"/>
</svg>
