<svg width="25" height="25" viewBox="0 0 25 25" fill="none" xmlns="http://www.w3.org/2000/svg">
<path d="M23.2213 16.3127C22.8124 16.3127 22.2034 16.7777 21.6379 17.3117V8.64167C21.6379 8.56211 21.6074 8.4858 21.553 8.42954C21.4986 8.37328 21.4248 8.34167 21.3479 8.34167H19.7239V0.313672C19.7239 0.234107 19.6934 0.157801 19.639 0.10154C19.5846 0.045279 19.5108 0.0136719 19.4339 0.0136719H11.3835C11.3066 0.0136719 11.2328 0.045279 11.1785 0.10154C11.1241 0.157801 11.0935 0.234107 11.0935 0.313672V8.34167H9.47242C9.39551 8.34167 9.32175 8.37328 9.26736 8.42954C9.21297 8.4858 9.18242 8.56211 9.18242 8.64167V15.6407C7.90642 15.8417 6.52312 16.7867 5.81262 17.3357V16.8587C5.81262 16.7791 5.78207 16.7028 5.72768 16.6465C5.6733 16.5903 5.59953 16.5587 5.52262 16.5587H0.772422C0.695509 16.5587 0.621747 16.5903 0.567361 16.6465C0.512975 16.7028 0.482422 16.7791 0.482422 16.8587V24.2297C0.482422 24.3092 0.512975 24.3855 0.567361 24.4418C0.621747 24.4981 0.695509 24.5297 0.772422 24.5297H5.52262C5.59953 24.5297 5.6733 24.4981 5.72768 24.4418C5.78207 24.3855 5.81262 24.3092 5.81262 24.2297V23.7887C6.81022 23.9237 9.82912 24.3347 11.4299 24.5297C11.9239 24.5867 12.4206 24.6148 12.9176 24.6137C14.4962 24.5817 16.069 24.408 17.6185 24.0947C19.2193 23.7947 19.4107 23.6027 20.4837 22.5227C20.7563 22.2467 21.0927 21.9227 21.5306 21.4877C23.6621 19.4507 24.5524 17.9297 24.1957 16.9697C24.1159 16.7716 23.9803 16.6029 23.8065 16.4857C23.6327 16.3685 23.4287 16.3082 23.2213 16.3127ZM5.24132 17.9537V23.9297H1.06242V17.1587H5.23262L5.24132 17.9537ZM14.3763 0.613672H16.4324V2.85767L15.5624 2.20667C15.5128 2.16913 15.4528 2.14889 15.3913 2.14889C15.3298 2.14889 15.2699 2.16913 15.2202 2.20667L14.3502 2.85767L14.3763 0.613672ZM11.6735 0.613672H13.7963V3.44867C13.7965 3.50407 13.8115 3.55834 13.8396 3.60547C13.8678 3.6526 13.908 3.69074 13.9558 3.71567C14.0022 3.73802 14.0534 3.74729 14.1043 3.74255C14.1553 3.73781 14.2041 3.71922 14.2458 3.68867L15.4058 2.81867L16.5658 3.68867C16.6152 3.72701 16.6752 3.74803 16.7369 3.74867C16.7832 3.7481 16.8288 3.73683 16.8703 3.71567C16.9176 3.69033 16.9572 3.65201 16.9849 3.60491C17.0125 3.55782 17.027 3.50376 17.0269 3.44867V0.613672H19.1497V8.34167H11.6735V0.613672ZM17.0704 8.94167V12.6737L15.5798 11.5487C15.5302 11.5111 15.4702 11.4909 15.4087 11.4909C15.3472 11.4909 15.2873 11.5111 15.2376 11.5487L13.7499 12.6737V8.94167H17.0704ZM9.76242 8.94167H13.1699V13.2647C13.1698 13.3198 13.1844 13.3738 13.212 13.4209C13.2396 13.468 13.2792 13.5063 13.3265 13.5317C13.3739 13.5582 13.4275 13.5706 13.4812 13.5674C13.535 13.5642 13.5869 13.5456 13.631 13.5137L15.4087 12.1697L17.1893 13.5137C17.2387 13.552 17.2987 13.573 17.3604 13.5737C17.4058 13.5734 17.4505 13.5621 17.4909 13.5407C17.5387 13.5157 17.579 13.4776 17.6071 13.4305C17.6353 13.3833 17.6503 13.3291 17.6504 13.2737V8.94167H21.0724V17.8967C20.5649 18.4337 20.2024 18.9047 20.2024 18.9047C19.9298 19.1687 17.1516 20.3297 16.0931 20.2457C15.4145 20.1917 14.4633 19.4837 13.8224 18.9137C17.1748 18.8567 17.8128 18.2447 17.9926 17.7767C18.1318 17.4137 17.9926 16.9937 17.6098 16.6277C17.227 16.2617 16.1424 16.2317 14.0718 16.2317H13.8398C13.2788 16.2076 12.7218 16.1221 12.1781 15.9767C11.3856 15.7779 10.5768 15.6563 9.76242 15.6137V8.94167ZM21.1391 21.0497C20.6954 21.4727 20.3561 21.8147 20.0777 22.0937C19.0482 23.1317 18.9409 23.2397 17.517 23.5067C15.8988 23.8067 13.515 24.1787 11.4966 23.9327C9.86102 23.7317 6.72322 23.3057 5.81262 23.1827V18.0827C6.28242 17.7137 8.26022 16.1357 9.72762 16.2137C10.51 16.2593 11.2867 16.3798 12.0476 16.5737C12.632 16.7299 13.2309 16.8204 13.834 16.8437H13.9993C14.7968 16.8437 16.9167 16.8437 17.1893 17.0897C17.3401 17.2337 17.4793 17.4377 17.4271 17.5757C17.3546 17.7617 16.8268 18.3557 13.0481 18.3377C12.9902 18.3373 12.9334 18.3549 12.8852 18.3882C12.837 18.4216 12.7996 18.469 12.7778 18.5246C12.7559 18.5801 12.7507 18.6412 12.7627 18.6998C12.7747 18.7585 12.8034 18.8121 12.8451 18.8537C12.9205 18.9287 14.7301 20.7527 16.0032 20.8547C17.1632 20.9507 20.3068 19.7327 20.6171 19.2857C20.9274 18.8387 22.7022 16.9247 23.2068 16.9247C23.2975 16.9213 23.3872 16.9456 23.4646 16.9947C23.542 17.0438 23.6036 17.1155 23.6418 17.2007C23.752 17.4407 23.8477 18.4547 21.1391 21.0497Z" fill="#374151"/>
</svg>
