<svg width="25" height="25" viewBox="0 0 25 25" fill="none" xmlns="http://www.w3.org/2000/svg">
<g clip-path="url(#clip0_1_22118)">
<path d="M25 12.5C25 5.5965 19.4035 0 12.5 0C5.5965 0 0 5.5965 0 12.5C0 18.362 4.036 23.281 9.4805 24.632V16.32H6.903V12.5H9.4805V10.854C9.4805 6.5995 11.406 4.6275 15.583 4.6275C16.375 4.6275 17.7415 4.783 18.3005 4.938V8.4005C18.0055 8.3695 17.493 8.354 16.8565 8.354C14.807 8.354 14.015 9.1305 14.015 11.149V12.5H18.098L17.3965 16.32H14.015V24.9085C20.2045 24.161 25.0005 18.891 25.0005 12.5H25Z" fill="#0866FF"/>
<path d="M17.3958 16.3204L18.0973 12.5004H14.0143V11.1494C14.0143 9.13093 14.8063 8.35443 16.8558 8.35443C17.4923 8.35443 18.0048 8.36993 18.2998 8.40093V4.93843C17.7408 4.78293 16.3743 4.62793 15.5823 4.62793C11.4053 4.62793 9.47984 6.59993 9.47984 10.8544V12.5004H6.90234V16.3204H9.47984V24.6324C10.4468 24.8724 11.4583 25.0004 12.4993 25.0004C13.0118 25.0004 13.5173 24.9689 14.0138 24.9089V16.3204H17.3953H17.3958Z" fill="white"/>
</g>
<defs>
<clipPath id="clip0_1_22118">
<rect width="25" height="25" fill="white"/>
</clipPath>
</defs>
</svg>
