<svg width="38" height="38" viewBox="0 0 38 38" fill="none" xmlns="http://www.w3.org/2000/svg">
<g clip-path="url(#clip0_2073_12658)">
<path d="M16.1217 4.83261H16.3153H16.415C16.8171 4.85758 17.1939 5.03936 17.4661 5.33967C21.411 9.58052 25.4413 13.9827 29.2694 18.3215C29.4362 18.5019 29.5833 18.6999 29.7081 18.9121L29.7423 18.9726C29.858 19.1787 29.9534 19.3959 30.0271 19.6209C30.2706 20.3208 30.3004 21.0787 30.1125 21.796C29.9228 22.5182 29.5265 23.1677 28.9732 23.6629L18.6595 32.9744L18.5741 33.0579C18.4054 33.2125 18.2233 33.3513 18.03 33.4728L17.9788 33.5016C17.7838 33.6184 17.5777 33.7149 17.3635 33.7897L17.318 33.807C17.1057 33.8789 16.8874 33.931 16.6657 33.9625C16.4203 33.9958 16.1722 34.0045 15.9251 33.9885C15.6792 33.9753 15.4351 33.9386 15.196 33.879C14.9599 33.8165 14.7309 33.7296 14.5124 33.6197C14.2958 33.5108 14.0898 33.3815 13.8971 33.2337L13.8687 33.2106C13.6844 33.0633 13.5137 32.8994 13.3588 32.7208L2.27604 20.1567L2.22762 20.0962C1.97706 19.7823 1.85386 19.3837 1.88298 18.9813L1.90291 18.7191L1 5.66523C1 5.60184 1 5.53846 1 5.47796V5.44051C1.03743 5.07218 1.19941 4.72822 1.45858 4.46672C1.72733 4.19223 2.08583 4.02629 2.46688 4H2.6748L15.8425 4.8643H15.9679H16.1217V4.83261ZM24.6409 32.8418C24.5681 32.9202 24.4799 32.9824 24.382 33.0245C24.2842 33.0666 24.1787 33.0877 24.0724 33.0865C23.966 33.0854 23.8611 33.0619 23.7641 33.0175C23.6672 32.9732 23.5804 32.9091 23.5093 32.8291C23.4381 32.7491 23.3842 32.6551 23.3508 32.553C23.3174 32.4508 23.3053 32.3428 23.3153 32.2357C23.3253 32.1286 23.3571 32.0247 23.4088 31.9307C23.4605 31.8367 23.5309 31.7545 23.6156 31.6894L33.9834 22.3088C34.1268 22.1856 34.2432 22.0336 34.3252 21.8623C34.4747 21.5288 34.497 21.1512 34.3879 20.8021C34.3248 20.6279 34.228 20.4682 34.103 20.3325L22.3224 7.36791C22.1842 7.21509 22.1116 7.01298 22.1207 6.80605C22.1298 6.59911 22.2198 6.40431 22.3708 6.26448C22.5219 6.12465 22.7217 6.05125 22.9263 6.06044C23.1309 6.06962 23.3235 6.16064 23.4618 6.31345L35.248 19.278C35.2582 19.2879 35.2678 19.2985 35.2765 19.3097C35.5278 19.5998 35.7213 19.9364 35.8462 20.3008C36.0965 21.041 36.0494 21.8511 35.7152 22.5566C35.544 22.9043 35.3069 23.2147 35.0173 23.4699L24.6409 32.8418ZM8.18628 8.46269C8.5053 8.4673 8.82012 8.53687 9.11198 8.66724C9.40375 8.79817 9.66705 8.98616 9.88672 9.2204C10.1084 9.4515 10.2826 9.72468 10.3994 10.0242C10.5194 10.3273 10.5794 10.6513 10.576 10.9778C10.576 11.0066 10.576 11.0354 10.576 11.0642C10.5605 11.3623 10.492 11.6551 10.3738 11.9286C10.2373 12.2246 10.0436 12.4901 9.80412 12.7093L9.75854 12.7496C9.53493 12.9554 9.2763 13.1184 8.9952 13.2308C8.70355 13.3433 8.39296 13.3972 8.08089 13.3892C7.75987 13.3914 7.44186 13.3267 7.14665 13.1991C6.55261 12.9316 6.08477 12.4408 5.84212 11.8306C5.72644 11.5287 5.67218 11.2063 5.68262 10.8827C5.68659 10.5554 5.75535 10.2321 5.88485 9.93201C6.15669 9.32548 6.65258 8.85078 7.26628 8.60962C7.563 8.49382 7.87982 8.43992 8.19767 8.45117L8.18628 8.46269ZM16.2498 6.44598C16.1729 6.44598 16.1103 6.44598 16.0362 6.44598C15.9663 6.45619 15.8953 6.45619 15.8254 6.44598L2.60645 5.58168L3.50651 18.6442C3.51078 18.6931 3.51078 18.7422 3.50651 18.7911L3.48372 19.0792L14.5551 31.6577C14.6414 31.7621 14.7368 31.8585 14.8399 31.9458L14.857 31.9602C14.9654 32.0439 15.0818 32.1163 15.2045 32.1763C15.3261 32.2346 15.453 32.2809 15.5833 32.3146C15.7244 32.35 15.8684 32.3721 16.0134 32.3809C16.1564 32.3954 16.3005 32.3954 16.4435 32.3809C16.5644 32.3636 16.6835 32.3356 16.7996 32.2973H16.8309C16.943 32.2577 17.0509 32.2065 17.1528 32.1446L17.1869 32.1245C17.3059 32.0468 17.4175 31.958 17.5202 31.8594L17.5515 31.8277C20.8869 28.6413 24.621 25.6623 27.9194 22.4385C28.2353 22.1578 28.4622 21.789 28.5716 21.3783C28.6419 21.1128 28.6597 20.836 28.624 20.5636C28.5883 20.2912 28.4999 20.0286 28.3637 19.7908L28.3352 19.7447C28.2704 19.6347 28.195 19.5315 28.1102 19.4365L16.304 6.46039L16.2498 6.44598Z" fill="white"/>
<path d="M19.7133 24.4965L13.4497 22.7051L12.5208 21.7504L13.2948 20.9973C13.6044 20.696 13.8335 20.3894 13.982 20.0774C14.1308 19.7485 14.1989 19.4227 14.1863 19.1001C14.1824 18.7691 14.0934 18.4539 13.9192 18.1545L11.4036 20.6022L10.4747 19.6476L12.9774 17.2124C12.7083 17.039 12.4255 16.929 12.1291 16.8825C11.8413 16.8277 11.5482 16.8534 11.2497 16.9596C10.9515 17.0489 10.6605 17.2316 10.3767 17.5077L9.3575 18.4994L8.4286 17.5447L14.2469 11.8835L15.1758 12.8382L13.1503 14.8089C13.4556 14.8301 13.7475 14.8892 14.0262 14.9864C14.3135 15.0752 14.5832 15.2146 14.8352 15.4048L16.293 13.9863L17.2219 14.941L15.7899 16.3343C16.3231 17.0545 16.5634 17.7918 16.5106 18.5463C16.4495 19.2923 16.1635 20.0394 15.6526 20.7877L22.0097 22.2621L19.7133 24.4965Z" fill="white"/>
</g>
<defs>
<clipPath id="clip0_2073_12658">
<rect width="35" height="30" fill="white" transform="translate(1 4)"/>
</clipPath>
</defs>
</svg>
