<svg width="157" height="34" viewBox="0 0 157 34" fill="none" xmlns="http://www.w3.org/2000/svg">
<path d="M61.415 5.00737C61.415 5.97885 61.1721 6.8289 60.565 7.43607C59.8364 8.16468 58.9863 8.52899 57.8934 8.52899C56.8005 8.52899 55.9504 8.16468 55.2218 7.43607C54.4932 6.70746 54.1289 5.85741 54.1289 4.7645C54.1289 3.67158 54.4932 2.82153 55.2218 2.09292C55.9504 1.36431 56.8005 1 57.8934 1C58.3791 1 58.8649 1.12143 59.3506 1.36431C59.8364 1.60718 60.2007 1.85005 60.4435 2.21435L59.8364 2.82153C59.3506 2.21435 58.7434 1.97148 57.8934 1.97148C57.1648 1.97148 56.4362 2.21435 55.9504 2.82153C55.3433 3.30727 55.1004 4.03588 55.1004 4.88593C55.1004 5.73598 55.3433 6.46459 55.9504 6.95033C56.5576 7.43607 57.1648 7.80038 57.8934 7.80038C58.7434 7.80038 59.3506 7.55751 59.9578 6.95033C60.3221 6.58603 60.565 6.10028 60.565 5.49311H57.8934V4.52162H61.415V5.00737ZM67.001 1.97148H63.7223V4.27875H66.7582V5.1288H63.7223V7.43607H67.001V8.40756H62.7508V1.12144H67.001V1.97148ZM71.0084 8.40756H70.0369V1.97148H67.9725V1.12144H73.0728V1.97148H71.0084V8.40756ZM76.5944 8.40756V1.12144H77.5659V8.40756H76.5944ZM81.6947 8.40756H80.7232V1.97148H78.6588V1.12144H83.6377V1.97148H81.5733V8.40756H81.6947ZM93.231 7.43607C92.5024 8.16468 91.6524 8.52899 90.5595 8.52899C89.4666 8.52899 88.6165 8.16468 87.8879 7.43607C87.1593 6.70746 86.795 5.85741 86.795 4.7645C86.795 3.67158 87.1593 2.82153 87.8879 2.09292C88.6165 1.36431 89.4666 1 90.5595 1C91.6524 1 92.5024 1.36431 93.231 2.09292C93.9597 2.82153 94.324 3.67158 94.324 4.7645C94.324 5.85741 93.9597 6.70746 93.231 7.43607ZM88.6165 6.8289C89.1023 7.31464 89.8309 7.67894 90.5595 7.67894C91.2881 7.67894 92.0167 7.43607 92.5024 6.8289C92.9882 6.34315 93.3525 5.61454 93.3525 4.7645C93.3525 3.91445 93.1096 3.18584 92.5024 2.70009C92.0167 2.21435 91.2881 1.85005 90.5595 1.85005C89.8309 1.85005 89.1023 2.09292 88.6165 2.70009C88.1308 3.18584 87.7665 3.91445 87.7665 4.7645C87.7665 5.61454 88.0093 6.34315 88.6165 6.8289ZM95.6597 8.40756V1.12144H96.7527L100.274 6.8289V1.12144H101.246V8.40756H100.274L96.5098 2.45722V8.40756H95.6597Z" fill="black" stroke="white" stroke-width="0.546459" stroke-miterlimit="10"/>
<path d="M86.5531 19.0938C83.6387 19.0938 81.3314 21.2796 81.3314 24.3155C81.3314 27.23 83.6387 29.5372 86.5531 29.5372C89.4676 29.5372 91.7748 27.3514 91.7748 24.3155C91.7748 21.1582 89.4676 19.0938 86.5531 19.0938ZM86.5531 27.3514C84.9745 27.3514 83.6387 26.0156 83.6387 24.1941C83.6387 22.3726 84.9745 21.0368 86.5531 21.0368C88.1318 21.0368 89.4676 22.2511 89.4676 24.1941C89.4676 26.0156 88.1318 27.3514 86.5531 27.3514ZM75.2597 19.0938C72.3452 19.0938 70.0379 21.2796 70.0379 24.3155C70.0379 27.23 72.3452 29.5372 75.2597 29.5372C78.1741 29.5372 80.4814 27.3514 80.4814 24.3155C80.4814 21.1582 78.1741 19.0938 75.2597 19.0938ZM75.2597 27.3514C73.681 27.3514 72.3452 26.0156 72.3452 24.1941C72.3452 22.3726 73.681 21.0368 75.2597 21.0368C76.8383 21.0368 78.1741 22.2511 78.1741 24.1941C78.1741 26.0156 76.8383 27.3514 75.2597 27.3514ZM61.7804 20.6725V22.8583H67.0021C66.8806 24.0727 66.3949 25.0441 65.7877 25.6513C65.0591 26.3799 63.8448 27.23 61.7804 27.23C58.5016 27.23 56.0729 24.6798 56.0729 21.4011C56.0729 18.1223 58.623 15.5722 61.7804 15.5722C63.4804 15.5722 64.8162 16.3008 65.7877 17.1508L67.3664 15.5722C66.0306 14.3578 64.3305 13.3864 61.9018 13.3864C57.5301 13.3864 53.7656 17.0294 53.7656 21.4011C53.7656 25.7728 57.5301 29.4158 61.9018 29.4158C64.3305 29.4158 66.0306 28.6872 67.4878 27.1085C68.945 25.6513 69.4308 23.5869 69.4308 22.0083C69.4308 21.5225 69.4308 21.0368 69.3093 20.6725H61.7804ZM116.912 22.3726C116.426 21.1582 115.212 19.0938 112.54 19.0938C109.869 19.0938 107.683 21.1582 107.683 24.3155C107.683 27.23 109.869 29.5372 112.783 29.5372C115.09 29.5372 116.548 28.08 117.033 27.23L115.333 26.0156C114.726 26.8657 113.997 27.4728 112.783 27.4728C111.569 27.4728 110.84 26.9871 110.233 25.8942L117.155 22.9797L116.912 22.3726ZM109.869 24.0727C109.869 22.1297 111.447 21.0368 112.54 21.0368C113.39 21.0368 114.24 21.5225 114.483 22.1297L109.869 24.0727ZM104.161 29.0515H106.469V13.8721H104.161V29.0515ZM100.518 20.1867C99.911 19.5796 98.9395 18.9724 97.7252 18.9724C95.175 18.9724 92.7463 21.2796 92.7463 24.1941C92.7463 27.1085 95.0536 29.2944 97.7252 29.2944C98.9395 29.2944 99.911 28.6872 100.397 28.08H100.518V28.8086C100.518 30.7516 99.4253 31.8445 97.7252 31.8445C96.3894 31.8445 95.4179 30.873 95.175 30.023L93.2321 30.873C93.8392 32.2088 95.2965 33.9089 97.8466 33.9089C100.518 33.9089 102.704 32.3303 102.704 28.5658V19.3367H100.518V20.1867ZM97.8466 27.3514C96.268 27.3514 94.9322 26.0156 94.9322 24.1941C94.9322 22.3726 96.268 21.0368 97.8466 21.0368C99.4253 21.0368 100.64 22.3726 100.64 24.1941C100.64 26.0156 99.4253 27.3514 97.8466 27.3514ZM127.477 13.8721H122.012V29.0515H124.319V23.344H127.477C130.027 23.344 132.456 21.5225 132.456 18.6081C132.456 15.6936 130.027 13.8721 127.477 13.8721ZM127.598 21.1582H124.319V15.9365H127.598C129.298 15.9365 130.27 17.3937 130.27 18.4866C130.148 19.8224 129.177 21.1582 127.598 21.1582ZM141.563 18.9724C139.863 18.9724 138.163 19.701 137.556 21.2796L139.62 22.1297C140.106 21.2796 140.835 21.0368 141.685 21.0368C142.899 21.0368 143.992 21.7654 144.113 22.9797V23.1012C143.749 22.8583 142.778 22.494 141.806 22.494C139.62 22.494 137.434 23.7084 137.434 25.8942C137.434 27.9586 139.256 29.2944 141.199 29.2944C142.778 29.2944 143.506 28.5658 144.113 27.8372H144.235V29.0515H146.421V23.2226C146.178 20.551 144.113 18.9724 141.563 18.9724ZM141.32 27.3514C140.592 27.3514 139.499 26.9871 139.499 26.0156C139.499 24.8013 140.835 24.437 141.928 24.437C142.899 24.437 143.385 24.6798 143.992 24.9227C143.749 26.3799 142.535 27.3514 141.32 27.3514ZM154.071 19.3367L151.521 25.8942H151.4L148.728 19.3367H146.299L150.307 28.5658L147.999 33.666H150.307L156.5 19.3367H154.071ZM133.67 29.0515H135.977V13.8721H133.67V29.0515Z" fill="black"/>
<path d="M0.48574 1.72858C0.121435 2.09288 0 2.70006 0 3.42867V30.2659C0 30.9945 0.24287 31.6017 0.607176 31.966L0.728612 32.0874L15.7866 17.0294V16.7866L0.48574 1.72858Z" fill="url(#paint0_linear_1562_13171)"/>
<path d="M20.6429 22.1296L15.6641 17.1508V16.7865L20.6429 11.8076L20.7643 11.9291L26.7147 15.3292C28.4148 16.3007 28.4148 17.8794 26.7147 18.8509L20.6429 22.1296Z" fill="url(#paint1_linear_1562_13171)"/>
<path d="M20.7641 22.0082L15.6638 16.908L0.484375 32.0874C1.09155 32.6946 1.9416 32.6946 3.03451 32.2088L20.7641 22.0082Z" fill="url(#paint2_linear_1562_13171)"/>
<path d="M20.7641 11.8076L3.03451 1.7285C1.9416 1.12133 1.09155 1.24276 0.484375 1.84994L15.6638 16.9079L20.7641 11.8076Z" fill="url(#paint3_linear_1562_13171)"/>
<path opacity="0.12" d="M0.48574 31.8445C0.121435 31.4802 0 30.873 0 30.1444V30.2658C0 30.9945 0.24287 31.6016 0.607176 31.9659V31.8445H0.48574ZM26.7157 18.4866L20.644 21.8868L20.7654 22.0082L26.7157 18.6081C27.5658 18.1223 27.9301 17.5151 27.9301 16.908C27.9301 17.5151 27.4444 18.0009 26.7157 18.4866Z" fill="black"/>
<path opacity="0.25" d="M3.03588 1.84995L26.7157 15.3293C27.4444 15.815 27.9301 16.3008 27.9301 16.9079C27.9301 16.3008 27.5658 15.6936 26.7157 15.2078L3.03588 1.72851C1.33579 0.757032 0 1.48564 0 3.42861V3.55004C0 1.72851 1.33579 0.878467 3.03588 1.84995Z" fill="white"/>
<defs>
<linearGradient id="paint0_linear_1562_13171" x1="14.3294" y1="3.19794" x2="-6.05114" y2="23.5772" gradientUnits="userSpaceOnUse">
<stop stop-color="#00A0FF"/>
<stop offset="0.007" stop-color="#00A1FF"/>
<stop offset="0.26" stop-color="#00BEFF"/>
<stop offset="0.512" stop-color="#00D2FF"/>
<stop offset="0.76" stop-color="#00DFFF"/>
<stop offset="1" stop-color="#00E3FF"/>
</linearGradient>
<linearGradient id="paint1_linear_1562_13171" x1="28.9418" y1="16.9091" x2="-0.441891" y2="16.9091" gradientUnits="userSpaceOnUse">
<stop stop-color="#FFE000"/>
<stop offset="0.409" stop-color="#FFBD00"/>
<stop offset="0.775" stop-color="#FFA500"/>
<stop offset="1" stop-color="#FF9C00"/>
</linearGradient>
<linearGradient id="paint2_linear_1562_13171" x1="18.0038" y1="19.6961" x2="-9.63242" y2="47.3323" gradientUnits="userSpaceOnUse">
<stop stop-color="#FF3A44"/>
<stop offset="1" stop-color="#C31162"/>
</linearGradient>
<linearGradient id="paint3_linear_1562_13171" x1="-3.28376" y1="-7.16542" x2="9.05771" y2="5.17604" gradientUnits="userSpaceOnUse">
<stop stop-color="#32A071"/>
<stop offset="0.069" stop-color="#2DA771"/>
<stop offset="0.476" stop-color="#15CF74"/>
<stop offset="0.801" stop-color="#06E775"/>
<stop offset="1" stop-color="#00F076"/>
</linearGradient>
</defs>
</svg>
