<svg width="25" height="25" viewBox="0 0 25 25" fill="none" xmlns="http://www.w3.org/2000/svg">
<path fill-rule="evenodd" clip-rule="evenodd" d="M6.12436 4.9241C4.46537 5.68243 3.25 7.48614 3.25 9.63701C3.25 11.8344 4.14922 13.5281 5.43829 14.9797C6.50072 16.176 7.78684 17.1675 9.04113 18.1345C9.33904 18.3642 9.63515 18.5925 9.92605 18.8218C10.4521 19.2365 10.9213 19.6004 11.3736 19.8647C11.8261 20.1292 12.1904 20.2499 12.5 20.2499C12.8096 20.2499 13.1739 20.1292 13.6264 19.8647C14.0787 19.6004 14.5479 19.2365 15.074 18.8218C15.3649 18.5925 15.661 18.3642 15.9589 18.1345C17.2132 17.1675 18.4993 16.176 19.5617 14.9797C20.8508 13.5281 21.75 11.8344 21.75 9.63701C21.75 7.48614 20.5346 5.68243 18.8756 4.9241C17.2639 4.18739 15.0983 4.38249 13.0404 6.52065C12.899 6.66754 12.7039 6.75054 12.5 6.75054C12.2961 6.75054 12.101 6.66754 11.9596 6.52065C9.90166 4.38249 7.73607 4.18739 6.12436 4.9241ZM12.5 4.95873C10.1879 2.89015 7.59896 2.60078 5.50076 3.55987C3.28471 4.57283 1.75 6.92494 1.75 9.63701C1.75 12.3025 2.8605 14.336 4.31672 15.9757C5.48287 17.2888 6.91022 18.3879 8.17083 19.3585C8.45659 19.5785 8.73378 19.792 8.99742 19.9998C9.50965 20.4036 10.0595 20.8342 10.6168 21.1598C11.1739 21.4853 11.8096 21.7499 12.5 21.7499C13.1904 21.7499 13.8261 21.4853 14.3832 21.1598C14.9405 20.8342 15.4903 20.4036 16.0026 19.9998C16.2662 19.792 16.5434 19.5785 16.8292 19.3585C18.0898 18.3879 19.5171 17.2888 20.6833 15.9757C22.1395 14.336 23.25 12.3025 23.25 9.63701C23.25 6.92494 21.7153 4.57283 19.4992 3.55987C17.401 2.60078 14.8121 2.89015 12.5 4.95873Z" fill="white"/>
</svg>
