<svg width="12" height="12" viewBox="0 0 12 12" fill="none" xmlns="http://www.w3.org/2000/svg">
<path fill-rule="evenodd" clip-rule="evenodd" d="M2.63723 5.06309C2.5 5.36146 2.5 5.7009 2.5 6.37977V8.49997C2.5 9.44278 2.5 9.91418 2.79289 10.2071C3.08579 10.5 3.55719 10.5 4.5 10.5L4.5 8C4.5 7.58579 4.83579 7.25 5.25 7.25H6.75C7.16421 7.25 7.5 7.58579 7.5 8V10.5C8.44281 10.5 8.91421 10.5 9.20711 10.2071C9.5 9.91418 9.5 9.44278 9.5 8.49997V6.37977C9.5 5.7009 9.5 5.36146 9.36277 5.06309C9.22554 4.76472 8.96782 4.54381 8.45237 4.102L7.95237 3.67343C7.02072 2.87487 6.55489 2.47559 6 2.47559C5.44511 2.47559 4.97928 2.87487 4.04763 3.67343L3.54763 4.102C3.03218 4.54381 2.77446 4.76472 2.63723 5.06309ZM7 10.5V8C7 7.86193 6.88807 7.75 6.75 7.75H5.25C5.11193 7.75 5 7.86193 5 8V10.5H7Z" fill="#222222"/>
</svg>