<svg width="28" height="28" viewBox="0 0 28 28" fill="none" xmlns="http://www.w3.org/2000/svg">
<mask id="mask0_439_1926" style="mask-type:luminance" maskUnits="userSpaceOnUse" x="0" y="0" width="28" height="28">
<path d="M14 28C21.732 28 28 21.732 28 14C28 6.26801 21.732 0 14 0C6.26801 0 0 6.26801 0 14C0 21.732 6.26801 28 14 28Z" fill="white"/>
</mask>
<g mask="url(#mask0_439_1926)">
<path d="M6.01562 56.6562C22.6273 56.6562 36.0938 43.1898 36.0938 26.5781C36.0938 9.96643 22.6273 -3.5 6.01562 -3.5C-10.5961 -3.5 -24.0625 9.96643 -24.0625 26.5781C-24.0625 43.1898 -10.5961 56.6562 6.01562 56.6562Z" fill="white"/>
</g>
<path d="M17.9375 11.1562C18.5416 11.1562 19.0312 10.6666 19.0312 10.0625C19.0312 9.45844 18.5416 8.96875 17.9375 8.96875C17.3334 8.96875 16.8438 9.45844 16.8438 10.0625C16.8438 10.6666 17.3334 11.1562 17.9375 11.1562Z" fill="#0C0C0C"/>
<path d="M14 10.5C13.3078 10.5 12.6311 10.7053 12.0555 11.0899C11.4799 11.4744 11.0313 12.0211 10.7664 12.6606C10.5015 13.3001 10.4322 14.0039 10.5673 14.6828C10.7023 15.3617 11.0356 15.9854 11.5251 16.4749C12.0146 16.9644 12.6383 17.2977 13.3172 17.4327C13.9961 17.5678 14.6999 17.4985 15.3394 17.2336C15.9789 16.9687 16.5256 16.5201 16.9101 15.9445C17.2947 15.3689 17.5 14.6922 17.5 14C17.5 13.0717 17.1313 12.1815 16.4749 11.5251C15.8185 10.8687 14.9283 10.5 14 10.5ZM14 15.75C13.6539 15.75 13.3155 15.6474 13.0278 15.4551C12.74 15.2628 12.5157 14.9895 12.3832 14.6697C12.2508 14.3499 12.2161 13.9981 12.2836 13.6586C12.3512 13.3191 12.5178 13.0073 12.7626 12.7626C13.0073 12.5178 13.3191 12.3511 13.6586 12.2836C13.9981 12.2161 14.3499 12.2508 14.6697 12.3832C14.9895 12.5157 15.2628 12.74 15.4551 13.0278C15.6474 13.3155 15.75 13.6539 15.75 14C15.75 14.4641 15.5656 14.9092 15.2374 15.2374C14.9092 15.5656 14.4641 15.75 14 15.75Z" fill="#0C0C0C"/>
<path d="M18.375 7H9.625C8.17525 7 7 8.17525 7 9.625V18.375C7 19.8247 8.17525 21 9.625 21H18.375C19.8247 21 21 19.8247 21 18.375V9.625C21 8.17525 19.8247 7 18.375 7Z" stroke="#181818" stroke-width="2" stroke-miterlimit="10"/>
</svg>
