<svg width="153" height="38" viewBox="0 0 153 38" fill="none" xmlns="http://www.w3.org/2000/svg">
<path d="M22.2176 17.3826C22.1805 13.2532 25.5997 11.2442 25.7561 11.1507C23.8196 8.32809 20.8182 7.94244 19.7634 7.91169C17.2425 7.64647 14.7973 9.41971 13.5131 9.41971C12.2034 9.41971 10.2259 7.93731 8.0946 7.98087C5.35201 8.02316 2.78628 9.61062 1.37911 12.0757C-1.52496 17.1021 0.640914 24.4884 3.42323 28.5513C4.81503 30.5423 6.44136 32.7627 8.57007 32.6846C10.6526 32.6 11.4306 31.3585 13.9437 31.3585C16.4339 31.3585 17.1644 32.6846 19.3354 32.6346C21.5704 32.6 22.9776 30.6358 24.3207 28.6281C25.9291 26.3488 26.575 24.1015 26.6007 23.9862C26.5494 23.9682 22.2612 22.3308 22.2176 17.3826ZM18.1166 5.23901C19.2367 3.83861 20.0031 1.9334 19.7903 0C18.1691 0.0717497 16.1417 1.12109 14.9741 2.49074C13.9412 3.69767 13.0184 5.67591 13.2568 7.53628C15.0779 7.67209 16.9478 6.61763 18.1166 5.23901Z" fill="black"/>
<path d="M64.381 32.3989H61.4705L59.8762 27.3906H54.3347L52.816 32.3989H49.9824L55.474 15.3481H58.8651L64.381 32.3989ZM59.3956 25.2893L57.9539 20.837C57.8014 20.3821 57.5143 19.311 57.0939 17.6249H57.0427C56.8735 18.3501 56.6031 19.4212 56.2327 20.837L54.8153 25.2893H59.3956ZM78.4759 26.1003C78.4759 28.1913 77.9081 29.8441 76.7714 31.0575C75.7538 32.1376 74.4889 32.677 72.9804 32.677C71.3515 32.677 70.1802 32.0966 69.4689 30.9332V37.3843H66.7366V24.1452C66.7366 22.8319 66.702 21.4853 66.6353 20.1041H69.0383L69.1908 22.0529H69.2421C70.1533 20.5846 71.5361 19.8504 73.3918 19.8504C74.8426 19.8504 76.0537 20.4231 77.0225 21.5699C77.9901 22.7191 78.4759 24.2284 78.4759 26.1003ZM75.6923 26.2003C75.6923 25.0036 75.4231 24.017 74.8823 23.2393C74.2915 22.4309 73.4982 22.026 72.5037 22.026C71.8296 22.026 71.217 22.2515 70.6697 22.6961C70.1212 23.1445 69.7624 23.73 69.5945 24.4552C69.5195 24.7264 69.4769 25.0055 69.4676 25.2868V27.338C69.4676 28.2311 69.7419 28.9857 70.2904 29.6033C70.8389 30.2183 71.5515 30.527 72.4281 30.527C73.4572 30.527 74.2582 30.1286 74.831 29.338C75.4052 28.545 75.6923 27.4995 75.6923 26.2003ZM92.6207 26.1003C92.6207 28.1913 92.0529 29.8441 90.9162 31.0575C89.8973 32.1376 88.6337 32.677 87.124 32.677C85.4951 32.677 84.3237 32.0966 83.6124 30.9332V37.3843H80.8801V24.1452C80.8801 22.8319 80.8455 21.4853 80.7789 20.1041H83.1818L83.3343 22.0529H83.3856C84.2955 20.5846 85.6784 19.8504 87.5354 19.8504C88.9848 19.8504 90.1959 20.4231 91.1674 21.5699C92.1337 22.7191 92.6207 24.2284 92.6207 26.1003ZM89.8358 26.2003C89.8358 25.0036 89.5654 24.017 89.0246 23.2393C88.4338 22.4309 87.643 22.026 86.6485 22.026C85.9744 22.026 85.3618 22.2515 84.812 22.6961C84.2635 23.1445 83.9059 23.73 83.738 24.4552C83.6547 24.7935 83.6099 25.0689 83.6099 25.2868V27.338C83.6099 28.2311 83.8854 28.9857 84.4314 29.6033C84.9799 30.217 85.6925 30.527 86.5716 30.527C87.602 30.527 88.403 30.1286 88.9746 29.338C89.5487 28.545 89.8358 27.4995 89.8358 26.2003ZM108.435 27.6161C108.435 29.0677 107.928 30.2477 106.919 31.1587C105.809 32.1529 104.26 32.6513 102.274 32.6513C100.438 32.6513 98.9671 32.2977 97.8572 31.5892L98.4891 29.3124C99.6873 30.0222 101.004 30.3759 102.436 30.3759C103.467 30.3759 104.268 30.1427 104.839 29.6801C105.412 29.2163 105.702 28.5962 105.702 27.8223C105.702 27.1292 105.462 26.5488 104.992 26.076C104.519 25.6045 103.737 25.165 102.639 24.7614C99.6527 23.648 98.1584 22.0196 98.1584 19.8773C98.1584 18.4782 98.6864 17.3328 99.7399 16.4372C100.793 15.5429 102.19 15.0957 103.928 15.0957C105.48 15.0957 106.773 15.3661 107.8 15.9055L107.114 18.1323C106.148 17.6095 105.057 17.3482 103.837 17.3482C102.873 17.3482 102.117 17.5852 101.576 18.0567C101.121 18.4782 100.891 18.992 100.891 19.6019C100.891 20.2745 101.153 20.8331 101.676 21.2713C102.13 21.6749 102.958 22.1144 104.155 22.5859C105.624 23.1778 106.703 23.8671 107.393 24.6589C108.089 25.4508 108.435 26.4386 108.435 27.6161ZM117.492 22.1541H114.481V28.1234C114.481 29.6417 115.011 30.3989 116.075 30.3989C116.563 30.3989 116.968 30.3579 117.289 30.2721L117.364 32.3464C116.826 32.5476 116.117 32.6488 115.239 32.6488C114.16 32.6488 113.317 32.3195 112.708 31.6609C112.102 31.0024 111.797 29.8992 111.797 28.3464V22.149H110.003V20.099H111.797V17.8478L114.481 17.0381V20.099H117.492V22.1541ZM131.054 26.1503C131.054 28.0401 130.513 29.5917 129.434 30.8051C128.305 32.0543 126.803 32.677 124.931 32.677C123.124 32.677 121.687 32.0786 120.616 30.8832C119.544 29.6853 119.008 28.176 119.008 26.3553C119.008 24.4501 119.562 22.8895 120.666 21.6762C121.772 20.4616 123.261 19.8543 125.133 19.8543C126.938 19.8543 128.387 20.4539 129.484 21.6506C130.532 22.8114 131.054 24.3104 131.054 26.1503ZM128.222 26.2131C128.222 25.0869 127.978 24.1208 127.49 23.3124C126.917 22.336 126.097 21.8479 125.034 21.8479C123.94 21.8479 123.101 22.336 122.529 23.3124C122.039 24.1208 121.796 25.1035 121.796 26.2643C121.796 27.3918 122.039 28.3605 122.529 29.1664C123.12 30.1427 123.944 30.6308 125.011 30.6308C126.056 30.6308 126.875 30.1324 127.467 29.142C127.969 28.3143 128.222 27.3419 128.222 26.2131ZM139.939 22.5065C139.655 22.4552 139.367 22.4299 139.078 22.4309C138.117 22.4309 137.374 22.7922 136.851 23.5199C136.397 24.1605 136.169 24.9703 136.169 25.9479V32.3989H133.437V23.976C133.439 22.6854 133.412 21.3949 133.357 20.1054H135.737L135.837 22.4578H135.913C136.202 21.6493 136.656 20.9971 137.279 20.509C137.849 20.0824 138.542 19.8514 139.254 19.8504C139.506 19.8504 139.734 19.8684 139.937 19.9004L139.939 22.5065ZM152.159 25.6698C152.166 26.0851 152.133 26.5 152.059 26.9088H143.862C143.893 28.1234 144.29 29.0536 145.052 29.6942C145.742 30.2657 146.636 30.5527 147.733 30.5527C148.946 30.5527 150.054 30.3605 151.049 29.9723L151.477 31.8672C150.314 32.3746 148.94 32.627 147.355 32.627C145.448 32.627 143.951 32.0658 142.861 30.946C141.775 29.8249 141.23 28.3182 141.23 26.4309C141.23 24.5782 141.736 23.0343 142.75 21.803C143.811 20.4885 145.245 19.8312 147.05 19.8312C148.822 19.8312 150.164 20.4885 151.075 21.803C151.796 22.8447 152.159 24.1362 152.159 25.6698ZM149.554 24.9613C149.573 24.1503 149.394 23.452 149.023 22.8614C148.55 22.1003 147.822 21.721 146.847 21.721C145.954 21.721 145.226 22.0913 144.672 22.8344C144.217 23.4251 143.947 24.1349 143.863 24.9588L149.554 24.9613Z" fill="black"/>
<path d="M53.5467 9.31988C52.7867 9.31988 52.1293 9.28272 51.582 9.21994V0.976413C52.3474 0.858212 53.1208 0.799952 53.8953 0.802164C57.0288 0.802164 58.4718 2.3435 58.4718 4.85602C58.4718 7.7542 56.7673 9.31988 53.5467 9.31988ZM54.0055 1.85919C53.5826 1.85919 53.2225 1.88482 52.9238 1.94632V8.21288C53.0853 8.23851 53.3955 8.25004 53.8312 8.25004C55.8843 8.25004 57.0531 7.08155 57.0531 4.89318C57.0531 2.94184 55.9958 1.85919 54.0055 1.85919ZM62.9689 9.38266C61.2029 9.38266 60.0584 8.06426 60.0584 6.27436C60.0584 4.40887 61.2272 3.07894 63.0689 3.07894C64.8092 3.07894 65.9793 4.33456 65.9793 6.1757C65.9793 8.06426 64.7734 9.38266 62.9689 9.38266ZM63.0202 4.06037C62.05 4.06037 61.4284 4.96749 61.4284 6.23592C61.4284 7.48001 62.0628 8.38713 63.0073 8.38713C63.9519 8.38713 64.5863 7.41723 64.5863 6.2103C64.5863 4.9803 63.9647 4.06037 63.0202 4.06037ZM76.05 3.20322L74.1597 9.24557H72.9281L72.145 6.62158C71.9503 5.97973 71.7882 5.32846 71.6593 4.67024H71.6337C71.535 5.3288 71.3479 5.98864 71.1492 6.62158L70.3162 9.24557H69.0718L67.293 3.20322H68.6732L69.3576 6.07577C69.5191 6.75995 69.6549 7.4057 69.7677 8.01557H69.7933C69.892 7.50692 70.0535 6.87142 70.2906 6.08858L71.1492 3.2045H72.2437L73.0652 6.02708C73.2638 6.71126 73.4253 7.38264 73.5509 8.01685H73.5868C73.674 7.39545 73.8111 6.73561 73.9969 6.02708L74.7313 3.2045L76.05 3.20322ZM83.009 9.24557H81.6659V5.77596C81.6659 4.7074 81.2558 4.17184 80.4471 4.17184C79.6512 4.17184 79.104 4.85602 79.104 5.65168V9.24557H77.7609V4.93033C77.7609 4.39606 77.7481 3.82334 77.7109 3.20194H78.8926L78.9554 4.13468H78.9925C79.3539 3.48893 80.087 3.07894 80.9085 3.07894C82.1772 3.07894 83.0103 4.04884 83.0103 5.62733L83.009 9.24557ZM86.7128 9.24557H85.3684V0.430603H86.7128V9.24557ZM91.6097 9.38266C89.845 9.38266 88.6992 8.06426 88.6992 6.27436C88.6992 4.40887 89.868 3.07894 91.7084 3.07894C93.4501 3.07894 94.6189 4.33456 94.6189 6.1757C94.6201 8.06426 93.4129 9.38266 91.6097 9.38266ZM91.6597 4.06037C90.6895 4.06037 90.068 4.96749 90.068 6.23592C90.068 7.48001 90.7036 8.38713 91.6456 8.38713C92.5914 8.38713 93.2245 7.41723 93.2245 6.2103C93.2258 4.9803 92.6055 4.06037 91.6597 4.06037ZM99.9144 9.24557L99.817 8.54985H99.7811C99.371 9.10976 98.7725 9.38266 98.0138 9.38266C96.9308 9.38266 96.1619 8.62416 96.1619 7.60429C96.1619 6.11292 97.455 5.34161 99.6939 5.34161V5.23015C99.6939 4.43449 99.2723 4.03603 98.4393 4.03603C97.8433 4.03603 97.3204 4.18593 96.8604 4.48446L96.5874 3.60168C97.1461 3.25319 97.8433 3.07894 98.6623 3.07894C100.241 3.07894 101.038 3.91175 101.038 5.57865V7.80417C101.038 8.41404 101.065 8.88682 101.125 9.24685L99.9144 9.24557ZM99.7298 6.23592C98.238 6.23592 97.4896 6.59723 97.4896 7.45439C97.4896 8.0886 97.8754 8.39867 98.4111 8.39867C99.0941 8.39867 99.7298 7.8772 99.7298 7.16867V6.23592ZM107.56 9.24557L107.497 8.27566H107.46C107.075 9.00854 106.426 9.38266 105.52 9.38266C104.063 9.38266 102.984 8.10142 102.984 6.29871C102.984 4.40887 104.103 3.07766 105.63 3.07766C106.439 3.07766 107.012 3.35056 107.335 3.89893H107.362V0.430603H108.706V7.61711C108.706 8.20135 108.72 8.74844 108.756 9.24557H107.56ZM107.362 5.69011C107.362 4.84449 106.802 4.12315 105.947 4.12315C104.951 4.12315 104.342 5.00593 104.342 6.24874C104.342 7.4672 104.974 8.30129 105.92 8.30129C106.764 8.30129 107.362 7.56714 107.362 6.69717V5.69011ZM117.23 9.38266C115.465 9.38266 114.321 8.06426 114.321 6.27436C114.321 4.40887 115.489 3.07894 117.33 3.07894C119.071 3.07894 120.24 4.33456 120.24 6.1757C120.242 8.06426 119.036 9.38266 117.23 9.38266ZM117.28 4.06037C116.311 4.06037 115.689 4.96749 115.689 6.23592C115.689 7.48001 116.324 8.38713 117.267 8.38713C118.213 8.38713 118.846 7.41723 118.846 6.2103C118.848 4.9803 118.227 4.06037 117.28 4.06037ZM127.463 9.24557H126.119V5.77596C126.119 4.7074 125.709 4.17184 124.9 4.17184C124.104 4.17184 123.558 4.85602 123.558 5.65168V9.24557H122.214V4.93033C122.214 4.39606 122.201 3.82334 122.164 3.20194H123.346L123.408 4.13468H123.445C123.806 3.48893 124.54 3.07766 125.36 3.07766C126.629 3.07766 127.463 4.04756 127.463 5.62605V9.24557ZM136.5 4.21028H135.022V7.14433C135.022 7.89129 135.281 8.26413 135.804 8.26413C136.041 8.26413 136.24 8.23851 136.4 8.20135L136.437 9.22122C136.177 9.32116 135.828 9.37113 135.395 9.37113C134.336 9.37113 133.703 8.78688 133.703 7.25708V4.21028H132.822V3.20322H133.703V2.09622L135.022 1.69775V3.20194H136.5V4.21028ZM143.61 9.24557H142.268V5.80158C142.268 4.72021 141.859 4.17312 141.049 4.17312C140.353 4.17312 139.705 4.6459 139.705 5.60299V9.24557H138.363V0.430603H139.705V4.06037H139.732C140.155 3.40181 140.767 3.07766 141.549 3.07766C142.828 3.07766 143.61 4.0719 143.61 5.65168V9.24557ZM150.894 6.54727H146.864C146.889 7.69142 147.647 8.33717 148.768 8.33717C149.364 8.33717 149.913 8.23723 150.397 8.05145L150.606 8.98419C150.034 9.23276 149.362 9.35704 148.579 9.35704C146.688 9.35704 145.569 8.16292 145.569 6.31152C145.569 4.45884 146.715 3.06612 148.427 3.06612C149.972 3.06612 150.941 4.21028 150.941 5.93867C150.949 6.14265 150.934 6.34693 150.894 6.54727ZM149.663 5.59018C149.663 4.65743 149.192 3.99887 148.334 3.99887C147.562 3.99887 146.952 4.67024 146.865 5.59018H149.663Z" fill="black" stroke="white" stroke-width="0.288325"/>
</svg>
