<svg width="13" height="16" viewBox="0 0 13 16" fill="none" xmlns="http://www.w3.org/2000/svg">
<path fill-rule="evenodd" clip-rule="evenodd" d="M6.49935 3.75C4.93454 3.75 3.66602 5.01853 3.66602 6.58333C3.66602 8.14811 4.93454 9.41667 6.49935 9.41667C8.06413 9.41667 9.33268 8.14811 9.33268 6.58333C9.33268 5.01853 8.06413 3.75 6.49935 3.75ZM6.49935 5.16667C5.71692 5.16667 5.08268 5.80093 5.08268 6.58333C5.08268 7.36576 5.71692 8 6.49935 8C7.28177 8 7.91602 7.36576 7.91602 6.58333C7.91602 5.80093 7.28177 5.16667 6.49935 5.16667Z" fill="#C42A25"/>
<path fill-rule="evenodd" clip-rule="evenodd" d="M5.85549 15.5053C5.93751 15.5616 6.00282 15.605 6.04851 15.6349L6.12366 15.6834C6.35359 15.8273 6.64599 15.8276 6.87591 15.6836L6.95156 15.6349C6.99718 15.605 7.06249 15.5616 7.14451 15.5053C7.30856 15.3926 7.54019 15.2278 7.81686 15.0153C8.36901 14.5912 9.10674 13.9727 9.84666 13.1945C11.3065 11.6592 12.875 9.39711 12.875 6.71203C12.875 4.9922 12.2071 3.33968 11.0134 2.11883C9.81918 0.897432 8.19596 0.208252 6.5 0.208252C4.80404 0.208252 3.18086 0.897432 1.9866 2.11883C0.792873 3.33968 0.125 4.9922 0.125 6.71203C0.125 9.39711 1.69349 11.6592 3.15334 13.1945C3.89328 13.9727 4.63096 14.5912 5.18314 15.0153C5.45981 15.2278 5.69144 15.3926 5.85549 15.5053ZM6.5 1.62492C5.19015 1.62492 3.93068 2.15693 2.99952 3.10925C2.06784 4.0621 1.54167 5.35778 1.54167 6.71203C1.54167 8.85041 2.80651 10.7739 4.17999 12.2183C4.85672 12.9301 5.53568 13.4998 6.04603 13.8918C6.21992 14.0254 6.37356 14.1377 6.5 14.2274C6.62644 14.1377 6.78007 14.0254 6.95397 13.8918C7.46432 13.4998 8.14326 12.9301 8.82 12.2183C10.1935 10.7739 11.4583 8.85041 11.4583 6.71203C11.4583 5.35778 10.9322 4.0621 10.0004 3.10925C9.06934 2.15693 7.80985 1.62492 6.5 1.62492Z" fill="#C42A25"/>
</svg>