<svg width="30" height="31" viewBox="0 0 30 31" fill="none" xmlns="http://www.w3.org/2000/svg">
<path fill-rule="evenodd" clip-rule="evenodd" d="M8 12.2129C8 8.34289 11.13 5.21289 15 5.21289C18.87 5.21289 22 8.34289 22 12.2129C22 17.4629 15 25.2129 15 25.2129C15 25.2129 11.5006 21.3386 9.45028 17.2129H15C17.7614 17.2129 20 14.9743 20 12.2129C20 9.45147 17.7614 7.21289 15 7.21289C12.2386 7.21289 10 9.45147 10 12.2129C10 13.3385 10.3719 14.3772 10.9996 15.2129H8.59229C8.22418 14.172 8 13.1524 8 12.2129ZM15 15.2129C16.6569 15.2129 18 13.8697 18 12.2129C18 10.556 16.6569 9.21289 15 9.21289C13.3431 9.21289 12 10.556 12 12.2129C12 13.8697 13.3431 15.2129 15 15.2129Z" fill="#C42A25"/>
</svg>
