<svg width="30" height="30" viewBox="0 0 30 30" fill="none" xmlns="http://www.w3.org/2000/svg">
<path opacity="0.4" d="M25.2903 10.7648C24.0216 5.18228 19.152 2.66895 14.8745 2.66895C14.8745 2.66895 14.8745 2.66895 14.8624 2.66895C10.597 2.66895 5.71534 5.1702 4.44659 10.7527C3.03284 16.9877 6.85117 22.2681 10.307 25.591C11.5878 26.8235 13.2312 27.4398 14.8745 27.4398C16.5178 27.4398 18.1612 26.8235 19.4299 25.591C22.8858 22.2681 26.7041 16.9998 25.2903 10.7648Z" fill="#C42A25"/>
<path d="M14.8746 16.8186C16.9767 16.8186 18.6809 15.1144 18.6809 13.0123C18.6809 10.9102 16.9767 9.20605 14.8746 9.20605C12.7725 9.20605 11.0684 10.9102 11.0684 13.0123C11.0684 15.1144 12.7725 16.8186 14.8746 16.8186Z" fill="#C42A25"/>
</svg>
