<svg width="12" height="12" viewBox="0 0 12 12" fill="none" xmlns="http://www.w3.org/2000/svg">
<path d="M8 4V3.5C8 2.39543 7.10457 1.5 6 1.5V1.5C4.89543 1.5 4 2.39543 4 3.5V4" stroke="#222222" stroke-width="2" stroke-linecap="round"/>
<path d="M1.5 6.71429C1.5 6.51531 1.5 6.41583 1.50472 6.33179C1.59033 4.80731 2.80731 3.59033 4.33179 3.50472C4.41583 3.5 4.51531 3.5 4.71429 3.5H7.28571C7.48469 3.5 7.58417 3.5 7.66821 3.50472C9.19269 3.59033 10.4097 4.80731 10.4953 6.33179C10.5 6.41583 10.5 6.51531 10.5 6.71429C10.5 6.97958 10.5 7.11223 10.4937 7.22428C10.3796 9.25692 8.75692 10.8796 6.72428 10.9937C6.61223 11 6.47958 11 6.21429 11H5.78571C5.52042 11 5.38777 11 5.27572 10.9937C3.24308 10.8796 1.62044 9.25692 1.50629 7.22428C1.5 7.11223 1.5 6.97958 1.5 6.71429Z" fill="#222222"/>
</svg>
