<svg width="20" height="21" viewBox="0 0 20 21" fill="none" xmlns="http://www.w3.org/2000/svg">
<g clip-path="url(#clip0_2276_16050)">
<path d="M13.783 10.2812L13.7734 10.3064C13.7764 10.2988 13.7788 10.291 13.7818 10.2834L13.783 10.2812Z" fill="#94A3B8"/>
<path d="M10.0004 0.5C6.7048 0.5 4 3.196 4 6.4844C4 7.7588 4.408 8.9464 5.096 9.9192L5.0714 9.8808L8.9126 16.5204L8.932 16.5458C9.0868 16.7478 9.24 16.9106 9.4254 17.0332C9.6108 17.1558 9.8482 17.2332 10.0814 17.2098C10.5474 17.163 10.8182 16.841 11.0684 16.5018L11.084 16.4808L15.3188 9.274L15.3222 9.268C15.4236 9.085 15.497 8.9004 15.5598 8.7216C15.8502 8.01147 15.9997 7.25162 16 6.4844C16 3.196 13.296 0.5 10.0004 0.5ZM10.0004 1.5C12.7512 1.5 15 3.7436 15 6.4844C15.0002 7.12458 14.8752 7.75861 14.632 8.3508L14.627 8.3632L14.6226 8.3762C14.57 8.5276 14.5128 8.665 14.4468 8.7842L10.255 15.9174C10.0696 16.1616 9.94 16.2194 9.9816 16.215C10.003 16.213 10.0228 16.2298 9.977 16.1994C9.9332 16.1704 9.8438 16.0854 9.7378 15.9502L5.926 9.36L5.9126 9.3414C5.338 8.5294 5 7.546 5 6.4844C5 3.7438 7.2496 1.5 10.0004 1.5ZM10.0004 3.07C8.108 3.07 6.5774 4.5952 6.5774 6.4844C6.5774 8.3736 8.1082 9.8988 10.0004 9.8988C11.8926 9.8988 13.4226 8.3734 13.4226 6.4844C13.4226 4.5952 11.8926 3.07 10.0004 3.07ZM10.0004 4.07C11.3638 4.07 12.4226 5.127 12.4226 6.4844C12.4226 7.8418 11.364 8.8988 10.0004 8.8988C8.6368 8.8988 7.5774 7.8416 7.5774 6.4844C7.5774 5.127 8.637 4.07 10.0004 4.07Z" fill="#94A3B8"/>
<path d="M6.8012 14.3125C3.976 14.7117 2 15.6667 2 17.0725C2 18.9661 5.3016 20.5011 10 20.5011C14.6984 20.5011 18 18.9661 18 17.0725C18 15.6667 16.0242 14.7117 13.1992 14.3125L12.8078 14.9789C14.937 15.2743 16.4 15.8951 16.4 16.6155C16.4 17.6255 13.5346 18.4441 10 18.4441C6.4654 18.4441 3.6 17.6255 3.6 16.6155C3.5998 15.8975 5.0532 15.2773 7.189 14.9807C7.06 14.7579 6.9304 14.5355 6.8012 14.3125Z" fill="#94A3B8"/>
</g>
<defs>
<clipPath id="clip0_2276_16050">
<rect width="20" height="20" fill="white" transform="translate(0 0.5)"/>
</clipPath>
</defs>
</svg>