<svg width="31" height="30" viewBox="0 0 31 30" fill="none" xmlns="http://www.w3.org/2000/svg">
<g clip-path="url(#clip0_1_15974)">
<path fill-rule="evenodd" clip-rule="evenodd" d="M-16.828 2.53401V4.05743H-14.1327V2.53401H-16.828ZM-7.51055 16.0212V22.6381C-7.06737 22.6381 -6.70303 23.0024 -6.70303 23.4456V23.9133H-6.53364C-4.7673 23.9133 -4.7673 26.5905 -6.53364 26.5905H-27.736C-29.5087 26.5905 -29.5087 23.9133 -27.736 23.9133H-27.5666V23.4456C-27.5666 23.0024 -27.2023 22.6381 -26.7591 22.6381V16.0212C-27.2023 16.0212 -27.5666 15.6569 -27.5666 15.2137V14.746H-27.736C-29.5087 14.746 -29.5087 12.0752 -27.736 12.0752H-26.6312C-25.3443 8.18445 -21.7328 5.356 -17.4417 5.22181V2.22291V2.16964L-17.4353 2.16325V2.13874L-17.4289 2.13235L-17.43 2.12703L-17.4236 2.12063V2.11424L-17.4172 2.10891V2.10252L-17.4108 2.08974L-17.4119 2.08441L-17.4055 2.07908V2.07269L-17.3991 2.0663L-17.3927 2.06097L-17.3938 2.05458L-17.3884 2.04819L-17.382 2.0418V2.03541L-17.3575 2.0109V2.00558H-17.3511L-17.332 1.9864L-17.3256 1.98107H-17.3192L-17.3064 1.96829H-17.3L-17.2936 1.96296L-17.2872 1.95657H-17.2808L-17.2744 1.95018H-17.268L-17.2617 1.94379H-17.2499L-17.2435 1.93846H-17.2372L-17.2308 1.93207H-17.218L-17.2063 1.92568H-17.1935L-17.1871 1.92035H-13.8184C-13.6426 1.92035 -13.5211 2.05352 -13.5147 2.21757C-13.503 2.92816 -13.5147 3.65045 -13.5147 4.36636C-13.5147 4.54214 -13.6543 4.66999 -13.8184 4.67637H-16.8227V5.22289C-12.5316 5.35605 -8.92536 8.18443 -7.63317 12.0762H-6.52841C-4.76206 12.0762 -4.76206 14.7471 -6.52841 14.7471H-6.6978V15.2147C-6.70312 15.6569 -7.06737 16.0212 -7.51055 16.0212ZM-17.2349 5.83537C-21.2715 5.87798 -24.6945 8.46997 -25.9813 12.0751H-8.29355C-9.57409 8.46882 -12.997 5.87791 -17.0347 5.83537H-17.2349ZM-26.953 23.912H-24.1V23.4443C-24.1 23.341 -24.1906 23.2504 -24.2939 23.2504H-26.758C-26.8614 23.2504 -26.9519 23.3421 -26.9519 23.4443L-26.953 23.912ZM-23.4864 23.912H-21.9746V23.4443C-21.9746 23.0012 -21.6103 22.6368 -21.1618 22.6368V16.0199C-21.6103 16.0199 -21.9746 15.6556 -21.9746 15.2124V14.7447H-23.4864V15.2124C-23.4864 15.6556 -23.8507 16.0199 -24.2939 16.0199V22.6368C-23.8507 22.6368 -23.4864 23.0012 -23.4864 23.4443V23.912ZM-24.1 14.747H-26.953V15.2147C-26.953 15.318 -26.8624 15.4086 -26.7591 15.4086H-24.295C-24.1916 15.4086 -24.1011 15.318 -24.1011 15.2147L-24.1 14.747ZM-24.9129 16.0212H-26.1391V22.6381H-24.9129V16.0212ZM-21.3557 23.9123H-18.509V23.4446C-18.509 23.3412 -18.5942 23.2507 -18.7029 23.2507H-21.1617C-21.2703 23.2507 -21.3555 23.3423 -21.3555 23.4446L-21.3557 23.9123ZM-17.8901 23.9123H-16.3784V23.4446C-16.3784 23.0014 -16.0141 22.6371 -15.5709 22.6371V16.0202C-16.0141 16.0202 -16.3784 15.6558 -16.3784 15.2126V14.745H-17.8901V15.2126C-17.8901 15.6558 -18.2545 16.0202 -18.703 16.0202V22.6371C-18.2534 22.6371 -17.8901 23.0014 -17.8901 23.4446V23.9123ZM-18.5091 14.7473H-21.3558V15.2149C-21.3558 15.3183 -21.2706 15.4088 -21.1619 15.4088H-18.7031C-18.5945 15.4088 -18.5092 15.3183 -18.5092 15.2149L-18.5091 14.7473ZM-19.3166 16.0214H-20.5492V22.6383H-19.3166V16.0214ZM-15.7657 23.9125H-12.9127V23.4448C-12.9127 23.3415 -13.0043 23.2509 -13.1066 23.2509H-15.5707C-15.6741 23.2509 -15.7646 23.3426 -15.7646 23.4448L-15.7657 23.9125ZM-12.3002 23.9125H-10.7884V23.4448C-10.7884 23.0016 -10.4188 22.6373 -9.97557 22.6373V16.0204C-10.4188 16.0204 -10.7884 15.6561 -10.7884 15.2129V14.7452H-12.3002V15.2129C-12.3002 15.6561 -12.6645 16.0204 -13.1077 16.0204V22.6373C-12.6645 22.6373 -12.3002 23.0016 -12.3002 23.4448V23.9125ZM-12.9127 14.7475H-15.7657V15.2152C-15.7657 15.3185 -15.6752 15.4091 -15.5718 15.4091H-13.1077C-13.0044 15.4091 -12.9138 15.3185 -12.9138 15.2152L-12.9127 14.7475ZM-13.7267 16.0217H-14.9529V22.6386H-13.7267V16.0217ZM-10.1695 14.7475V15.2152C-10.1695 15.3185 -10.0842 15.4091 -9.97558 15.4091H-7.51144C-7.4081 15.4091 -7.32287 15.3185 -7.32287 15.2152V14.7475H-10.1695ZM-27.7358 12.6893H-6.53348C-5.58 12.6893 -5.58 14.1339 -6.53348 14.1339H-27.7358C-28.6883 14.1339 -28.6883 12.6893 -27.7358 12.6893ZM-7.32275 23.9125V23.4449C-7.32275 23.3415 -7.40798 23.251 -7.51132 23.251H-9.97546C-10.0841 23.251 -10.1694 23.3426 -10.1694 23.4449V23.9125H-7.32275ZM-27.7358 24.5251H-6.53348C-5.58 24.5251 -5.58 25.9697 -6.53348 25.9697H-27.7358C-28.6883 25.9697 -28.6883 24.5251 -27.7358 24.5251ZM-8.12921 16.0215H-9.3618V22.6384H-8.12921V16.0215ZM16.3693 12.5016C15.6108 12.2832 13.1222 10.4807 13.1222 8.73773V5.77619C13.1222 5.55779 13.1222 5.33939 13.4259 5.34473C14.5551 5.34473 15.5747 4.88344 16.3151 4.13663C16.4121 4.03969 16.5889 4.04608 16.6795 4.13663C17.4135 4.88344 18.4394 5.34473 19.5688 5.34473C19.8596 5.33834 19.866 5.53863 19.866 5.77619V8.73773C19.866 10.4796 17.3827 12.2821 16.6241 12.5016C16.5218 12.5325 16.4674 12.5325 16.3693 12.5016ZM4.84334 10.2325H3.90797L3.89625 15.8586C3.89625 16.2773 3.2645 16.2773 3.2645 15.8586L3.27729 9.90983V9.87361L3.28368 9.86083V9.84165L3.29007 9.82993V9.81715L3.29646 9.81076V9.79797L3.30925 9.77453C3.31564 9.76814 3.31564 9.75642 3.32096 9.75003L3.32736 9.74364V9.73725L3.33375 9.73086C3.34014 9.72446 3.34014 9.71914 3.34653 9.71275L3.37849 9.68078C3.38489 9.66907 3.39661 9.66267 3.403 9.65628H3.40939L3.41471 9.64989L3.4275 9.63711L3.43922 9.63071H3.44561L3.452 9.62432L3.46372 9.61793H3.47012L3.47118 9.61899H3.47757L3.48396 9.6126H3.50314L3.50953 9.60728H3.52232L3.5351 9.60088H3.56173L3.56813 9.59449H3.59263L4.84333 9.60088L4.84972 7.89528C4.84972 7.62787 5.11073 7.41587 5.42607 7.41587L8.06706 7.42227C8.38879 7.42227 8.64979 7.63427 8.64979 7.90167C8.62529 18.979 8.6434 10.5235 8.61996 22.7056C8.61996 23.5791 7.90405 24.5262 7.02942 24.7265V26.2798C7.02942 26.6985 6.39767 26.6931 6.39767 26.2745V24.7265C5.44526 24.5017 4.88063 23.6463 4.84441 22.7056L4.84228 10.2327L4.84334 10.2325ZM5.47402 10.2325L8.01167 10.2389L7.98717 22.7C7.98717 23.2892 7.34369 24.1329 6.71194 24.1265C6.0802 24.1265 5.44952 23.2828 5.44952 22.7L5.47402 10.2325ZM8.01167 9.60711L5.47402 9.60071L5.48042 8.04745L8.01806 8.05384L8.01167 9.60711ZM9.41365 4.5202V6.21942H8.29716C8.58799 5.90941 8.76483 5.49713 8.73396 5.01773C8.64234 3.59123 6.78546 2.86894 6.14837 4.68427C6.00241 5.06671 6.59793 5.28511 6.73111 4.89627C7.1498 3.72439 8.07238 4.28902 8.12139 5.05394C8.19489 6.27377 5.67535 7.01417 5.67535 4.52021C5.67428 1.95273 9.41365 1.95271 9.41365 4.5202ZM23.5816 21.3824H25.3351C28.7772 21.3824 28.7772 26.5909 25.3351 26.5909H12.0173C10.3181 26.5909 9.41359 25.2912 9.41359 23.6528V6.8332H6.87063C5.55919 6.8332 5.05531 5.68583 5.05531 4.52033C5.05531 3.17906 6.09295 2.04981 7.42888 1.92836C7.42888 1.91025 19.8358 1.92197 20.9769 1.92197C22.4151 1.92197 23.5816 3.09385 23.5816 4.53205L23.5816 21.3824ZM22.9615 4.53301C22.9615 3.43466 22.0752 2.53551 20.9768 2.53551H9.10473C9.66936 3.01491 10.0337 3.73188 10.0337 4.52022V23.6826C10.0337 26.8691 13.7731 26.4142 13.7731 23.9862C13.7731 23.3001 13.4151 22.6631 12.8324 22.2987C12.0195 21.7884 10.9084 22.4447 11.0415 23.3427C11.1502 24.0896 12.1463 24.5807 12.4371 23.3726C12.516 22.972 13.153 23.1116 13.038 23.5249C12.5767 25.3818 10.6644 24.8481 10.4343 23.4397C10.1914 21.9408 11.7691 21.2728 13.0145 21.3825H22.9628C22.9617 15.7681 22.871 10.1474 22.9615 4.53301ZM13.4619 22.0015H25.3351C27.9633 22.0015 27.9633 25.971 25.3351 25.971L13.4619 25.9721C14.0329 25.4927 14.3909 24.7832 14.3909 23.9874C14.3909 23.2161 14.051 22.4936 13.4619 22.0015ZM12.2549 14.3842H20.7402C21.1472 14.3842 21.1472 15.0032 20.7402 15.0032H12.2549C11.8479 15.0032 11.8479 14.3842 12.2549 14.3842ZM12.2549 16.6481H20.7402C21.1472 16.6481 21.1472 17.2606 20.7402 17.2606H12.2549C11.8479 17.2606 11.8479 16.6481 12.2549 16.6481ZM12.2549 18.9066H20.7402C21.1472 18.9066 21.1472 19.5255 20.7402 19.5255H12.2549C11.8479 19.5255 11.8479 18.9066 12.2549 18.9066ZM16.4971 11.9018C17.4623 11.562 19.253 9.86811 19.253 8.73874V5.95283C18.2335 5.88572 17.2683 5.48516 16.4971 4.81185C15.7258 5.48622 14.7617 5.88571 13.7412 5.95283V8.73874C13.7423 9.81899 15.4777 11.5375 16.4971 11.9018ZM45.4744 23.1177H55.8476V22.0247C55.8476 21.8734 55.7197 21.7392 55.5621 21.7392H45.7589C45.6012 21.7392 45.4734 21.8724 45.4734 22.0247L45.4744 23.1177ZM59.9568 5.49056L59.4412 7.063C59.308 7.45717 58.8829 7.67025 58.494 7.5424L58.021 7.38473L55.7029 14.432L56.1705 14.5833C56.5647 14.7164 56.7778 15.1415 56.6499 15.5304L56.1279 17.1028C56.0001 17.497 55.5761 17.7101 55.1872 17.5822L47.3027 14.9839C46.9138 14.856 46.6954 14.432 46.8297 14.0368L47.3453 12.4643C47.4731 12.0755 47.8971 11.8571 48.2924 11.9913L48.76 12.1436L49.3609 10.323L37.8766 6.53561C35.6192 5.79521 36.742 2.38389 38.9995 3.12979L50.4837 6.91716L51.0846 5.09649L50.6116 4.94521C50.2227 4.81737 50.0107 4.39337 50.1386 3.99811L50.6542 2.42567C50.782 2.0315 51.2124 1.81842 51.6013 1.94627L59.4806 4.54462C59.8716 4.6714 60.0846 5.10171 59.9568 5.49056ZM49.5528 9.73911L50.2868 7.50509L38.8025 3.71145C37.3217 3.22567 36.5866 5.45969 38.0621 5.95185L49.5528 9.73911ZM57.4373 7.18973L51.6653 5.29024L49.3471 12.3375L55.114 14.237L57.4373 7.18973ZM56.0609 15.3418L55.5442 16.9143C55.5197 16.9803 55.4473 17.0176 55.3748 16.9995L47.4955 14.4022C47.4283 14.3777 47.3857 14.3053 47.4102 14.2317L47.9258 12.6593C47.9504 12.5922 48.0292 12.5496 48.0963 12.5741L55.9746 15.1724C56.0481 15.1959 56.0843 15.2694 56.0609 15.3418ZM59.374 5.29564L58.852 6.86808C58.8275 6.94052 58.755 6.97674 58.6879 6.95331L50.8033 4.35495C50.7362 4.33684 50.6947 4.258 50.7181 4.19089L51.2401 2.61845C51.2583 2.54494 51.3371 2.50979 51.4042 2.53323L59.2887 5.13158C59.3559 5.15076 59.3921 5.22959 59.374 5.29564ZM56.4667 23.1241C58.7071 23.2392 58.6155 26.6025 56.3698 26.6025H44.9526C42.7068 26.6025 42.6216 23.2392 44.861 23.1241V22.0311C44.861 21.5336 45.2615 21.1266 45.759 21.1266H55.5622C56.0597 21.1266 56.4667 21.5336 56.4667 22.0311V23.1241ZM44.9524 23.7367H56.3696C57.8568 23.7367 57.8568 25.9824 56.3696 25.9824H44.9524C43.4652 25.9824 43.4652 23.7367 44.9524 23.7367ZM83.3933 13.1589L83.7449 14.2328L85.0436 13.8077L85.0446 2.67064H71.2111V16.0365H78.7921L78.3915 14.8103L78.155 14.8827C77.8333 14.9924 77.4806 14.8156 77.3773 14.4938L77.0193 13.4008C76.9096 13.0791 77.0854 12.7275 77.4082 12.6178L82.8777 10.8152C83.1995 10.7119 83.5521 10.8887 83.6608 11.2094L84.0187 12.3024C84.1284 12.6242 83.9463 12.9768 83.6245 13.0854L83.3933 13.1589ZM85.6764 13.6021L91.6251 11.6355C93.3126 11.0837 94.1499 13.632 92.4624 14.1849L85.6762 16.4242V17.8326C85.804 17.9051 85.9074 18.0265 85.9553 18.1788L86.3132 19.2719C86.4219 19.5936 86.2461 19.9452 85.9191 20.0485L80.4561 21.8511C80.128 21.9598 79.7828 21.7786 79.673 21.4569L79.5452 21.0681H71.2175C69.8336 21.0681 68.7043 19.9335 68.7043 18.5496V4.55213C68.7043 3.16185 69.839 2.03901 71.2228 2.03901H85.3599C85.5293 2.03901 85.6752 2.17857 85.6752 2.35433V13.6022L85.6764 13.6021ZM85.0446 16.6373L84.5897 16.7833L84.9413 17.8635L85.0446 17.8273V16.6373ZM79.3335 20.4375L79.3153 20.365C79.2067 20.0433 79.3824 19.6907 79.7095 19.5873L79.9407 19.5085L79.0053 16.6683H71.2176C68.7471 16.6683 68.7471 20.4374 71.2176 20.4374L79.3335 20.4375ZM70.5805 2.78058C69.8582 3.04798 69.3362 3.74579 69.3362 4.55331V16.8879C69.6643 16.5236 70.0894 16.2509 70.5805 16.123V2.78058ZM79.4368 23.8668V23.1988C79.4368 22.8046 79.7639 22.4765 80.1591 22.4765H86.9634C87.3575 22.4765 87.6857 22.8046 87.6857 23.1988V23.8668C88.3291 23.952 88.8266 24.5038 88.8266 25.1654C88.8266 25.8813 88.2375 26.4705 87.5216 26.4705H79.5997C78.8774 26.4705 78.2946 25.8824 78.2946 25.1654C78.2946 24.5038 78.7923 23.952 79.4368 23.8668ZM84.3895 16.1941L92.2689 13.5958C93.1734 13.2986 92.7238 11.9328 91.8193 12.23L83.94 14.8284L84.3895 16.1941ZM78.9808 14.6163L80.5341 19.3146L84.3468 18.0586L82.7989 13.354L78.9808 14.6163ZM79.9098 20.1764L80.2613 21.2567L85.7181 19.4595L85.3665 18.3792L79.9098 20.1764ZM77.615 13.2145L77.9666 14.2895L83.4233 12.4922L83.0654 11.412L77.615 13.2145ZM87.0604 23.8604V23.1989C87.0604 23.1445 87.0178 23.1019 86.957 23.1019H80.158C80.1036 23.1019 80.061 23.1445 80.061 23.1989V23.8604H87.0604ZM87.5217 24.4858H79.5998C79.2237 24.4858 78.9137 24.7894 78.9137 25.1655C78.9137 25.5352 79.2237 25.8452 79.5998 25.8452H87.5217C87.8977 25.8452 88.2014 25.5352 88.2014 25.1655C88.2014 24.7894 87.8977 24.4858 87.5217 24.4858ZM102.36 4.21889H125.183C125.693 4.21889 126.105 4.63223 126.105 5.14147V23.3695C126.105 23.8787 125.693 24.2921 125.183 24.2921H102.36C101.856 24.2921 101.437 23.8787 101.437 23.3695V5.14147C101.437 4.63223 101.857 4.21889 102.36 4.21889ZM116.528 14.459H123.046C123.453 14.459 123.453 15.0726 123.046 15.0726H116.528C116.121 15.0715 116.121 14.459 116.528 14.459ZM116.528 16.6131H123.046C123.453 16.6131 123.453 17.2257 123.046 17.2257H116.528C116.121 17.2267 116.121 16.6131 116.528 16.6131ZM116.528 18.7683H123.046C123.453 18.7683 123.453 19.3808 123.046 19.3808H116.528C116.121 19.3819 116.121 18.7683 116.528 18.7683ZM116.528 20.9234H123.046C123.453 20.9234 123.453 21.536 123.046 21.536H116.528C116.121 21.536 116.121 20.9234 116.528 20.9234ZM104.709 16.0004H110.809C111.094 16.0004 111.324 16.2316 111.324 16.5161V21.0204C111.324 21.3059 111.093 21.536 110.809 21.536H104.709C104.423 21.536 104.193 21.3049 104.193 21.0204V16.5161C104.193 16.2316 104.424 16.0004 104.709 16.0004ZM104.812 16.613H110.712V20.9235H104.812V16.613ZM104.503 6.97482H111.017C111.43 6.97482 111.43 7.5874 111.017 7.5874H104.503C104.096 7.5874 104.096 6.97482 104.503 6.97482ZM104.503 9.12893H111.017C111.43 9.12893 111.43 9.74151 111.017 9.74151H104.503C104.096 9.74257 104.096 9.12893 104.503 9.12893ZM104.503 11.2841H111.017C111.43 11.2841 111.43 11.8967 111.017 11.8967H104.503C104.096 11.8977 104.096 11.2841 104.503 11.2841ZM104.503 13.4393H111.017C111.43 13.4393 111.43 14.0582 111.017 14.0582H104.503C104.096 14.0582 104.096 13.4393 104.503 13.4393ZM109.431 18.0159L107.489 19.958C107.35 20.0976 107.125 20.0614 107.01 19.9154L106.069 18.6956C105.821 18.3739 106.306 17.9914 106.555 18.3195L107.302 19.2783L108.995 17.5791C109.286 17.2936 109.717 17.7304 109.431 18.0159ZM118.597 8.98919L119.351 9.74238L118.597 10.4945C118.312 10.78 118.743 11.2168 119.034 10.9313L119.787 10.1781L120.541 10.9313C120.826 11.2168 121.263 10.78 120.971 10.4945L120.224 9.74238L120.971 8.98919C121.262 8.70367 120.825 8.2669 120.541 8.55239L119.787 9.30558L119.034 8.55239C118.743 8.26793 118.312 8.70367 118.597 8.98919ZM116.733 6.97463H122.833C123.119 6.97463 123.349 7.20581 123.349 7.49025V11.9998C123.349 12.2789 123.118 12.5165 122.833 12.5165H116.733C116.447 12.5165 116.217 12.28 116.217 11.9998V7.49025C116.217 7.20473 116.449 6.97463 116.733 6.97463ZM116.836 7.58721H122.736V11.8966H116.836V7.58721ZM113.461 4.83757V23.6781H102.359C102.19 23.6781 102.056 23.5386 102.056 23.3681L102.057 5.1412C102.057 4.97181 102.19 4.83757 102.36 4.83757H113.461ZM114.081 23.6792V4.83757H125.183C125.354 4.83757 125.493 4.97074 125.493 5.1412V23.3692C125.493 23.5386 125.354 23.6792 125.183 23.6792H114.081ZM-13.6341 50.4714C-13.4881 50.3254 -13.3486 50.1742 -13.2154 50.0229L-11.7346 51.4973C-12.0925 51.7093 -12.3962 52.0129 -12.6028 52.3773L-14.0837 50.8901C-13.9313 50.7569 -13.78 50.6173 -13.6341 50.4714ZM-22.9941 47.1507H-17.3735C-16.9665 47.1507 -16.9665 47.7632 -17.3735 47.7632H-22.9941C-23.4011 47.7643 -23.4011 47.1507 -22.9941 47.1507ZM-24.6518 44.7952H-15.7167C-15.3097 44.7952 -15.3097 45.4078 -15.7167 45.4078H-24.6518C-25.0577 45.4088 -25.0577 44.7952 -24.6518 44.7952ZM-24.6518 42.4344H-15.7167C-15.3097 42.4344 -15.3097 43.047 -15.7167 43.047H-24.6518C-25.0577 43.047 -25.0577 42.4344 -24.6518 42.4344ZM-22.9941 40.079H-17.3735C-16.9665 40.079 -16.9665 40.6915 -17.3735 40.6915H-22.9941C-23.4011 40.6926 -23.4011 40.079 -22.9941 40.079ZM-11.1155 51.248L-12.8211 49.5423C-10.0406 45.9126 -10.3143 40.6926 -13.6339 37.3719C-17.2519 33.7539 -23.1156 33.7539 -26.7322 37.3719C-30.3502 40.9899 -30.3502 46.8535 -26.7322 50.4702C-23.4115 53.7909 -18.1915 54.0636 -14.5617 51.283L-12.8444 53.0014C-13.0266 53.7781 -12.8146 54.6346 -12.2137 55.2408L-8.92409 58.5667C-6.70286 60.8071 -3.33427 57.4385 -5.55536 55.1979L-8.845 51.872C-9.45225 51.2541 -10.3258 51.0539 -11.1152 51.2477L-11.1155 51.248ZM-9.28199 52.3048L-5.98581 55.6307C-4.34625 57.2937 -6.84127 59.7887 -8.48617 58.131L-11.7758 54.8051C-13.4335 53.1294 -10.9152 50.6534 -9.28199 52.3048ZM-25.422 38.6834C-22.5264 35.7879 -17.8347 35.7879 -14.9389 38.6834C-12.0496 41.5789 -12.0496 46.2707 -14.9389 49.16C-17.8344 52.0555 -22.5262 52.0555 -25.422 49.16C-28.3175 46.2707 -28.3175 41.5789 -25.422 38.6834ZM-24.9852 39.1202C-22.3325 36.4611 -18.0296 36.4611 -15.377 39.1202C-12.7243 41.7729 -12.7243 46.0769 -15.377 48.7284C-18.0297 51.3811 -22.3337 51.3811 -24.9852 48.7284C-27.6432 46.0767 -27.6432 41.7728 -24.9852 39.1202ZM-26.2956 37.8098C-22.9206 34.4348 -17.4458 34.4348 -14.0708 37.8098C-10.6958 41.1848 -10.6958 46.6596 -14.0708 50.0346C-17.4458 53.4096 -22.9206 53.4096 -26.2956 50.0346C-29.6706 46.6596 -29.6706 41.1837 -26.2956 37.8098ZM14.709 41.7772L14.9274 49.2974H16.2633L16.4817 41.7772H14.709ZM18.4663 37.3827C17.1549 35.3437 14.0291 35.3437 12.7178 37.3827C9.70089 42.5719 6.70934 47.7805 3.70389 52.9762C2.41056 55.2219 4.07996 58.1111 6.67198 58.1111L24.5122 58.1122C27.1041 58.1122 28.7735 55.2229 27.4737 52.9773C24.4759 47.7804 21.477 42.5733 18.4663 37.3827ZM17.9262 37.7109C16.8587 36.0777 14.321 36.0777 13.2525 37.7109C10.2418 42.9 7.25576 48.1023 4.25685 53.2926C3.20641 55.1133 4.57217 57.4803 6.67304 57.4803H24.5121C26.6119 57.4803 27.9788 55.1131 26.9283 53.2926C23.9294 48.0969 20.9368 42.9003 17.9262 37.7109ZM14.0238 54.1841L13.6903 54.5176C13.4048 54.8031 12.9733 54.3653 13.2588 54.0808L13.587 53.7527C13.8714 53.4682 14.3082 53.8986 14.0238 54.1841ZM15.8988 54.7125V55.1738C15.8988 55.5808 15.2862 55.5808 15.2862 55.1738V54.7125C15.2862 54.3056 15.8988 54.3056 15.8988 54.7125ZM17.5926 53.7537L17.9208 54.0819C18.2127 54.3674 17.7759 54.8042 17.4904 54.5187L17.1633 54.1852C16.8767 53.8986 17.3071 53.4682 17.5926 53.7537ZM15.5887 53.9114C16.5411 53.9114 17.3188 53.1348 17.3188 52.1813C17.3188 51.2289 16.5422 50.4576 15.5887 50.4576C14.6352 50.4576 13.865 51.2289 13.865 52.1813C13.865 53.1348 14.6363 53.9114 15.5887 53.9114ZM15.5887 51.0764C16.2013 51.0764 16.6999 51.5739 16.6999 52.1812C16.6999 52.7948 16.2024 53.2923 15.5887 53.2923C14.9751 53.2923 14.484 52.7948 14.484 52.1812C14.485 51.5739 14.9761 51.0764 15.5887 51.0764ZM16.7915 41.1644C17.0653 41.158 17.1068 41.3892 17.1015 41.6012L16.8703 49.6137C16.8639 49.8139 16.7063 49.9045 16.5305 49.9109H14.6427C14.4722 49.9109 14.3263 49.7958 14.321 49.6137L14.0898 41.5949C14.0844 41.3829 14.0962 41.1518 14.4051 41.1645L16.7915 41.1644ZM40.3366 37.2461V38.9454H39.219C39.5109 38.6354 39.6867 38.2231 39.6558 37.7437C39.5653 36.3172 37.7073 35.5949 37.0702 37.4102C36.9243 37.7927 37.5187 38.0111 37.653 37.6222C38.0844 36.445 38.9943 37.0214 39.0433 37.7799C39.1157 38.9997 36.5972 39.7401 36.5972 37.2462C36.5972 34.6787 40.3366 34.6787 40.3366 37.2461ZM47.4201 45.9265C49.9088 45.9265 51.9245 43.9109 51.9245 41.4221C51.9245 38.9399 49.9089 36.9178 47.4201 36.9178C44.9314 36.9178 42.9158 38.9387 42.9158 41.4221C42.9158 43.9108 44.9314 45.9265 47.4201 45.9265ZM47.7301 39.249V38.8602C47.7301 38.4596 47.1112 38.4596 47.1112 38.8602V39.249C46.5519 39.3939 46.1588 39.8861 46.1588 40.4689C46.1588 41.1667 46.7223 41.7313 47.4212 41.7313C47.7792 41.7313 48.0647 42.0221 48.0647 42.3812C48.0647 42.7338 47.7792 43.0246 47.4212 43.0246C47.0632 43.0246 46.7713 42.7338 46.7713 42.3812C46.7713 41.9742 46.1588 41.9742 46.1588 42.3812C46.1588 42.9639 46.5529 43.455 47.1112 43.601V43.9834C47.1112 44.3904 47.7301 44.3904 47.7301 43.9834V43.601C48.2884 43.455 48.6826 42.9639 48.6826 42.3812C48.6826 41.6834 48.1179 41.1187 47.4201 41.1187C47.0622 41.1187 46.7703 40.8279 46.7703 40.4689C46.7703 40.1109 47.0611 39.8254 47.4201 39.8254C47.7781 39.8254 48.0636 40.1109 48.0636 40.4689C48.0636 40.8758 48.6826 40.8758 48.6826 40.4689C48.6826 39.8861 48.2884 39.395 47.7301 39.249ZM47.4201 37.5371C49.5689 37.5371 51.3054 39.2789 51.3054 41.4212C51.3054 43.57 49.57 45.312 47.4201 45.312C45.2713 45.312 43.5294 43.5701 43.5294 41.4212C43.5283 39.2799 45.2712 37.5371 47.4201 37.5371ZM50.4128 45.3131H53.8846V37.2889C53.8846 36.1713 53.0291 35.2615 51.8999 35.2615H40.0278C40.5924 35.7409 40.9567 36.4579 40.9567 37.2462V56.4086C40.9567 57.5624 41.4915 58.6181 42.8264 58.6906C44.7622 58.5819 45.3939 56.0443 43.7543 55.0248C42.9415 54.5145 41.8303 55.1708 41.9646 56.0689C42.0732 56.8157 43.0693 57.3068 43.3602 56.0987C43.439 55.7045 44.0761 55.8377 43.961 56.251C43.4997 58.1079 41.5885 57.5742 41.3573 56.1658C41.1144 54.6669 42.6922 53.9989 43.9375 54.1086H49.2121V46.5148C49.21 45.8532 49.7512 45.3131 50.4128 45.3131ZM54.5037 45.3131H59.4512C60.1192 45.3131 60.6593 45.8532 60.6593 46.5147V58.1089C60.6593 58.7705 60.1192 59.317 59.4512 59.317H42.9417C41.2297 59.317 40.338 57.9939 40.338 56.3789L40.3369 39.5593H37.794C36.4825 39.5593 35.9786 38.4119 35.9786 37.2464C35.9786 35.8136 37.1505 34.6491 38.5834 34.6491H51.9001C53.333 34.6491 54.5049 35.821 54.5049 37.2464L54.5037 45.3131ZM49.3622 58.6969C49.2653 58.5211 49.2099 58.3208 49.2099 58.1077V54.7273H44.384C45.6219 55.7713 45.6219 57.6528 44.384 58.6968L49.3622 58.6969ZM50.4127 45.9267H59.4511C59.7782 45.9267 60.0392 46.1941 60.0392 46.5147V58.1089C60.0392 58.4307 59.7782 58.6981 59.4511 58.6981H50.4127C50.0899 58.6981 49.8235 58.4307 49.8235 58.1089V46.5147C49.8235 46.193 50.0898 45.9267 50.4127 45.9267ZM50.8367 46.6362L59.0365 46.5691C59.2314 46.5691 59.3944 46.7332 59.3944 46.9334V48.9672C59.3944 49.1675 59.2304 49.3251 59.0365 49.3315L50.8367 49.3922C50.6364 49.3922 50.4723 49.2282 50.4723 49.0279V46.9952C50.4723 46.7939 50.6375 46.6362 50.8367 46.6362ZM51.0923 47.2499L58.783 47.1891V48.7126L51.0923 48.7733V47.2499ZM51.3352 49.8717H52.7255C52.9929 49.8717 53.2102 50.0901 53.2102 50.3511V51.7467C53.2102 52.0077 52.9919 52.2261 52.7255 52.2261H51.3352C51.0678 52.2261 50.8559 52.0077 50.8559 51.7467V50.3511C50.8559 50.0901 51.0678 49.8717 51.3352 49.8717ZM51.4684 50.4906H52.5913V51.6082H51.4684V50.4906ZM54.2243 49.8717H55.6199C55.8809 49.8717 56.0993 50.0901 56.0993 50.3511V51.7467C56.0993 52.0077 55.8809 52.2261 55.6199 52.2261H54.2243C53.9622 52.2261 53.7449 52.0077 53.7449 51.7467V50.3511C53.7449 50.0901 53.9622 49.8717 54.2243 49.8717ZM54.3639 50.4906H55.4804V51.6082H54.3639V50.4906ZM57.119 49.8717H58.5093C58.7767 49.8717 58.9897 50.0901 58.9897 50.3511V51.7467C58.9897 52.0077 58.7777 52.2261 58.5093 52.2261H57.119C56.8516 52.2261 56.6332 52.0077 56.6332 51.7467V50.3511C56.6332 50.0901 56.8527 49.8717 57.119 49.8717ZM57.2532 50.4906H58.3761V51.6082H57.2532V50.4906ZM51.3353 55.6863H52.7256C52.993 55.6863 53.2103 55.9047 53.2103 56.1721V57.5624C53.2103 57.8298 52.9919 58.0418 52.7256 58.0418H51.3353C51.0679 58.0418 50.8559 57.8298 50.8559 57.5624V56.1721C50.8559 55.9047 51.0679 55.6863 51.3353 55.6863ZM58.5094 55.6863C58.7768 55.6863 58.9899 55.9047 58.9899 56.1721V57.5624C58.9899 57.8298 58.7779 58.0418 58.5094 58.0418H54.2246C53.9625 58.0418 53.7452 57.8298 53.7452 57.5624V56.1721C53.7452 55.9047 53.9636 55.6863 54.2246 55.6863H58.5094ZM54.3642 56.3064V57.4292H58.3763V56.3064H54.3642ZM51.4687 56.3064H52.5915V57.4292H51.4687V56.3064ZM51.3355 52.7789H52.7258C52.9932 52.7789 53.2105 52.9973 53.2105 53.2583V54.6539C53.2105 54.9149 52.9921 55.1333 52.7258 55.1333H51.3355C51.0681 55.1333 50.8561 54.9149 50.8561 54.6539V53.2583C50.8561 52.9973 51.0681 52.7789 51.3355 52.7789ZM51.4687 53.3979H52.5915V54.5207H51.4687V53.3979ZM54.2246 52.7789H55.6202C55.8812 52.7789 56.0996 52.9973 56.0996 53.2583V54.6539C56.0996 54.9149 55.8812 55.1333 55.6202 55.1333H54.2246C53.9625 55.1333 53.7452 54.9149 53.7452 54.6539V53.2583C53.7452 52.9973 53.9625 52.7789 54.2246 52.7789ZM54.3641 53.3979H55.4806V54.5207H54.3641V53.3979ZM57.1192 52.7789H58.5095C58.7769 52.7789 58.99 52.9973 58.99 53.2583V54.6539C58.99 54.9149 58.778 55.1333 58.5095 55.1333H57.1192C56.8518 55.1333 56.6334 54.9149 56.6334 54.6539V53.2583C56.6334 52.9973 56.8529 52.7789 57.1192 52.7789ZM57.2535 53.3979H58.3763V54.5207H57.2535V53.3979ZM77.4459 40.7362H84.6445C84.978 40.7362 85.2518 40.9365 85.2518 41.1794V45.0827C85.2518 45.3256 84.978 45.5312 84.6445 45.5312H77.4459C77.1124 45.5312 76.8387 45.3245 76.8387 45.0827V43.4378H74.2222V54.0668H75.1266L74.659 53.5938C74.3681 53.3083 74.8049 52.8715 75.0904 53.1634L76.0919 54.1584C76.1036 54.1701 76.11 54.1829 76.1217 54.1946C76.127 54.2 76.1345 54.2064 76.1345 54.2191L76.1398 54.2255L76.1526 54.249L76.159 54.2618C76.159 54.2682 76.1643 54.2799 76.1643 54.2863L76.1707 54.2927V54.3108L76.1771 54.3225V54.4279L76.1707 54.4461V54.4578L76.1643 54.4642C76.1643 54.477 76.159 54.4823 76.159 54.494L76.1526 54.5004L76.1462 54.5132L76.1398 54.5313L76.1345 54.5377C76.1345 54.5441 76.1281 54.5505 76.1217 54.5622C76.1089 54.5739 76.0972 54.5867 76.0919 54.5984L75.0904 55.5934C74.8049 55.8789 74.3681 55.4485 74.659 55.1566L75.1266 54.689H73.9132C73.7491 54.689 73.6149 54.5558 73.6096 54.3917V43.1374C73.6096 42.9616 73.7555 42.8274 73.9132 42.8274H76.8388V41.1825C76.8388 40.9364 77.1124 40.7362 77.4459 40.7362ZM81.0456 34.6479C82.3453 34.6479 83.4256 35.612 83.5886 36.8691H84.6326C84.9117 36.8691 85.1419 37.0939 85.1419 37.373V38.1923H88.566C89.4278 38.1923 90.1384 38.8964 90.1384 39.7583V57.7433C90.1384 58.6052 89.4278 59.3157 88.566 59.3157H73.5256C72.6637 59.3157 71.9531 58.6052 71.9531 57.7433V39.7583C71.9531 38.8964 72.6637 38.1923 73.5256 38.1923H76.9497V37.373C76.9497 37.0939 77.1809 36.8691 77.4589 36.8691H78.503C78.6723 35.613 79.7459 34.6479 81.0456 34.6479ZM81.0456 58.697H88.5658C89.0942 58.697 89.5182 58.2666 89.5182 57.7445V39.7595C89.5182 39.2375 89.0878 38.8071 88.5658 38.8071H85.1417V39.359C85.1417 39.6381 84.9116 39.8629 84.6325 39.8629H77.4573C77.1782 39.8629 76.9481 39.6381 76.9481 39.359V38.8071H73.524C73.002 38.8071 72.5716 39.2375 72.5716 39.7595V57.7445C72.5716 58.2666 73.002 58.697 73.524 58.697H81.0456ZM84.5229 39.249V37.4827H83.3095C83.122 37.4827 82.9995 37.3368 82.9995 37.161C82.9697 36.1105 82.1067 35.2604 81.0446 35.2604C79.9824 35.2604 79.1206 36.1095 79.0907 37.161C79.0907 37.3367 78.9693 37.4827 78.7871 37.4827H77.5673V39.249H84.5229ZM85.9686 48.9363C85.9622 48.9235 85.9622 48.9182 85.9558 48.9118L85.9494 48.9001L85.943 48.8873L85.9366 48.8756L85.9302 48.8692C85.9302 48.8575 85.9249 48.8511 85.9249 48.8394L85.9196 48.833V48.8202L85.9132 48.8021V48.6987L85.9196 48.687V48.6689L85.9249 48.6625C85.9249 48.6561 85.9302 48.6444 85.9302 48.638L85.9366 48.6263L85.943 48.6135L85.9494 48.6018L85.9558 48.5954C85.9622 48.5826 85.9622 48.5773 85.9686 48.5709C85.9803 48.5592 85.9931 48.5464 85.9984 48.5347L86.9998 47.5397C87.2854 47.2488 87.7221 47.6856 87.4366 47.9701L86.9636 48.4431H88.177C88.3528 48.4431 88.4796 48.5826 88.4796 48.7531V54.3737C88.4796 54.5442 88.3464 54.6773 88.177 54.6837H85.2507V56.3233C85.2507 56.5715 84.9769 56.7729 84.6434 56.7729H77.4448C77.1113 56.7729 76.8375 56.5726 76.8375 56.3233V52.42C76.8375 52.1771 77.1103 51.9768 77.4448 51.9768H84.6434C84.9769 51.9768 85.2507 52.1771 85.2507 52.42V54.0649H87.8672V49.0631L86.9638 49.0663L87.4368 49.5339C87.7223 49.8248 87.2855 50.2562 87 49.9707L85.9986 48.9757C85.9932 48.9608 85.9803 48.9491 85.9686 48.9363ZM77.4521 52.5969V56.154H84.639V52.5969H77.4521ZM77.4457 46.3571H84.6444C84.9778 46.3571 85.2516 46.5574 85.2516 46.8003V50.7036C85.2516 50.9518 84.9778 51.1532 84.6444 51.1532H77.4457C77.1123 51.1532 76.8385 50.9529 76.8385 50.7036V46.8003C76.8385 46.5574 77.1123 46.3571 77.4457 46.3571ZM77.4521 46.9697V50.5332H84.639V46.9697H77.4521ZM82.7149 48.002L80.7782 49.9388C80.6386 50.0848 80.4138 50.0486 80.2987 49.8962L79.3516 48.6764C79.1034 48.3547 79.5945 47.9786 79.8438 48.3003L80.5842 49.2655L82.2835 47.5663C82.569 47.2797 83.0058 47.7112 82.7149 48.002ZM77.4521 41.3499V44.9123H84.639V41.3499H77.4521ZM108.445 36.8276L109.938 38.3212L105.556 42.8498C105.428 42.983 105.295 43.1289 105.471 43.3356L107.048 45.1627C107.134 45.2596 107.268 45.2958 107.383 45.2543L111.377 44.1985V44.8974C111.377 47.665 108.081 46.9066 108.081 50.0931V53.11H107.273C106.872 53.11 106.545 53.4382 106.545 53.8387V55.6168H106.229C105.791 55.6168 105.44 55.9684 105.44 56.4062V58.5305C105.44 58.9619 105.791 59.3199 106.229 59.3199H121.368C121.805 59.3199 122.157 58.9619 122.157 58.5305V56.4062C122.157 55.9694 121.806 55.6168 121.368 55.6168H121.052V53.8387C121.052 53.4382 120.725 53.11 120.324 53.11H119.516V41.2614C119.516 37.6254 116.542 34.6521 112.907 34.6521C111.256 34.6521 109.684 35.2647 108.463 36.3758C108.324 36.4877 108.318 36.6997 108.445 36.8275L108.445 36.8276ZM112.16 38.4608C112.427 38.4608 112.645 38.6792 112.645 38.9465C112.645 39.2139 112.426 39.4323 112.16 39.4323C111.892 39.4323 111.674 39.2139 111.674 38.9465C111.674 38.6791 111.892 38.4608 112.16 38.4608ZM108.699 53.107V50.0901C108.699 47.2499 111.989 48.0873 111.989 44.8944V44.3969C112.366 44.5844 112.778 44.6877 113.222 44.6877C114.746 44.6877 115.984 43.4551 115.984 41.9318C115.984 41.6772 115.948 41.4343 115.881 41.1978C115.747 40.8335 115.183 41.0156 115.298 41.3927C115.341 41.5685 115.365 41.7443 115.365 41.9329C115.365 43.1165 114.405 44.0699 113.223 44.0699C112.706 44.0699 112.233 43.8878 111.869 43.5842C111.803 43.5107 111.699 43.4744 111.571 43.5053L107.389 44.6154L106.125 43.1463L110.587 38.5334C110.702 38.4056 110.707 38.2234 110.587 38.0966L109.112 36.6275C110.144 35.771 111.468 35.2617 112.906 35.2617C116.202 35.2617 118.898 37.9624 118.898 41.2585V53.1071L108.699 53.106L108.699 53.107ZM120.433 55.6138V53.8357C120.433 53.775 120.384 53.7271 120.324 53.7271H107.274C107.213 53.7271 107.165 53.7761 107.165 53.8357V55.6138H120.433ZM106.23 56.2327H121.368C121.465 56.2327 121.538 56.3052 121.538 56.4021V58.5264C121.538 58.618 121.464 58.6958 121.368 58.6958H106.23C106.133 58.6958 106.06 58.617 106.06 58.5264V56.4021C106.059 56.3062 106.132 56.2327 106.23 56.2327ZM106.955 83.1902H102.743C102.554 83.1902 102.403 83.3425 102.403 83.5247V91.337C102.403 91.5245 102.554 91.6768 102.743 91.6768H106.931C107.107 91.6704 107.252 91.5309 107.259 91.3498V90.3058C109.565 90.8576 111.872 91.4105 114.178 91.9623C115.07 92.2479 115.938 91.9442 116.673 91.4158C119.211 89.7528 121.772 88.1207 124.285 86.4217C125.991 85.2679 124.94 83.3993 122.919 84.0779C121.462 84.5701 120.091 85.2679 118.7 85.9114C118.482 85.4437 118.07 85.1401 117.547 85.1401H112.83C112.12 85.1401 111.319 84.4966 110.621 84.3027C109.547 84.0119 108.363 84.0353 107.259 84.0907V83.5197C107.252 83.3545 107.126 83.1905 106.955 83.1905L106.955 83.1902ZM113.984 84.1554C109.262 84.2768 105.365 80.4769 105.365 75.754C105.365 71.1166 109.134 67.3475 113.771 67.3475C118.415 67.3475 122.178 71.1103 122.178 75.754C122.179 80.3072 118.536 84.0455 113.984 84.1554ZM106.069 76.7438H113.31C114.609 76.7438 114.609 74.7772 113.31 74.7772H106.069C106.033 75.0989 106.002 75.4323 106.002 75.7541C106.003 76.0822 106.027 76.4167 106.069 76.7438ZM106.179 77.3819C106.567 79.2281 107.63 80.8654 109.14 81.9948C110.481 82.9898 112.102 83.5246 113.771 83.5246C114.354 83.5246 114.93 83.4586 115.495 83.3307C115.616 83.3062 115.731 83.2764 115.846 83.2391C116.744 82.7299 116.387 81.346 115.349 81.346C113.176 81.346 113.176 78.0381 115.349 78.0381C117.291 78.0381 119.246 78.0626 121.188 78.0381C121.874 75.7924 121.503 73.3709 120.205 71.4223C118.754 69.249 116.381 67.9865 113.77 67.9865C112.798 67.9865 111.925 68.1622 111.014 68.5031C110.929 68.6555 110.886 68.8249 110.886 69.0007C110.886 69.5589 111.341 70.0149 111.9 70.0149C114.074 70.0149 114.074 73.3162 111.9 73.3162H106.401C106.309 73.59 106.237 73.8628 106.176 74.1419H113.309C115.457 74.1419 115.457 77.3827 113.309 77.3827L106.178 77.3806L106.179 77.3819ZM120.965 78.6741H120.873H115.349C114.014 78.6741 114.014 80.7079 115.349 80.7079C116.466 80.7079 117.255 81.8009 116.927 82.8503C118.755 82.0374 120.212 80.532 120.965 78.6741ZM106.645 72.6774H111.902C113.236 72.6774 113.236 70.649 111.902 70.649C110.991 70.649 110.25 69.9033 110.25 68.9977C110.25 68.9434 110.25 68.8891 110.256 68.8401C108.649 69.6604 107.362 71.0209 106.645 72.6774ZM103.035 83.8219H106.628V91.0448H103.035V83.8219ZM111.921 87.9916C112.018 87.7679 112.236 87.6209 112.486 87.6209H117.548C118.173 87.6209 118.677 87.1713 118.78 86.5587C120.207 85.8854 121.621 85.1812 123.121 84.6773C124.389 84.2469 125.069 85.1269 123.934 85.8982C121.445 87.5794 118.92 89.1879 116.413 90.833C115.576 91.3795 115.241 91.5734 114.228 91.3251C111.904 90.7658 109.585 90.214 107.26 89.6558V84.721C108.31 84.6731 109.433 84.6358 110.459 84.9149C111.272 85.1333 111.946 85.7715 112.826 85.7715H117.549C118.356 85.7715 118.356 86.9913 117.549 86.9913H112.486C112.002 86.9913 111.564 87.2768 111.357 87.7136C111.162 88.1248 111.75 88.3869 111.921 87.9916ZM-19.5282 67.3751H-14.7385C-13.9672 67.3751 -13.3366 68.0057 -13.3366 68.7824V90.6347C-13.3366 91.4113 -13.9672 92.0431 -14.7385 92.0431L-19.5282 92.0441C-20.3048 92.0441 -20.9355 91.4124 -20.9355 90.6357V68.7834C-20.9366 68.0068 -20.3048 67.3751 -19.5282 67.3751ZM-27.7463 67.3751H-22.9566C-22.1853 67.3751 -21.5546 68.0057 -21.5546 68.7824V90.6347C-21.5546 91.4113 -22.1853 92.0431 -22.9566 92.0431H-27.7463C-28.5229 92.0431 -29.1547 91.4113 -29.1547 90.6347V68.7824C-29.1547 68.0068 -28.524 67.3751 -27.7463 67.3751ZM-26.5264 76.7105H-24.2317C-23.8247 76.7105 -23.8247 77.3231 -24.2317 77.3231H-26.5264C-26.9334 77.3242 -26.9334 76.7105 -26.5264 76.7105ZM-26.5264 75.1264H-24.2317C-23.8247 75.1264 -23.8247 75.7453 -24.2317 75.7453H-26.5264C-26.9334 75.7453 -26.9334 75.1264 -26.5264 75.1264ZM-26.7214 71.9815H-24.0453C-23.9781 71.9815 -23.9238 72.0369 -23.9238 72.103V73.6871C-23.9238 73.7479 -23.9781 73.8022 -24.0453 73.8022H-26.7214C-26.7821 73.8022 -26.8364 73.7479 -26.8364 73.6871V72.103C-26.8364 72.0369 -26.7811 71.9815 -26.7214 71.9815ZM-26.2175 72.6015H-24.5417V73.1907H-26.2175V72.6015ZM-23.3582 70.0575H-27.4011C-27.6685 70.0575 -27.8805 70.2759 -27.8805 70.5369V82.2099C-27.8805 82.4773 -27.6685 82.6893 -27.4011 82.6893H-23.3582C-23.0972 82.6893 -22.8788 82.4773 -22.8788 82.2099V70.538C-22.8788 70.277 -23.0972 70.0575 -23.3582 70.0575ZM-27.2669 70.6712H-23.4913V82.0755H-27.2669V70.6712ZM-25.3557 90.7199C-23.9836 90.7199 -22.8799 89.6087 -22.8799 88.244C-22.8799 86.8783 -23.9846 85.7671 -25.3557 85.7671C-26.7215 85.7671 -27.8326 86.8783 -27.8326 88.244C-27.8316 89.6087 -26.7215 90.7199 -25.3557 90.7199ZM-25.3557 86.386C-24.3298 86.386 -23.4924 87.218 -23.4924 88.2439C-23.4924 89.2699 -24.3298 90.1008 -25.3557 90.1008C-26.3816 90.1008 -27.2137 89.2699 -27.2137 88.2439C-27.2126 87.218 -26.3806 86.386 -25.3557 86.386ZM-27.7463 67.9949H-22.9567C-22.5263 67.9949 -22.1673 68.3465 -22.1673 68.7832V90.6355C-22.1673 91.0723 -22.5252 91.4249 -22.9567 91.4249H-27.7463C-28.1831 91.4249 -28.5357 91.0733 -28.5357 90.6355V68.7832C-28.5357 68.3464 -28.1842 67.9949 -27.7463 67.9949ZM-11.3091 67.3749H-6.51942C-5.74919 67.3749 -5.11744 68.0055 -5.11744 68.7822V90.6345C-5.11744 91.4111 -5.74812 92.0429 -6.51942 92.0429H-11.3091C-12.0857 92.0429 -12.7174 91.4111 -12.7174 90.6345V68.7822C-12.7174 68.0066 -12.0857 67.3749 -11.3091 67.3749ZM-10.0892 76.7103H-7.79448C-7.38858 76.7103 -7.38858 77.3229 -7.79448 77.3229H-10.0892C-10.4962 77.324 -10.4962 76.7103 -10.0892 76.7103ZM-10.0892 75.1262H-7.79448C-7.38858 75.1262 -7.38858 75.7451 -7.79448 75.7451H-10.0892C-10.4962 75.7451 -10.4962 75.1262 -10.0892 75.1262ZM-10.2831 71.9813H-7.60592C-7.53881 71.9813 -7.48448 72.0367 -7.48448 72.1028V73.687C-7.48448 73.7477 -7.53881 73.802 -7.60592 73.802H-10.2831C-10.3438 73.802 -10.3982 73.7477 -10.3982 73.687V72.1028C-10.3992 72.0367 -10.3449 71.9813 -10.2831 71.9813ZM-9.77921 72.6014H-8.10343V73.1905H-9.77921V72.6014ZM-6.92102 70.0573H-10.9628C-11.2302 70.0573 -11.4486 70.2757 -11.4486 70.5367V82.2097C-11.4486 82.4771 -11.2302 82.6891 -10.9628 82.6891H-6.92102C-6.66001 82.6891 -6.44162 82.4771 -6.44162 82.2097V70.5378C-6.44162 70.2768 -6.66002 70.0573 -6.92102 70.0573ZM-10.8298 70.671H-7.06066V82.0753H-10.8298V70.671ZM-8.91747 90.7197C-7.5517 90.7197 -6.44162 89.6086 -6.44162 88.2439C-6.44162 86.8781 -7.55277 85.7669 -8.91747 85.7669C-10.2832 85.7669 -11.3944 86.8781 -11.3944 88.2439C-11.3944 89.6086 -10.2832 90.7197 -8.91747 90.7197ZM-8.91747 86.3858C-7.89155 86.3858 -7.06058 87.2178 -7.06058 88.2437C-7.06058 89.2697 -7.89261 90.1006 -8.91747 90.1006C-9.94338 90.1006 -10.7754 89.2697 -10.7754 88.2437C-10.7754 87.2178 -9.94338 86.3858 -8.91747 86.3858ZM-11.3091 67.9947H-6.51951C-6.08912 67.9947 -5.7301 68.3463 -5.7301 68.783V90.6353C-5.7301 91.0721 -6.08806 91.4247 -6.51951 91.4247H-11.3091C-11.7459 91.4247 -12.0986 91.0732 -12.0986 90.6353V68.783C-12.0986 68.3462 -11.7459 67.9947 -11.3091 67.9947ZM-18.3084 76.7102H-16.0137C-15.6067 76.7102 -15.6067 77.3228 -16.0137 77.3228H-18.3084C-18.7143 77.3239 -18.7143 76.7102 -18.3084 76.7102ZM-18.3084 75.1261H-16.0137C-15.6067 75.1261 -15.6067 75.745 -16.0137 75.745H-18.3084C-18.7143 75.745 -18.7143 75.1261 -18.3084 75.1261ZM-18.5023 71.9813H-15.8251C-15.7591 71.9813 -15.7037 72.0367 -15.7037 72.1027V73.6869C-15.7037 73.7476 -15.758 73.8019 -15.8251 73.8019H-18.5023C-18.563 73.8019 -18.6174 73.7476 -18.6174 73.6869V72.1027C-18.6174 72.0367 -18.563 71.9813 -18.5023 71.9813ZM-17.9984 72.6013H-16.3226V73.1904H-17.9984V72.6013ZM-15.1402 70.0573H-19.1831C-19.4505 70.0573 -19.6689 70.2756 -19.6689 70.5367V82.2097C-19.6689 82.4771 -19.4505 82.6891 -19.1831 82.6891H-15.1402C-14.8792 82.6891 -14.6608 82.4771 -14.6608 82.2097V70.5377C-14.6608 70.2767 -14.8792 70.0573 -15.1402 70.0573ZM-19.0489 70.6709H-15.2733V82.0753H-19.0489V70.6709ZM-17.1367 90.7196C-15.7645 90.7196 -14.6608 89.6085 -14.6608 88.2438C-14.6608 86.878 -15.7656 85.7669 -17.1367 85.7669C-18.5024 85.7669 -19.6136 86.878 -19.6136 88.2438C-19.6136 89.6085 -18.5024 90.7196 -17.1367 90.7196ZM-17.1367 86.3857C-16.1107 86.3857 -15.2734 87.2177 -15.2734 88.2437C-15.2734 89.2696 -16.1107 90.1005 -17.1367 90.1005C-18.1626 90.1005 -18.9946 89.2696 -18.9946 88.2437C-18.9946 87.2177 -18.1626 86.3857 -17.1367 86.3857ZM-19.5283 67.9946H-14.7387C-14.3083 67.9946 -13.9493 68.3462 -13.9493 68.783V90.6352C-13.9493 91.072 -14.3073 91.4246 -14.7387 91.4246H-19.5283C-19.9651 91.4246 -20.3178 91.0731 -20.3178 90.6352V68.783C-20.3167 68.3462 -19.9651 67.9946 -19.5283 67.9946ZM17.2462 72.4073L14.4295 75.8612C14.2899 76.0316 14.0406 75.9954 13.9139 75.843L12.4021 74.0458C12.1411 73.7305 12.6088 73.3352 12.8751 73.6452L14.1738 75.1985L16.7658 72.0185C17.0278 71.7032 17.5008 72.0909 17.2462 72.4073ZM25.0274 86.587C25.4642 85.4023 26.3995 85.0998 26.3995 83.6489C26.3995 82.1499 25.1797 80.9291 23.6797 80.9291C23 80.9291 22.3811 81.1773 21.9017 81.5917V69.9858C21.9017 68.5476 20.7362 67.3757 19.298 67.3757H5.98123C4.56646 67.3757 3.38287 68.5295 3.38287 69.9794C3.38287 71.1332 3.88038 72.2923 5.1982 72.2923H7.74117V89.1054C7.74117 90.7502 8.65202 92.0435 10.3449 92.0435H27.4926C27.662 92.0435 27.8026 91.9028 27.8026 91.7335V90.6596C27.8026 90.1131 27.3541 89.6646 26.8076 89.6646H26.0363V89.4334C26.0363 88.8816 25.5931 88.4384 25.0413 88.4384H24.8165C24.8271 87.8663 24.8335 87.1143 25.0274 86.587ZM21.288 82.3553C21.076 82.7378 20.961 83.181 20.961 83.6487C20.961 84.2016 21.0941 84.584 21.288 84.9175V86.8351H11.3397C10.089 86.7307 8.51129 87.3933 8.7595 88.8986C8.98429 90.306 10.9019 90.8408 11.3579 88.9775C11.4729 88.5833 10.8603 88.4192 10.7634 88.8198C10.4651 89.9544 9.48817 89.6337 9.36779 88.7953C9.23463 87.8962 10.3394 87.2474 11.1586 87.7513C11.7233 88.1029 12.0993 88.7282 12.0993 89.4388C12.0993 90.4882 11.2737 91.3628 10.2296 91.4235C8.88836 91.3447 8.35357 90.2942 8.35357 89.1405V69.9846C8.35357 69.2144 8.01905 68.491 7.43099 67.9935H19.2979C20.4027 67.9935 21.289 68.8852 21.289 69.9846C21.2219 74.0818 21.288 78.2464 21.288 82.3553ZM21.9017 85.7846C22.0657 86.0147 22.217 86.2693 22.332 86.5858C22.3619 86.671 22.3864 86.7551 22.4056 86.834H21.9016L21.9017 85.7846ZM22.4961 87.454C22.5206 87.7821 22.5323 88.1092 22.5451 88.4373H22.3203C21.7685 88.4373 21.3189 88.8805 21.3189 89.4324V89.6635H20.554C20.0075 89.6635 19.559 90.112 19.559 90.6585V91.4235H11.7895C12.3541 90.9494 12.7185 90.2335 12.7185 89.4387C12.7185 88.6738 12.3786 87.9515 11.7895 87.454L22.4961 87.454ZM23.1641 88.4075C23.1396 87.7576 23.1396 86.981 22.9148 86.3738C22.787 86.0392 22.6176 85.7303 22.4109 85.4459C21.9741 84.8269 21.5735 84.486 21.5735 83.6486C21.5735 82.4896 22.5142 81.5489 23.6797 81.5489C24.8388 81.5489 25.7795 82.4896 25.7795 83.6486C25.7795 84.486 25.3853 84.8258 24.9421 85.4459C24.7419 85.7314 24.5661 86.0403 24.4446 86.3738C24.2198 86.981 24.2134 87.7576 24.1964 88.4075V88.4373H23.1652L23.1641 88.4075ZM25.4226 89.6635H21.938V89.4324C21.938 89.2257 22.1073 89.051 22.3204 89.051H25.0402C25.2469 89.051 25.4227 89.2268 25.4227 89.4324L25.4226 89.6635ZM27.1815 91.4235H20.1716V90.6586C20.1716 90.4519 20.3473 90.2761 20.554 90.2761H26.8065C27.0132 90.2761 27.1826 90.4519 27.1826 90.6586L27.1815 91.4235ZM14.8236 78.4403C17.3059 78.4403 19.328 76.4247 19.328 73.9359C19.328 71.4472 17.307 69.4316 14.8236 69.4316C12.335 69.4316 10.3193 71.4472 10.3193 73.9359C10.3204 76.4246 12.336 78.4403 14.8236 78.4403ZM14.8236 70.0517C16.9661 70.0517 18.7089 71.7872 18.7089 73.9359C18.7089 76.0847 16.966 77.8266 14.8236 77.8266C12.6749 77.8266 10.9329 76.0838 10.9329 73.9359C10.9329 71.7871 12.6747 70.0517 14.8236 70.0517ZM7.7401 69.9782V71.6721H6.61723C6.90913 71.3621 7.09025 70.9498 7.06041 70.4704C6.96879 69.0493 5.11191 68.328 4.47482 70.1359C4.32993 70.5247 4.918 70.7367 5.05756 70.3479C5.44641 69.2804 6.3871 69.6267 6.44143 70.512C6.52026 71.7318 3.99539 72.4669 3.99539 69.9782C3.99539 67.4108 7.7401 67.4108 7.7401 69.9782ZM10.5751 79.8368H19.067C19.474 79.8368 19.474 80.4557 19.067 80.4557H10.5751C10.1681 80.4557 10.1681 79.8368 10.5751 79.8368ZM10.5751 82.0996H19.067C19.474 82.0996 19.474 82.7185 19.067 82.7185L10.5751 82.7196C10.1681 82.7185 10.1681 82.0996 10.5751 82.0996ZM10.5751 84.3645H19.067C19.474 84.3645 19.474 84.9781 19.067 84.9781L10.5751 84.9771C10.1681 84.9771 10.1681 84.3645 10.5751 84.3645ZM50.0142 85.0058C50.4084 84.5872 50.6513 84.0225 50.6513 83.4099C50.6513 82.123 49.6072 81.079 48.3203 81.079C47.0333 81.079 45.9893 82.123 45.9893 83.4099C45.9893 84.0225 46.2322 84.5872 46.6264 85.0058L45.3576 87.1962L44.5202 86.3652C44.5266 86.3588 44.533 86.3524 44.533 86.3471L45.1828 85.5459C45.2681 85.4373 45.2734 85.2977 45.2074 85.1816C45.055 84.9206 44.9399 84.6415 44.8611 84.3496C44.8302 84.2217 44.7216 84.1301 44.5884 84.1131L43.5625 84.0044H43.5444V82.8144C43.5508 82.808 43.5625 82.808 43.5625 82.808L44.5884 82.6993C44.7162 82.6812 44.8313 82.596 44.8611 82.4692C44.9399 82.1709 45.0614 81.8854 45.2127 81.6255C45.2734 81.5168 45.2617 81.3698 45.1829 81.2739L44.533 80.4664C44.533 80.4664 44.5266 80.46 44.5202 80.4547L45.364 79.6109C45.3704 79.6162 45.3757 79.6162 45.3821 79.6237L46.1832 80.2661C46.2802 80.3513 46.4197 80.363 46.5348 80.3023C46.7958 80.15 47.0813 80.0296 47.385 79.9507C47.5064 79.9145 47.597 79.8048 47.6097 79.6769L47.7184 78.651C47.7184 78.6457 47.7248 78.6382 47.7248 78.6329H48.9148V78.651L49.0298 79.6769C49.0416 79.8048 49.1332 79.9135 49.2546 79.9507C49.5583 80.0296 49.8438 80.151 50.1037 80.3023C50.2134 80.363 50.3594 80.3513 50.4553 80.2725L51.2564 79.6226C51.2628 79.6162 51.2681 79.6162 51.2745 79.6098L52.1119 80.4536C52.1119 80.4589 52.1066 80.4653 52.1066 80.4653L51.4567 81.2665C51.3715 81.3762 51.3662 81.5158 51.4322 81.6319C51.5782 81.8929 51.6996 82.172 51.7784 82.4692C51.8083 82.5907 51.918 82.6876 52.0458 82.6993L53.0717 82.808C53.0781 82.808 53.0845 82.808 53.0963 82.8144V84.0044H53.0717L52.0522 84.113C51.9127 84.1311 51.8093 84.2217 51.7731 84.3559C51.6943 84.6468 51.5792 84.927 51.4269 85.188C51.3661 85.303 51.3779 85.4437 51.4567 85.5459L52.1066 86.3471C52.1066 86.3535 52.1119 86.3599 52.1119 86.3652L51.2799 87.1962L50.0142 85.0058ZM46.961 84.422C46.749 84.1365 46.6212 83.7839 46.6212 83.4089C46.6212 82.4682 47.3861 81.7097 48.3204 81.7097C49.2558 81.7097 50.0143 82.4682 50.0143 83.4089C50.0143 83.785 49.8928 84.1376 49.6808 84.422C49.0608 83.4451 47.58 83.4451 46.961 84.422ZM51.2884 92.0415H45.3459C44.1261 92.0415 43.3431 90.6875 43.9556 89.6253L45.0295 87.761C44.695 87.4509 44.3679 87.0994 44.0398 86.7776C43.815 86.5465 43.8395 86.2013 44.0398 85.952L44.5554 85.3085C44.4585 85.12 44.3796 84.9261 44.3125 84.7205L43.4933 84.6353C43.1779 84.599 42.9105 84.3689 42.9105 84.0472V82.7667C42.9105 82.4449 43.1779 82.2148 43.4933 82.1839L44.3125 82.0923C44.3796 81.892 44.4585 81.6917 44.5554 81.5043L44.0398 80.8672C43.8395 80.6115 43.815 80.2663 44.0398 80.0416L44.9507 79.1307C45.1754 78.8995 45.527 78.9304 45.7763 79.1307L46.4133 79.6463C46.6008 79.5494 46.8022 79.4705 47.0025 79.4034L47.0941 78.5831C47.1239 78.2614 47.3551 78.0004 47.6768 78.0004H48.0114V75.8931C46.9364 75.9602 45.984 76.3789 45.3651 77.0032C45.2319 77.1374 45.0497 77.1438 44.9155 77.0032C43.3921 75.4744 40.7278 75.5107 39.1915 77.0586C38.9614 77.2898 38.6024 77.0405 38.6631 76.7614C39.5431 72.3487 43.3731 69.0047 48.0103 68.8586V67.6814C48.0103 67.2755 48.6292 67.2755 48.6292 67.6814V68.8586C53.2667 69.0035 57.09 72.3487 57.9764 76.7614C58.0371 77.0405 57.6792 77.2898 57.448 77.0586C55.9182 75.5171 53.2537 75.4744 51.7303 76.9979C51.5971 77.1374 51.4022 77.1311 51.2626 76.9926C50.6437 76.38 49.6966 75.9613 48.628 75.8942V78.0015H48.9615C49.2832 78.0015 49.508 78.2625 49.5442 78.5842L49.6294 79.4045C49.8361 79.4706 50.03 79.5494 50.225 79.6474L50.862 79.1318C51.1103 78.9315 51.4565 78.9006 51.6877 79.1318L52.5985 80.0426C52.8233 80.2663 52.7988 80.6137 52.5985 80.8683L52.0818 81.5053C52.1735 81.6928 52.2576 81.8942 52.3247 82.0934L53.1376 82.185C53.4593 82.2148 53.7256 82.446 53.7256 82.7677V84.0483C53.7256 84.37 53.4582 84.6001 53.1376 84.6363L52.3247 84.7215C52.2587 84.9282 52.1724 85.1221 52.0818 85.3096L52.5985 85.9531C52.7988 86.2013 52.8233 86.5486 52.5985 86.7787C52.265 87.1058 51.9369 87.4339 51.6088 87.7684L52.6827 89.6264C53.2974 90.6874 52.5146 92.0415 51.2884 92.0415ZM48.6357 86.3109V88.4661C48.6357 88.8848 48.0039 88.8848 48.0039 88.4661V86.3109C48.005 85.8976 48.6357 85.8976 48.6357 86.3109ZM48.3203 89.3333C48.5515 89.3333 48.7337 89.5155 48.7337 89.7467C48.7337 89.9778 48.5515 90.16 48.3203 90.16C48.0892 90.16 47.907 89.9778 47.907 89.7467C47.907 89.5155 48.0892 89.3333 48.3203 89.3333ZM45.346 91.4097H51.2884C52.0224 91.4097 52.5018 90.5776 52.1386 89.9406L49.1642 84.7991C48.8063 84.1737 47.8475 84.1493 47.4767 84.7991L44.5023 89.9406C44.1327 90.5894 44.6237 91.4097 45.346 91.4097ZM49.7832 69.6065C50.8763 70.7784 51.6646 73.2234 51.8042 76.1252C53.3276 75.045 55.5553 74.9288 57.1278 75.9856C56.1083 72.6777 53.2733 70.1585 49.7832 69.6065ZM51.1671 76.1007C50.9977 72.3741 49.7832 69.4848 48.3204 69.4848C46.8513 69.4848 45.6432 72.3741 45.4674 76.1007C47.1059 74.9661 49.5348 74.9661 51.1668 76.1007H51.1671ZM44.8368 76.1252C44.9764 73.2231 45.7658 70.7783 46.8525 69.6064C43.3689 70.1583 40.5339 72.6779 39.5145 75.9858C41.0858 74.9301 43.3123 75.0449 44.8368 76.1252ZM75.8405 78.0758H82.5531C83.3734 77.736 84.2587 77.5911 85.1334 77.6507V72.2911H70.3529V90.2826H85.1334V89.148C83.4341 89.2567 81.8009 88.6196 80.6173 87.4051H72.4226C72.0157 87.4051 72.0157 86.7862 72.4226 86.7862H80.0953C79.5913 86.0937 79.2579 85.3118 79.1056 84.4978H72.4227C72.0157 84.4978 72.0157 83.8853 72.4227 83.8853H79.0202C78.9531 83.114 79.0447 82.3373 79.2876 81.5969H72.4225C72.0155 81.5969 72.0155 80.978 72.4225 80.978H79.5303C79.8041 80.3824 80.1919 79.8178 80.6841 79.3267C80.9206 79.0902 81.1699 78.8782 81.4373 78.696H75.8409C75.4329 78.696 75.4329 78.076 75.8399 78.076L75.8405 78.0758ZM75.8405 75.1748H83.0571C83.4641 75.1748 83.4641 75.7874 83.0571 75.7874H75.8405C75.4335 75.7874 75.4335 75.1748 75.8405 75.1748ZM73.6853 74.7561V74.3737C73.6853 73.9667 73.0727 73.9667 73.0727 74.3737V74.7561C72.5081 74.9021 72.1203 75.3932 72.1203 75.9759C72.1203 76.6737 72.6849 77.2384 73.3764 77.2384C73.7343 77.2384 74.0262 77.5292 74.0262 77.8882C74.0262 78.2462 73.7354 78.5306 73.3764 78.5306C73.0248 78.5306 72.7329 78.2451 72.7329 77.8882C72.7329 77.4812 72.1203 77.4812 72.1203 77.8882C72.1203 78.4709 72.5092 78.9621 73.0727 79.108V79.4969C73.0727 79.8975 73.6853 79.8975 73.6853 79.4969V79.108C74.2499 78.9621 74.6377 78.4699 74.6377 77.8882C74.6377 77.1904 74.0731 76.6247 73.3753 76.6247C73.0237 76.6247 72.7318 76.3339 72.7318 75.9749C72.7318 75.6233 73.0237 75.3314 73.3753 75.3314C73.7333 75.3314 74.0252 75.6233 74.0252 75.9749C74.0252 76.3808 74.6377 76.3808 74.6377 75.9749C74.6377 75.3932 74.2499 74.901 73.6853 74.7561ZM90.3228 87.7341C90.8384 87.6308 91.3785 87.782 91.7493 88.1592L92.9691 89.3971C94.4265 90.8779 92.2042 93.0991 90.7479 91.613L89.528 90.3804C89.1637 90.0044 89.006 89.4823 89.103 88.972L88.174 88.0441C87.7489 88.3531 87.3004 88.596 86.8327 88.7782V90.4103C86.8327 91.2785 86.1285 91.9827 85.2667 91.9827H70.2187C69.3568 91.9827 68.6526 91.2785 68.6526 90.4103V72.1643C68.6526 71.3024 69.3568 70.5918 70.2187 70.5918H73.6479V70.0464C73.6479 69.7673 73.8791 69.5371 74.1572 69.5371H75.1959C75.3653 68.28 76.4402 67.3159 77.7453 67.3159C79.0439 67.3159 80.1188 68.2801 80.2882 69.5371H81.3259C81.605 69.5371 81.8362 69.7673 81.8362 70.0464V70.5918H85.2654C86.1273 70.5918 86.8315 71.3024 86.8315 72.1643V78.0216C87.5602 78.3007 88.2463 78.7386 88.8279 79.3267C90.8436 81.3423 91.0801 84.5287 89.399 86.8117L90.3228 87.7341ZM86.2201 88.972C86.0742 89.0146 85.9229 89.0455 85.7769 89.069V90.5988C85.7769 90.7799 85.632 90.9259 85.4488 90.9259H70.0376C69.8554 90.9259 69.7094 90.7799 69.7094 90.5988V71.9767C69.7094 71.8009 69.8554 71.6486 70.0376 71.6486H73.649V71.2107H70.2197C69.6977 71.2107 69.2673 71.6358 69.2673 72.1642V90.4102C69.2673 90.9386 69.6988 91.3637 70.2197 91.3637H85.2677C85.7898 91.3637 86.2201 90.9386 86.2201 90.4102L86.2201 88.972ZM85.7769 77.7294C85.9229 77.7539 86.0742 77.7837 86.2201 77.8263V72.1629C86.2201 71.6345 85.7897 71.2094 85.2677 71.2094H81.8384V71.6473H85.4499C85.6321 71.6473 85.778 71.7996 85.778 71.9754L85.7769 77.7294ZM88.6479 87.6477L89.3585 88.3636C89.4619 88.2176 89.5833 88.0962 89.7229 87.9939L89.0123 87.2833C88.8961 87.4112 88.7747 87.5326 88.6479 87.6477ZM89.9647 89.9488L91.1781 91.1814C92.0698 92.0848 93.4185 90.7318 92.5322 89.8274L91.3187 88.5894C90.4441 87.7031 89.073 89.039 89.9647 89.9488ZM81.115 79.7578C79.1057 81.766 79.1057 85.0258 81.115 87.0415C83.1306 89.0508 86.3895 89.0508 88.3987 87.0415C90.4079 85.027 90.4079 81.767 88.3987 79.7578C86.3895 77.7475 83.1307 77.7475 81.115 79.7578ZM81.4793 80.1221C83.2946 78.3132 86.2253 78.3132 88.0343 80.1221C89.8432 81.9311 89.8432 84.8681 88.0343 86.6772C86.2254 88.4861 83.2935 88.4861 81.4793 86.6772C79.6704 84.8682 79.6704 81.9301 81.4793 80.1221ZM81.9161 80.5525C80.3437 82.125 80.3437 84.6743 81.9161 86.2403C83.4885 87.8127 86.0316 87.8127 87.6038 86.2403C89.1763 84.6742 89.1763 82.1248 87.6038 80.5525C86.0314 78.9865 83.4884 78.9865 81.9161 80.5525ZM77.7464 67.9334C76.6842 67.9334 75.8224 68.7708 75.7915 69.8212C75.7851 70.0045 75.6764 70.1558 75.4815 70.1558H74.2616V71.6494H81.2235V70.1558H80.0037C79.7853 70.1558 79.7001 69.9864 79.6937 69.8042C79.6522 68.758 78.7957 67.9334 77.7464 67.9334ZM87.1789 81.8704L84.3633 85.3242C84.2663 85.4456 84.0959 85.4701 83.9627 85.3913C83.9265 85.3732 83.8839 85.3423 83.8476 85.2997L82.3359 83.5024C82.0749 83.1924 82.5479 82.7983 82.8089 83.1083L84.114 84.6615L86.706 81.475C86.9606 81.1597 87.4399 81.554 87.1789 81.8704ZM-23.4447 116.163C-23.2018 116.163 -23.0015 115.964 -23.0015 115.721C-23.0015 115.473 -23.2018 115.272 -23.4447 115.272C-23.6929 115.272 -23.8943 115.473 -23.8943 115.721C-23.8943 115.964 -23.694 116.163 -23.4447 116.163ZM-25.194 113.597H-9.21819C-7.47636 113.579 -6.06273 112.146 -6.06273 110.403V106.78C-5.6984 106.896 -5.43205 107.234 -5.43205 107.636V110.403C-5.43205 112.491 -7.12593 114.203 -9.20769 114.227C-14.5196 114.234 -19.8367 114.222 -25.1472 114.215C-27.1991 114.142 -28.8323 112.473 -28.8375 110.409V107.635C-28.8375 107.233 -28.5701 106.895 -28.2004 106.779V110.408C-28.1983 112.176 -26.8931 113.402 -25.194 113.597ZM-6.69219 106.742V110.403C-6.69219 111.799 -7.82679 112.946 -9.22342 112.965C-14.5353 112.965 -19.8459 112.971 -25.1578 112.965C-26.5172 112.807 -27.5676 111.823 -27.5676 110.409V106.743C-20.6109 106.742 -13.6541 106.742 -6.69219 106.742ZM-27.9371 106.113H-23.142V104.583C-23.142 103.454 -22.2194 102.531 -21.0902 102.531H-20.3317V102.403C-20.3317 102.245 -20.1985 102.118 -20.0408 102.118H-14.2197C-14.0621 102.118 -13.9342 102.245 -13.9342 102.403V102.531H-13.1757C-12.0465 102.531 -11.1239 103.454 -11.1239 104.583V106.113H-6.32878C-5.48502 106.113 -4.79894 106.799 -4.79894 107.636V121.232C-4.79894 122.069 -5.48502 122.755 -6.32878 122.755H-27.937C-28.7743 122.755 -29.4668 122.069 -29.4668 121.232V107.636C-29.4668 106.798 -28.7745 106.113 -27.9371 106.113ZM-24.4225 114.864H-22.474V116.576H-24.4225V114.864ZM-11.7854 114.864H-9.84325V116.576H-11.7854V114.864ZM-22.5101 106.113H-21.873V104.583C-21.873 104.151 -21.5215 103.793 -21.09 103.793H-20.3315V103.162H-21.09C-21.8667 103.162 -22.5101 103.805 -22.5101 104.583V106.113ZM-21.2413 106.113H-13.0169V104.583C-13.0169 104.498 -13.0894 104.43 -13.1746 104.43H-13.9331V104.558C-13.9331 104.716 -14.0609 104.844 -14.2186 104.844H-20.0397C-20.1974 104.844 -20.3305 104.716 -20.3305 104.558V104.43H-21.0891C-21.1743 104.43 -21.2403 104.496 -21.2403 104.583L-21.2413 106.113ZM-12.3861 106.113H-11.7554V104.583C-11.7554 103.805 -12.3925 103.162 -13.1755 103.162H-13.934V103.793H-13.1755C-12.7387 103.793 -12.3861 104.151 -12.3861 104.583V106.113ZM-19.6996 102.749H-14.5647V104.212H-19.6996V102.749ZM-21.842 114.864V116.825C-21.842 117.037 -22.0114 117.207 -22.2244 117.207H-24.6705C-24.8825 117.207 -25.0529 117.038 -25.0529 116.825V114.858C-26.6552 114.845 -28.0573 113.973 -28.8337 112.685V121.232C-28.8337 121.724 -28.4268 122.124 -27.9356 122.124H-6.32744C-5.82994 122.124 -5.42935 121.723 -5.42935 121.232V112.685C-6.19959 113.973 -7.60798 114.846 -9.20499 114.858V116.825C-9.20499 117.037 -9.38077 117.207 -9.58743 117.207H-12.0399C-12.2465 117.207 -12.4223 117.038 -12.4223 116.825V114.864H-21.842ZM-10.8134 116.163C-10.5705 116.163 -10.3702 115.964 -10.3702 115.721C-10.3702 115.473 -10.5705 115.272 -10.8134 115.272C-11.0627 115.272 -11.2566 115.473 -11.2566 115.721C-11.2566 115.964 -11.0627 116.163 -10.8134 116.163ZM21.3766 108.827H15.5427C15.124 108.827 15.124 109.459 15.5427 109.459H21.3766C21.7953 109.459 21.7953 108.827 21.3766 108.827ZM3.39676 116.306L6.18267 111.535V103.73C6.18267 102.819 6.92947 102.073 7.84568 102.073H8.27074V101.643C8.27074 100.732 9.01649 99.9861 9.93375 99.9861H19.3663C19.4877 99.9861 19.573 99.9808 19.6763 100.077L24.9029 105.182C25.036 105.315 24.9998 105.497 24.9998 105.667V111.525L27.792 116.308C28.053 116.751 27.9017 117.334 27.4585 117.589L25.5036 118.736C25.0604 118.997 24.4841 118.845 24.2231 118.396L24.0718 118.14C23.7735 118.372 23.4464 118.644 23.1428 118.851C23.6222 119.913 22.6272 121.013 21.5043 120.654C21.4617 121.491 20.6968 122.013 19.8595 121.843C19.8477 122.614 19.1979 123.16 18.4213 123.099C18.5065 124.234 17.438 124.604 16.412 124.331L14.9184 123.937L14.6276 124.338C13.9724 125.254 12.5523 124.981 12.2604 123.907C11.3857 124.344 10.3662 123.738 10.3236 122.773C9.28488 122.978 8.43048 121.947 8.82465 120.957C7.77421 120.909 7.17978 119.707 7.80511 118.839L7.87756 118.736H7.87116L7.11797 118.141L6.96669 118.396C6.70568 118.845 6.12934 118.997 5.68616 118.736L3.73125 117.587C3.28807 117.331 3.13682 116.749 3.39676 116.306ZM6.82085 110.454L7.34288 109.551C7.53677 109.216 7.91282 109.053 8.27184 109.096V102.703H7.84676C7.2832 102.703 6.82085 103.164 6.82085 103.729V110.454ZM8.90252 109.38L10.5836 110.357C11.0268 110.618 11.1792 111.194 10.9182 111.644L10.5783 112.22L11.4402 112.846C11.7129 113.04 12.1625 113.118 12.4299 112.937C12.8731 112.366 13.3216 111.942 14.0503 111.784C15.6834 111.438 17.0492 111.104 18.6452 111.766C19.3739 112.076 19.9193 112.325 20.6363 112.263L20.272 111.644C20.011 111.194 20.1633 110.618 20.6065 110.357L22.5614 109.216C23.011 108.955 23.5873 109.107 23.8484 109.551L24.364 110.443V105.727L20.8559 105.77C20.3637 105.776 19.9088 105.558 19.5998 105.205L15.5441 105.204C15.1254 105.204 15.1254 104.573 15.5441 104.573H19.2527C19.21 104.434 19.1855 104.288 19.1855 104.136L19.1429 100.616L9.93511 100.615C9.37048 100.615 8.90387 101.076 8.90387 101.641V109.38L8.90252 109.38ZM14.0012 107.88L12.2039 109.677L11.6521 108.719C11.439 108.361 10.8925 108.676 11.1056 109.04L11.8588 110.352C11.9674 110.539 12.2231 110.552 12.3691 110.406L14.4507 108.323C14.748 108.033 14.2984 107.583 14.0012 107.88ZM14.0012 103.619L12.2039 105.422L11.6521 104.464C11.439 104.106 10.8925 104.421 11.1056 104.779L11.8588 106.09C11.9674 106.284 12.2231 106.297 12.3691 106.151L14.4507 104.068C14.748 103.771 14.2984 103.328 14.0012 103.619ZM23.9142 105.101L20.8493 105.137C20.2911 105.143 19.8234 104.688 19.817 104.13L19.7808 101.059L23.9142 105.101ZM20.9993 112.888C20.016 113.071 19.3363 112.78 18.3839 112.385C16.9393 111.778 15.6641 112.124 14.1897 112.44C13.5526 112.573 13.3768 112.901 12.9762 113.32C12.369 114.103 11.7618 114.88 11.1545 115.663C11.2216 115.76 11.5125 115.894 11.6041 115.93C13.1275 116.549 13.5398 115.081 14.669 114.407C15.1729 114.103 15.8824 113.945 16.4172 114.28L22.7783 118.346C22.7783 118.346 23.5858 117.721 23.7499 117.593L20.9993 112.888ZM27.2336 116.633L23.2823 109.883C23.2035 109.743 23.0267 109.701 22.8882 109.78L20.9397 110.921C20.8001 110.999 20.7575 111.176 20.8363 111.309L24.7824 118.066C24.8612 118.199 25.037 118.248 25.1766 118.168L27.1315 117.027C27.2647 116.949 27.3124 116.773 27.2336 116.633ZM11.8586 113.671C11.5614 113.634 11.2759 113.525 11.0394 113.356L10.25 112.785L7.4395 117.593L8.24064 118.225L8.3802 118.031C8.99915 117.174 10.317 117.345 10.7048 118.31C11.6156 117.43 13.1263 118.207 12.9505 119.464C13.8976 119.409 14.6018 120.337 14.2918 121.242C15.3475 121.273 15.9548 122.492 15.3305 123.36L15.306 123.391L16.7442 123.773C17.394 123.942 18.013 123.53 17.703 122.887L15.7119 121.995C15.3422 121.777 15.6703 121.217 16.04 121.43C16.7559 121.752 17.4665 122.074 18.1824 122.389C18.7704 122.657 19.3777 122.176 19.1721 121.582L16.3616 120.319C15.9909 120.101 16.319 119.541 16.6887 119.755L19.8207 121.162C20.4396 121.441 21.0586 120.901 20.7923 120.3L17.4909 118.516C17.133 118.309 17.4302 117.726 17.8425 117.969L21.5818 119.985C22.383 120.415 23.0446 119.287 22.2743 118.801L16.0826 114.843C15.4029 114.406 14.5048 115.39 14.116 115.815C13.187 116.828 12.4647 116.962 11.2267 116.458C10.7718 116.276 10.1699 115.851 10.595 115.298C11.0147 114.758 11.4335 114.212 11.8586 113.671ZM13.625 122.266C13.413 122.558 13.1999 122.855 12.9879 123.152C12.4595 123.886 13.5706 124.694 14.098 123.96C14.3345 123.631 14.5656 123.304 14.8022 122.976C15.3061 122.272 14.2748 121.356 13.625 122.266ZM11.1246 122.272C10.5419 123.085 11.6945 123.832 12.2112 123.116C12.6725 122.478 13.1274 121.841 13.5898 121.198C14.1182 120.463 13.0071 119.657 12.4733 120.397C12.0227 121.016 11.5795 121.653 11.1246 122.272ZM10.6026 121.878C11.131 121.143 11.6583 120.409 12.1867 119.675C12.7151 118.934 11.604 118.127 11.0756 118.867C10.5536 119.596 10.0316 120.325 9.50315 121.059C8.98753 121.781 10.056 122.588 10.6026 121.878ZM10.0262 119.213L9.44347 120.027C8.91507 120.761 7.80498 119.954 8.33233 119.22L8.90868 118.412C9.44241 117.671 10.5535 118.479 10.0262 119.213ZM3.95585 116.633L7.90712 109.883C7.98595 109.744 8.16174 109.701 8.30129 109.78L10.2498 110.921C10.3894 111 10.432 111.177 10.3531 111.31L6.40704 118.066C6.32821 118.199 6.15243 118.248 6.01287 118.168L4.05796 117.027C3.92479 116.949 3.87701 116.773 3.95585 116.633ZM51.1813 117.463H45.3422C44.9235 117.463 44.9235 118.094 45.3422 118.094H51.1813C51.5947 118.094 51.5947 117.463 51.1813 117.463ZM55.3276 118.852C58.2722 118.852 60.6564 116.461 60.6564 113.523C60.6564 110.579 58.2711 108.194 55.3276 108.194C55.1454 108.194 54.9696 108.199 54.7992 108.218V105.784C54.7992 105.614 54.8418 105.432 54.7075 105.299L49.4755 100.194C49.3786 100.097 49.287 100.103 49.1719 100.103H39.7331C38.8222 100.103 38.0754 100.849 38.0754 101.76V102.19H37.645C36.7342 102.19 35.9884 102.936 35.9884 103.847V123.113C35.9884 124.024 36.7353 124.77 37.645 124.77H51.0534C51.9643 124.77 52.71 124.024 52.71 123.113V122.681H53.1351C54.0513 122.681 54.7981 121.935 54.7981 121.025V118.821C54.9696 118.841 55.1454 118.852 55.3276 118.852ZM54.1685 108.315C51.8801 108.824 50.1436 110.798 50.0039 113.207H45.3419C44.9232 113.207 44.9232 113.838 45.3419 113.838H50.0039C50.1435 116.241 51.88 118.214 54.1685 118.725V121.026C54.1685 121.589 53.7072 122.052 53.1372 122.052H39.7352C39.1705 122.052 38.7092 121.59 38.7092 121.026V101.759C38.7092 101.194 39.1705 100.733 39.7352 100.733H48.943L48.9856 104.253C48.9856 104.405 49.0101 104.55 49.0527 104.691H45.3441C44.9255 104.691 44.9255 105.321 45.3441 105.321H49.4053C49.709 105.673 50.1638 105.892 50.6614 105.886L54.1695 105.843L54.1685 108.315ZM43.807 112.255L42.0045 114.052L41.4526 113.098C41.2459 112.734 40.6941 113.05 40.9061 113.414L41.6646 114.724C41.7743 114.913 42.0226 114.924 42.1685 114.785L44.2513 112.698C44.5474 112.406 44.0989 111.956 43.807 112.255ZM51.1813 108.946H45.3422C44.9235 108.946 44.9235 109.583 45.3422 109.583H51.1813C51.5947 109.584 51.5947 108.946 51.1813 108.946ZM52.0794 122.682H39.733C38.8222 122.682 38.0754 121.936 38.0754 121.025V102.822H37.645C37.0803 102.822 36.6191 103.283 36.6191 103.848V123.114C36.6191 123.678 37.0803 124.139 37.645 124.139H51.0533C51.618 124.139 52.0793 123.678 52.0793 123.114L52.0794 122.682ZM53.7189 105.219L50.654 105.255C50.0894 105.262 49.6228 104.807 49.6164 104.248L49.5791 101.177L53.7189 105.219ZM41.3066 103.726H43.7462C43.9465 103.726 44.1105 103.884 44.1105 104.084V105.936C44.1105 106.13 43.9465 106.294 43.7462 106.294H41.3066C41.1116 106.294 40.9486 106.13 40.9486 105.936V104.084C40.9486 103.884 41.1116 103.726 41.3066 103.726ZM41.5793 104.357H43.4724V105.662H41.5793V104.357ZM41.3066 107.981H43.7462C43.9465 107.981 44.1105 108.139 44.1105 108.339V110.191C44.1105 110.391 43.9465 110.549 43.7462 110.549H41.3066C41.1116 110.549 40.9486 110.391 40.9486 110.191V108.339C40.9486 108.139 41.1116 107.981 41.3066 107.981ZM41.5793 108.613H43.4724V109.918H41.5793V108.613ZM55.1933 113.796H54.1674C53.2693 113.796 52.5342 114.53 52.5342 115.429V116.388C52.5342 116.557 52.6802 116.703 52.8559 116.703H57.797C57.9727 116.703 58.1123 116.558 58.1123 116.388V115.429C58.1123 114.531 57.3783 113.796 56.4791 113.796H55.4596L55.8974 113.638C56.5707 113.395 57.0256 112.752 57.0256 112.035C57.0256 111.101 56.2607 110.336 55.3264 110.336C54.3857 110.336 53.6272 111.102 53.6272 112.035C53.6272 112.752 54.0757 113.394 54.75 113.638L55.1933 113.796ZM41.3066 116.491H43.7462C43.9465 116.491 44.1105 116.655 44.1105 116.849V118.7C44.1105 118.9 43.9465 119.058 43.7462 119.058H41.3066C41.1116 119.058 40.9486 118.9 40.9486 118.7V116.849C40.9486 116.655 41.1116 116.491 41.3066 116.491ZM41.5793 117.122H43.4724V118.427H41.5793V117.122ZM57.4826 116.072H53.1721V115.429C53.1721 114.876 53.6206 114.428 54.1671 114.428H56.48C57.0318 114.428 57.4814 114.876 57.4814 115.429L57.4826 116.072ZM55.3274 110.967C55.9155 110.967 56.396 111.447 56.396 112.035C56.396 112.624 55.9165 113.104 55.3274 113.104C54.7383 113.104 54.2589 112.624 54.2589 112.035C54.2589 111.447 54.7383 110.967 55.3274 110.967ZM55.3274 108.824C57.9194 108.824 60.0257 110.925 60.0257 113.523C60.0257 116.115 57.9195 118.215 55.3274 118.215C52.7301 118.215 50.6291 116.115 50.6291 113.523C50.6291 110.925 52.7289 108.824 55.3274 108.824ZM71.8241 114.457L74.1913 116.825C74.5248 117.158 74.9435 116.685 74.659 116.4L72.2737 114.014C71.4843 113.225 72.6626 111.944 73.4999 112.788C74.8348 114.129 76.3709 115.531 77.6399 116.904C78.7266 118.081 78.5018 119.216 78.5316 121.037H73.4872V119.386C73.4872 119.216 73.3786 119.149 73.2688 119.059C72.2557 118.233 70.5372 116.624 70.4041 115.271L70.3743 108.231C70.3743 107.083 72.1097 107.083 72.1097 108.231V112.115C71.2958 112.606 71.1253 113.76 71.8241 114.457ZM90.2758 114.457L87.915 116.818C87.5805 117.153 87.1501 116.69 87.442 116.4L89.8273 114.014C90.6156 113.225 89.4448 111.944 88.6011 112.788C87.2662 114.129 85.7301 115.531 84.4676 116.903C83.381 118.081 83.5993 119.216 83.5684 121.037H88.6194V119.386C88.6194 119.216 88.7227 119.149 88.8378 119.059C89.8456 118.233 91.5629 116.624 91.697 115.271L91.7269 108.231C91.7269 107.083 89.9903 107.083 89.9903 108.231V112.115C90.8043 112.606 90.9746 113.76 90.2758 114.457ZM80.2061 109.285C78.9554 108.793 78.0818 107.598 77.5236 106.42C76.5041 106.008 75.4473 104.363 75.0712 103.361C74.6941 102.371 74.677 101.23 76.0119 101.23H76.8492V100.416C76.8492 100.24 76.9888 100.101 77.1646 100.101H84.934C85.1098 100.101 85.2494 100.24 85.2494 100.416V101.23H86.0867C87.4226 101.23 87.4035 102.371 87.0274 103.361C86.6396 104.393 85.5828 106.013 84.576 106.42C84.0178 107.598 83.1432 108.794 81.8925 109.285C82.1354 109.898 82.6148 110.336 83.2465 110.524C83.4351 110.579 83.5736 110.785 83.5736 110.992V112.394H84.1563C84.7081 112.394 85.1641 112.849 85.1641 113.407V114.476C85.1641 114.651 85.0245 114.791 84.8488 114.791H77.2487C77.0729 114.791 76.9333 114.651 76.9333 114.476V113.407C76.9333 112.849 77.3893 112.394 77.9412 112.394H78.5303V110.992C78.5303 110.785 78.6635 110.579 78.8521 110.524C79.4902 110.336 79.9632 109.899 80.2061 109.285ZM84.6189 100.734H77.48V103.38C77.48 104.461 77.7111 105.396 78.1969 106.356C79.8301 109.596 82.2698 109.596 83.9029 106.356C84.3887 105.396 84.6199 104.461 84.6199 103.38L84.6189 100.734ZM81.8692 103.07L82.6767 103.106C83.1316 103.124 83.4171 103.628 83.0347 103.956L82.4093 104.606L82.5489 105.511C82.6767 106.02 82.1302 106.24 81.7478 105.978L81.05 105.505L80.3521 105.978C79.975 106.233 79.4232 106.021 79.551 105.517L79.6959 104.606L79.0705 103.963C78.6828 103.628 78.9619 103.126 79.4232 103.106L80.236 103.07L80.6249 102.251C80.789 101.893 81.311 101.893 81.4751 102.251L81.8692 103.07ZM81.8756 105.304L81.7361 104.388L82.3795 103.725L81.4569 103.689L81.05 102.822L80.6441 103.69L79.7215 103.726L80.365 104.389L80.2254 105.305L81.051 104.741L81.8756 105.304ZM81.2748 109.438C81.099 109.456 81.002 109.456 80.8263 109.438C80.6686 109.881 80.4747 110.159 80.1466 110.493H81.9555C81.6327 110.16 81.4324 109.881 81.2748 109.438ZM82.9378 112.394V111.125H79.1621V112.394H82.9378ZM84.5337 114.16V113.407C84.5337 113.2 84.3643 113.025 84.1576 113.025H77.9424C77.7358 113.025 77.5664 113.2 77.5664 113.407V114.16H84.5337ZM84.9769 105.377C85.6502 104.661 86.2936 103.768 86.5493 102.803C86.6824 102.287 86.7315 101.867 86.088 101.867H85.2506V103.355C85.2506 104.084 85.1654 104.679 84.9769 105.377ZM77.1231 105.377C76.9345 104.679 76.8504 104.083 76.8504 103.356V101.868H76.013C75.3749 101.868 75.4175 102.287 75.5518 102.804C75.8 103.75 76.4615 104.673 77.1231 105.377ZM82.9017 121.037C82.8836 119.083 82.6897 117.717 84.0363 116.383C85.402 115.035 86.7922 113.706 88.158 112.34C88.4851 112.013 88.9282 111.866 89.3597 111.909V108.231C89.3597 106.245 92.3586 106.245 92.3586 108.231L92.3405 115.332C92.1828 116.905 90.4282 118.592 89.2562 119.551V121.037C89.5471 121.037 89.791 121.28 89.791 121.572V124.237C89.791 124.529 89.5481 124.771 89.2562 124.771H82.9069C82.616 124.771 82.3731 124.529 82.3731 124.237V121.572C82.3731 121.28 82.6096 121.044 82.9015 121.037L82.9017 121.037ZM89.1594 121.675H83.005V124.139H89.1594V121.675ZM79.1986 121.037C79.2167 119.083 79.4106 117.717 78.064 116.383C76.6982 115.035 75.3081 113.706 73.9433 112.34C73.6152 112.013 73.172 111.866 72.7417 111.909V108.231C72.7417 106.245 69.749 106.245 69.7427 108.231L69.7609 115.332C69.9185 116.905 71.6731 118.592 72.8451 119.551V121.037C72.5543 121.037 72.3103 121.28 72.3103 121.572V124.237C72.3103 124.529 72.5532 124.771 72.8451 124.771H79.1934C79.4842 124.771 79.7282 124.529 79.7282 124.237V121.572C79.7271 121.28 79.4906 121.044 79.1987 121.037L79.1986 121.037ZM72.9471 121.675H79.0963V124.139H72.9471V121.675ZM111.208 110.536C111.19 110.585 111.165 110.633 111.147 110.682L111.354 110.943C111.5 111.125 111.518 111.392 111.342 111.562L110.875 112.03C110.699 112.205 110.438 112.194 110.249 112.042L109.995 111.836C109.946 111.86 109.898 111.878 109.842 111.896L109.812 112.223C109.788 112.46 109.606 112.66 109.364 112.66H108.702C108.454 112.66 108.277 112.46 108.253 112.223L108.217 111.896C108.168 111.878 108.12 111.86 108.072 111.836L107.811 112.042C107.628 112.194 107.362 112.206 107.192 112.03L106.718 111.562C106.548 111.392 106.56 111.124 106.712 110.943L106.919 110.682C106.894 110.633 106.876 110.585 106.858 110.536L106.524 110.5C106.293 110.475 106.093 110.299 106.093 110.05V109.389C106.093 109.14 106.294 108.964 106.524 108.94L106.858 108.903C106.875 108.854 106.894 108.806 106.919 108.758L106.712 108.497C106.56 108.315 106.548 108.047 106.718 107.878L107.192 107.41C107.361 107.235 107.629 107.246 107.811 107.399L108.072 107.605C108.121 107.581 108.169 107.563 108.217 107.545L108.253 107.216C108.277 106.98 108.453 106.78 108.702 106.78H109.364C109.607 106.78 109.789 106.98 109.812 107.216L109.842 107.545C109.897 107.563 109.946 107.581 109.995 107.605L110.249 107.399C110.438 107.247 110.699 107.235 110.875 107.41L111.342 107.878C111.518 108.047 111.5 108.315 111.354 108.497L111.147 108.758C111.165 108.806 111.19 108.855 111.208 108.903L111.536 108.94C111.773 108.965 111.967 109.14 111.967 109.389V110.05C111.967 110.299 111.773 110.475 111.536 110.5L111.208 110.536ZM119.888 120.806V123.07H105.109V105.078H119.888V111.566C118.577 111.463 117.236 111.906 116.235 112.908C115.973 113.176 115.749 113.46 115.561 113.765H107.179C106.772 113.765 106.772 114.384 107.179 114.384H115.246C114.936 115.113 114.827 115.896 114.906 116.672H107.179C106.772 116.672 106.772 117.285 107.179 117.285H115.014C115.208 118.086 115.615 118.839 116.235 119.463C116.278 119.5 116.314 119.537 116.35 119.573H107.179C106.772 119.573 106.772 120.192 107.179 120.192H117.182C118.007 120.674 118.954 120.879 119.888 120.806ZM121.589 120.333V123.197C121.589 124.066 120.885 124.77 120.023 124.77H104.975C104.113 124.77 103.409 124.066 103.409 123.197V104.951C103.409 104.09 104.113 103.379 104.975 103.379H108.404V102.834C108.404 102.554 108.635 102.324 108.913 102.324H109.952C110.121 101.067 111.196 100.103 112.495 100.103C113.8 100.103 114.875 101.067 115.044 102.324H116.082C116.361 102.324 116.591 102.554 116.591 102.834V103.379H120.02C120.882 103.379 121.586 104.09 121.586 104.951V112.041C122.024 112.26 122.43 112.545 122.788 112.91C124.597 114.719 124.597 117.656 122.788 119.465C122.431 119.824 122.025 120.114 121.589 120.333ZM120.975 120.588C120.83 120.637 120.684 120.674 120.532 120.71V123.387C120.532 123.568 120.386 123.714 120.205 123.714H104.792C104.61 123.714 104.465 123.568 104.465 123.387V104.765C104.465 104.589 104.61 104.437 104.792 104.437H108.404V103.999H104.975C104.453 103.999 104.022 104.424 104.022 104.953V123.199C104.022 123.727 104.453 124.152 104.975 124.152H120.023C120.545 124.152 120.975 123.727 120.975 123.199V120.588ZM120.975 111.787V104.952C120.975 104.423 120.545 103.998 120.023 103.998L116.592 103.999V104.437H120.204C120.385 104.437 120.531 104.589 120.531 104.765V111.667C120.683 111.702 120.829 111.738 120.975 111.787ZM112.769 107.963H117.82C118.225 107.963 118.225 108.576 117.82 108.576H112.769C112.362 108.576 112.362 107.963 112.769 107.963ZM112.769 110.864H117.82C118.225 110.864 118.225 111.483 117.82 111.483H112.769C112.362 111.484 112.362 110.864 112.769 110.864ZM116.671 113.341C115.099 114.913 115.099 117.463 116.671 119.029C118.237 120.601 120.788 120.601 122.359 119.029C123.93 117.463 123.93 114.913 122.359 113.341C120.786 111.775 118.238 111.775 116.671 113.341ZM112.496 100.722C111.434 100.722 110.572 101.566 110.547 102.621C110.541 102.797 110.42 102.943 110.237 102.943H109.017V104.437H115.978V102.943H114.758C114.588 102.943 114.448 102.798 114.448 102.628C114.426 101.571 113.564 100.722 112.496 100.722ZM121.934 114.658L119.117 118.112C118.984 118.281 118.735 118.245 118.601 118.087L117.09 116.29C116.829 115.98 117.302 115.586 117.563 115.896L118.868 117.449L121.46 114.262C121.715 113.947 122.195 114.342 121.934 114.658ZM107.269 111.234L107.517 111.483L107.833 111.227C107.936 111.148 108.069 111.136 108.179 111.197C108.307 111.27 108.453 111.331 108.598 111.367C108.713 111.403 108.798 111.506 108.81 111.628L108.852 112.041H109.204L109.253 111.628C109.266 111.5 109.35 111.403 109.471 111.367C109.617 111.324 109.757 111.27 109.89 111.191C109.993 111.137 110.126 111.148 110.224 111.227L110.546 111.483L110.794 111.234L110.533 110.912C110.455 110.815 110.448 110.681 110.504 110.572C110.582 110.439 110.637 110.299 110.679 110.153C110.716 110.038 110.819 109.953 110.94 109.941L111.346 109.899V109.547L110.94 109.499C110.812 109.486 110.716 109.402 110.673 109.28C110.637 109.135 110.576 108.995 110.504 108.862C110.449 108.752 110.461 108.619 110.533 108.528L110.794 108.206L110.546 107.958L110.224 108.212C110.127 108.291 109.993 108.304 109.885 108.243C109.751 108.17 109.611 108.115 109.466 108.074C109.35 108.038 109.266 107.934 109.246 107.813L109.204 107.406H108.852L108.81 107.813C108.797 107.94 108.706 108.037 108.591 108.074C108.445 108.116 108.306 108.171 108.173 108.25C108.064 108.304 107.93 108.292 107.838 108.22L107.516 107.959L107.268 108.207L107.523 108.529C107.602 108.626 107.614 108.76 107.552 108.869C107.479 109.002 107.419 109.142 107.383 109.287C107.347 109.402 107.244 109.488 107.122 109.5L106.709 109.548V109.9L107.122 109.942C107.244 109.954 107.347 110.039 107.383 110.161C107.426 110.307 107.48 110.446 107.559 110.58C107.614 110.688 107.602 110.822 107.523 110.914L107.269 111.234ZM110.383 109.723C110.383 110.463 109.776 111.071 109.029 111.071C108.288 111.071 107.681 110.463 107.681 109.723C107.681 108.976 108.289 108.369 109.029 108.369C109.776 108.369 110.383 108.976 110.383 109.723ZM108.301 109.723C108.301 110.124 108.629 110.452 109.03 110.452C109.437 110.452 109.759 110.125 109.759 109.723C109.759 109.317 109.437 108.988 109.03 108.988C108.629 108.988 108.301 109.317 108.301 109.723Z" fill="#374151"/>
</g>
<defs>
<clipPath id="clip0_1_15974">
<rect width="30" height="30" fill="white" transform="translate(0.589844)"/>
</clipPath>
</defs>
</svg>
