<svg width="31" height="31" viewBox="0 0 31 31" fill="none" xmlns="http://www.w3.org/2000/svg">
<path opacity="0.4" d="M12.0098 3.42773C8.73477 3.42773 6.07227 6.09023 6.07227 9.36523C6.07227 12.5777 8.58477 15.1777 11.8598 15.2902C11.9598 15.2777 12.0598 15.2777 12.1348 15.2902C12.1598 15.2902 12.1723 15.2902 12.1973 15.2902C12.2098 15.2902 12.2098 15.2902 12.2223 15.2902C15.4223 15.1777 17.9348 12.5777 17.9473 9.36523C17.9473 6.09023 15.2848 3.42773 12.0098 3.42773Z" fill="#C42A25"/>
<path d="M18.359 18.6148C14.8715 16.2898 9.18398 16.2898 5.67148 18.6148C4.08398 19.6773 3.20898 21.1148 3.20898 22.6523C3.20898 24.1898 4.08398 25.6148 5.65898 26.6648C7.40898 27.8398 9.70898 28.4273 12.009 28.4273C14.309 28.4273 16.609 27.8398 18.359 26.6648C19.934 25.6023 20.809 24.1773 20.809 22.6273C20.7965 21.0898 19.934 19.6648 18.359 18.6148Z" fill="#C42A25"/>
<path opacity="0.4" d="M25.7465 10.1024C25.9465 12.5274 24.2215 14.6524 21.834 14.9399C21.8215 14.9399 21.8215 14.9399 21.809 14.9399H21.7715C21.6965 14.9399 21.6215 14.9399 21.559 14.9649C20.3465 15.0274 19.234 14.6399 18.3965 13.9274C19.684 12.7774 20.4215 11.0524 20.2715 9.17737C20.184 8.16487 19.834 7.23987 19.309 6.45237C19.784 6.21487 20.334 6.06487 20.8965 6.01487C23.3465 5.80237 25.534 7.62737 25.7465 10.1024Z" fill="#C42A25"/>
<path d="M28.248 21.6648C28.148 22.8773 27.373 23.9273 26.073 24.6398C24.823 25.3273 23.248 25.6523 21.6855 25.6148C22.5855 24.8023 23.1105 23.7898 23.2105 22.7148C23.3355 21.1648 22.598 19.6773 21.123 18.4898C20.2855 17.8273 19.3105 17.3023 18.248 16.9148C21.0105 16.1148 24.4855 16.6523 26.623 18.3773C27.773 19.3023 28.3605 20.4648 28.248 21.6648Z" fill="#C42A25"/>
</svg>
