<svg width="35" height="35" viewBox="0 0 35 35" fill="none" xmlns="http://www.w3.org/2000/svg">
<circle cx="17.5" cy="17.5" r="17.5" fill="url(#paint0_linear_1_16992)"/>
<rect x="9" y="11" width="18" height="15" rx="2" fill="white"/>
<path d="M9 15C9 13.1144 9 12.1716 9.58579 11.5858C10.1716 11 11.1144 11 13 11H23C24.8856 11 25.8284 11 26.4142 11.5858C27 12.1716 27 13.1144 27 15H9Z" fill="#B44400"/>
<path d="M13 8L13 11" stroke="white" stroke-linecap="round"/>
<path d="M23 8L23 11" stroke="white" stroke-linecap="round"/>
<rect x="13" y="17" width="4" height="2" rx="0.5" fill="#8A5536"/>
<rect x="19" y="17" width="4" height="2" rx="0.5" fill="#8A5536"/>
<rect x="19" y="21" width="4" height="2" rx="0.5" fill="#8A5536"/>
<defs>
<linearGradient id="paint0_linear_1_16992" x1="17.5" y1="0" x2="17.5" y2="35" gradientUnits="userSpaceOnUse">
<stop stop-color="#FFAAA7"/>
<stop offset="1" stop-color="#E06460"/>
</linearGradient>
</defs>
</svg>
