<svg width="13" height="13" viewBox="0 0 13 13" fill="none" xmlns="http://www.w3.org/2000/svg">
<path d="M0.526303 11.3273C0.209982 11.6436 0.209982 12.1564 0.526303 12.4728C0.842625 12.7891 1.35549 12.7891 1.67182 12.4728L0.526303 11.3273ZM7.07178 7.07276C7.38812 6.75643 7.38812 6.24364 7.07178 5.92731C6.75545 5.61098 6.24267 5.61098 5.92634 5.92731L7.07178 7.07276ZM5.92634 5.92731C5.61 6.24364 5.61 6.75643 5.92634 7.07276C6.24267 7.38909 6.75545 7.38909 7.07178 7.07276L5.92634 5.92731ZM12.4718 1.67279C12.7881 1.35647 12.7881 0.843601 12.4718 0.52728C12.1555 0.210959 11.6427 0.210959 11.3263 0.52728L12.4718 1.67279ZM7.07178 5.92731C6.75545 5.61098 6.24267 5.61098 5.92634 5.92731C5.61 6.24364 5.61 6.75643 5.92634 7.07276L7.07178 5.92731ZM11.3263 12.4728C11.6427 12.7891 12.1555 12.7891 12.4718 12.4728C12.7881 12.1564 12.7881 11.6436 12.4718 11.3273L11.3263 12.4728ZM5.92634 7.07276C6.24267 7.38909 6.75545 7.38909 7.07178 7.07276C7.38812 6.75643 7.38812 6.24364 7.07178 5.92731L5.92634 7.07276ZM1.67182 0.52728C1.35549 0.210959 0.842625 0.210959 0.526303 0.52728C0.209982 0.843601 0.209982 1.35647 0.526303 1.67279L1.67182 0.52728ZM1.67182 12.4728L7.07178 7.07276L5.92634 5.92731L0.526303 11.3273L1.67182 12.4728ZM7.07178 7.07276L12.4718 1.67279L11.3263 0.52728L5.92634 5.92731L7.07178 7.07276ZM5.92634 7.07276L11.3263 12.4728L12.4718 11.3273L7.07178 5.92731L5.92634 7.07276ZM7.07178 5.92731L1.67182 0.52728L0.526303 1.67279L5.92634 7.07276L7.07178 5.92731Z" fill="#C42A25"/>
</svg>
