<svg width="16" height="16" viewBox="0 0 16 16" fill="none" xmlns="http://www.w3.org/2000/svg">
<g clip-path="url(#clip0_1_18702)">
<path d="M13.333 1.33301H2.66634C1.93301 1.33301 1.33301 1.93301 1.33301 2.66634V14.6663L3.99967 11.9997H13.333C14.0663 11.9997 14.6663 11.3997 14.6663 10.6663V2.66634C14.6663 1.93301 14.0663 1.33301 13.333 1.33301ZM12.6663 10.6663H3.99967L2.66634 11.9997V3.33301C2.66634 2.96634 2.96634 2.66634 3.33301 2.66634H12.6663C13.033 2.66634 13.333 2.96634 13.333 3.33301V9.99967C13.333 10.3663 13.033 10.6663 12.6663 10.6663Z" fill="black"/>
<path d="M5.33301 8.28459V9.18521C5.33301 9.26816 5.39818 9.33333 5.48114 9.33333H6.38175C6.42026 9.33333 6.45878 9.31852 6.48544 9.2889L9.72055 6.05675L8.60959 4.94579L5.37745 8.17794C5.34782 8.20756 5.33301 8.24311 5.33301 8.28459ZM10.5797 5.19761C10.6952 5.08207 10.6952 4.89543 10.5797 4.77989L9.88645 4.08665C9.77091 3.97112 9.58427 3.97112 9.46873 4.08665L8.92658 4.6288L10.0375 5.73976L10.5797 5.19761Z" fill="black"/>
</g>
<defs>
<clipPath id="clip0_1_18702">
<rect width="16" height="16" fill="white"/>
</clipPath>
</defs>
</svg>
