<svg width="16" height="15" viewBox="0 0 16 15" fill="none" xmlns="http://www.w3.org/2000/svg">
<path d="M8.10177 0.421364L7.46372 1.08316C7.38738 1.16036 7.3492 1.25412 7.3492 1.36442C7.3492 1.47472 7.38738 1.56847 7.46372 1.64568L12.5354 6.77456H1.36139C1.25233 6.77456 1.15962 6.81317 1.08327 6.89038C1.00692 6.96759 0.96875 7.06134 0.96875 7.17164V8.09815C0.96875 8.20844 1.00692 8.3022 1.08327 8.37941C1.15962 8.45662 1.25233 8.49522 1.36139 8.49522H12.5354L7.46372 13.6241C7.38738 13.7013 7.3492 13.7951 7.3492 13.9054C7.3492 14.0157 7.38738 14.1094 7.46372 14.1866L8.10177 14.8484C8.17812 14.9256 8.27082 14.9642 8.37989 14.9642C8.48896 14.9642 8.58167 14.9256 8.65801 14.8484L15.5129 7.91615C15.5893 7.83894 15.6274 7.74519 15.6274 7.63489C15.6274 7.52459 15.5893 7.43084 15.5129 7.35363L8.65801 0.421364C8.58167 0.344154 8.48896 0.305551 8.37989 0.305551C8.27082 0.305551 8.17812 0.344154 8.10177 0.421364Z" fill="#C42A25"/>
</svg>
