<svg width="11" height="10" viewBox="0 0 11 10" fill="none" xmlns="http://www.w3.org/2000/svg">
<path d="M5.70139 0.44458C4.71592 0.44458 3.75258 0.720614 2.93318 1.23778C2.11379 1.75494 1.47516 2.49 1.09803 3.35001C0.720909 4.21002 0.622236 5.15635 0.814492 6.06933C1.00675 6.98231 1.4813 7.82093 2.17813 8.47916C2.87497 9.13738 3.76279 9.58563 4.72933 9.76724C5.69586 9.94884 6.6977 9.85563 7.60816 9.49941C8.51862 9.14318 9.2968 8.53993 9.8443 7.76594C10.3918 6.99195 10.684 6.08199 10.684 5.15113C10.6826 3.90328 10.1572 2.70691 9.22311 1.82455C8.28898 0.942188 7.02244 0.445898 5.70139 0.44458ZM5.70139 9.13359C4.86753 9.13359 4.05239 8.90002 3.35906 8.46242C2.66573 8.02482 2.12535 7.40285 1.80624 6.67515C1.48714 5.94745 1.40364 5.14671 1.56632 4.37419C1.729 3.60166 2.13054 2.89206 2.72017 2.3351C3.3098 1.77814 4.06103 1.39885 4.87887 1.24519C5.69671 1.09152 6.54443 1.17039 7.31481 1.47181C8.0852 1.77323 8.74366 2.28368 9.20693 2.93859C9.6702 3.5935 9.91747 4.36347 9.91747 5.15113C9.9162 6.20697 9.4716 7.21923 8.68121 7.96583C7.89081 8.71243 6.81917 9.13239 5.70139 9.13359ZM7.88896 4.89498C7.9246 4.9286 7.95287 4.96853 7.97215 5.01249C7.99144 5.05644 8.00137 5.10355 8.00137 5.15113C8.00137 5.1987 7.99144 5.24581 7.97215 5.28977C7.95287 5.33372 7.9246 5.37365 7.88896 5.40727L6.35584 6.85544C6.28392 6.92337 6.18638 6.96154 6.08467 6.96154C5.98296 6.96154 5.88542 6.92337 5.8135 6.85544C5.74158 6.7875 5.70118 6.69537 5.70118 6.59929C5.70118 6.50322 5.74158 6.41108 5.8135 6.34315L6.69265 5.51317H3.78499C3.68334 5.51317 3.58585 5.47502 3.51397 5.40713C3.44209 5.33923 3.40171 5.24714 3.40171 5.15113C3.40171 5.05511 3.44209 4.96302 3.51397 4.89512C3.58585 4.82723 3.68334 4.78908 3.78499 4.78908H6.69265L5.8135 3.9591C5.74158 3.89117 5.70118 3.79903 5.70118 3.70296C5.70118 3.60688 5.74158 3.51475 5.8135 3.44681C5.88542 3.37888 5.98296 3.34071 6.08467 3.34071C6.18638 3.34071 6.28392 3.37888 6.35584 3.44681L7.88896 4.89498Z" fill="#C42A25"/>
</svg>
