<svg width="38" height="38" viewBox="0 0 38 38" fill="none" xmlns="http://www.w3.org/2000/svg">
<path d="M19.034 3.81905C19.9435 3.81905 20.8097 4.17998 21.4305 4.84408L33.3843 17.3176C34.2794 18.2415 34.3516 19.1078 34.135 19.5842C33.8752 20.1328 33.3266 20.4793 32.7202 20.4648H30.2948V30.6284C30.2948 32.6496 28.8511 34.281 27.0754 34.281H10.9782C9.21688 34.281 7.77319 32.6352 7.77319 30.6284V20.4937L5.98301 20.4504H5.31891C4.71256 20.4504 4.17839 20.1039 3.91853 19.5553C3.71641 19.0933 3.7886 18.2415 4.68369 17.3176L16.6375 4.85851C17.2583 4.20885 18.1245 3.83349 19.034 3.81905ZM19.034 2C17.6336 2 16.291 2.57748 15.3237 3.58806L3.36993 16.0616C1.85405 17.6208 1.7963 19.281 2.24384 20.3205C2.76357 21.5043 3.93297 22.2695 5.21785 22.2839H5.9397V30.614C5.9397 33.6602 8.19186 36.1 10.9782 36.1H27.0754C29.8473 36.1 32.1139 33.6602 32.1139 30.614V22.2839H32.8213C34.1206 22.2695 35.29 21.4899 35.8097 20.306C36.2717 19.2954 36.2139 17.6352 34.6981 16.0471L22.7443 3.6025C21.7914 2.57748 20.4344 2 19.034 2Z" fill="white"/>
<path d="M16.6954 13.0731C17.3306 13.6506 18.1391 13.9827 18.9909 13.9971C19.8715 14.026 20.7233 13.6939 21.3586 13.0731C21.9072 13.2897 22.398 13.6073 22.8456 13.9827C22.6579 14.8489 22.8167 15.744 23.2787 16.4947C23.6973 17.2598 24.3903 17.8229 25.2277 18.0972C25.271 18.4004 25.2998 18.7468 25.3287 19.1078C25.3287 19.4254 25.2998 19.743 25.2565 20.0606C24.4625 20.3349 23.784 20.8835 23.3508 21.6198C22.9177 22.385 22.7734 23.2656 22.9611 24.1318C22.4991 24.4927 21.9938 24.7959 21.474 25.0413C20.8388 24.4494 20.0159 24.1174 19.1641 24.1029C18.2835 24.0885 17.4317 24.435 16.782 25.0413C16.219 24.8248 15.6848 24.5072 15.2229 24.1174C15.5838 22.3561 14.5732 20.5948 12.8696 20.0029C12.7686 19.3676 12.7686 18.718 12.8696 18.0972C14.5588 17.5197 15.5549 15.7728 15.1651 14.026C15.6415 13.665 16.1757 13.3474 16.7243 13.102H16.6954V13.0731ZM16.8398 11.7882C16.7387 11.7882 16.6521 11.8027 16.5655 11.846C15.6993 12.1925 14.8908 12.6545 14.169 13.2464C13.9235 13.4196 13.8225 13.7372 13.9235 14.026C14.1112 14.6612 14.0246 15.3397 13.707 15.9172C13.3749 16.4514 12.8552 16.8267 12.2488 16.9855C12.2055 16.9855 12.2055 16.9855 12.1767 17.0289C11.9601 17.1443 11.8013 17.332 11.7147 17.563V17.6063C11.6136 18.0827 11.5703 18.5736 11.5703 19.0645C11.5703 19.5409 11.6281 20.0317 11.7436 20.4937C11.7724 20.7969 11.989 21.0423 12.2777 21.1001H12.321C13.577 21.4177 14.3278 22.6881 14.0246 23.9441C14.0102 23.973 14.0102 24.0019 13.9957 24.0308C13.8802 24.3051 13.9668 24.6227 14.1834 24.8104C14.8764 25.4745 15.7137 25.9653 16.6232 26.2685C16.6521 26.2685 16.6954 26.3118 16.7676 26.3118H16.8831C17.0997 26.3118 17.3018 26.2107 17.4461 26.0664C17.8648 25.59 18.4856 25.3156 19.1208 25.3156C19.7561 25.3445 20.3624 25.6188 20.7955 26.0952C20.9254 26.2396 21.0987 26.3262 21.3008 26.3407C21.3874 26.3407 21.474 26.3407 21.5462 26.2974C22.4124 25.9509 23.2209 25.46 23.9283 24.8681C24.1882 24.6949 24.2893 24.3772 24.1738 24.0885C23.784 22.8758 24.4481 21.562 25.6752 21.1722C25.7329 21.1578 25.7907 21.1434 25.8484 21.1289C25.8917 21.1289 25.8917 21.1289 25.9206 21.0856C26.1372 20.9701 26.3104 20.7825 26.3826 20.5515V20.5082C26.4837 20.0317 26.527 19.5409 26.527 19.05C26.4981 18.5592 26.4404 18.0683 26.3393 17.5919C26.3104 17.2887 26.0939 17.0433 25.8051 16.9855H25.7763C24.5202 16.6824 23.7551 15.4119 24.0727 14.1703C24.0871 14.127 24.0871 14.0982 24.1016 14.0548C24.2171 13.7805 24.1449 13.4774 23.9283 13.2752C23.2354 12.6111 22.398 12.1203 21.4885 11.8171C21.4163 11.7738 21.3297 11.7449 21.2431 11.7449C21.0265 11.7594 20.8388 11.846 20.6945 12.0048C20.2758 12.4957 19.655 12.7844 19.0198 12.7555C18.3845 12.7266 17.7782 12.4523 17.3451 11.9759C17.2152 11.8316 17.0275 11.7449 16.8398 11.7449V11.7882Z" fill="white"/>
<path d="M18.991 17.7362C19.5252 17.7218 20.0016 18.0394 20.2037 18.5302C20.478 19.1799 20.1748 19.9306 19.5107 20.2049C19.1931 20.3348 18.8322 20.3348 18.5146 20.2049C18.0237 20.0028 17.7061 19.5119 17.7206 18.9922C17.7206 18.2992 18.2692 17.7218 18.9766 17.7073C18.991 17.7073 18.991 17.7073 19.0054 17.7073L18.991 17.7362ZM18.991 16.5235C17.5906 16.4946 16.4357 17.6063 16.4068 18.9922C16.3779 20.3926 17.4896 21.5476 18.8755 21.5764C20.2759 21.6053 21.4309 20.4937 21.4597 19.1077C21.4742 18.4292 21.2143 17.7651 20.7379 17.2742C20.2903 16.8122 19.6551 16.5379 18.991 16.5235Z" fill="white"/>
</svg>
