<svg width="30" height="31" viewBox="0 0 30 31" fill="none" xmlns="http://www.w3.org/2000/svg">
<g clip-path="url(#clip0_1_15925)">
<path d="M28.9256 19.5322H28.125V17.4205C28.131 16.6203 27.8194 15.8504 27.2585 15.2796C26.6975 14.7089 25.9332 14.3839 25.133 14.376H7.5V7.65738H9.84375C9.915 7.65738 9.98532 7.64114 10.0493 7.60988C10.1134 7.57863 10.1694 7.53319 10.2133 7.47701C10.2571 7.42084 10.2876 7.35541 10.3023 7.28571C10.3171 7.216 10.3158 7.14384 10.2984 7.07473L9.04688 2.07457C9.02154 1.97344 8.96321 1.88364 8.88112 1.81937C8.79903 1.75511 8.69785 1.72004 8.59359 1.71973H5.46891C5.36433 1.71962 5.26272 1.7545 5.18024 1.8188C5.09777 1.88309 5.03916 1.97313 5.01375 2.07457L3.76406 7.07473C3.74675 7.14384 3.74542 7.216 3.76017 7.28571C3.77493 7.35541 3.80538 7.42084 3.84922 7.47701C3.89305 7.53319 3.94912 7.57863 4.01315 7.60988C4.07718 7.64114 4.1475 7.65738 4.21875 7.65738H6.5625V14.376H4.39828C3.59809 14.3839 2.8337 14.7089 2.27279 15.2796C1.71189 15.8504 1.40025 16.6203 1.40625 17.4205V19.5322H1.07438C0.789509 19.5325 0.516382 19.6457 0.314951 19.8472C0.113521 20.0486 0.000248249 20.3217 0 20.6066L0 26.5635C0 26.6878 0.049386 26.807 0.137294 26.8949C0.225201 26.9828 0.34443 27.0322 0.46875 27.0322H1.40625V27.7639C1.40662 28.067 1.52719 28.3576 1.74152 28.572C1.95585 28.7863 2.24643 28.9069 2.54953 28.9072H27.4505C27.7536 28.9069 28.0442 28.7863 28.2585 28.572C28.4728 28.3576 28.5934 28.067 28.5938 27.7639V27.0322H29.5312C29.6556 27.0322 29.7748 26.9828 29.8627 26.8949C29.9506 26.807 30 26.6878 30 26.5635V20.6066C29.9998 20.3217 29.8865 20.0486 29.685 19.8472C29.4836 19.6457 29.2105 19.5325 28.9256 19.5322ZM4.81922 6.71988L5.83453 2.65723H8.22797L9.24328 6.71988H4.81922ZM2.32781 17.4205C2.32369 16.8668 2.53934 16.334 2.92747 15.939C3.31561 15.544 3.84454 15.319 4.39828 15.3135H25.133C25.6867 15.319 26.2156 15.544 26.6038 15.939C26.9919 16.334 27.2076 16.8668 27.2034 17.4205V19.5322H26.8556C26.5708 19.5325 26.2976 19.6457 26.0962 19.8472C25.8948 20.0486 25.7815 20.3217 25.7812 20.6066V21.876H4.21875V20.6066C4.2185 20.3217 4.10523 20.0486 3.9038 19.8472C3.70237 19.6457 3.42924 19.5325 3.14438 19.5322H2.32781V17.4205ZM25.7812 22.8135V26.0947H4.21875V22.8135H25.7812ZM0.9375 26.0947V20.6066C0.9375 20.5703 0.951921 20.5355 0.97759 20.5098C1.00326 20.4841 1.03807 20.4697 1.07438 20.4697H3.14438C3.18068 20.4697 3.21549 20.4841 3.24116 20.5098C3.26683 20.5355 3.28125 20.5703 3.28125 20.6066V26.0947H0.9375ZM27.6562 27.7639C27.6561 27.8185 27.6344 27.8708 27.5958 27.9093C27.5573 27.9479 27.505 27.9696 27.4505 27.9697H2.54953C2.49499 27.9696 2.44272 27.9479 2.40416 27.9093C2.36559 27.8708 2.34387 27.8185 2.34375 27.7639V27.0322H27.6562V27.7639ZM29.0625 26.0947H26.7188V20.6066C26.7188 20.5703 26.7332 20.5355 26.7588 20.5098C26.7845 20.4841 26.8193 20.4697 26.8556 20.4697H28.9256C28.9619 20.4697 28.9967 20.4841 29.0224 20.5098C29.0481 20.5355 29.0625 20.5703 29.0625 20.6066V26.0947Z" fill="#374151"/>
<path d="M7.5 16.251H6.5625V17.1885H7.5V16.251Z" fill="#374151"/>
<path d="M7.5 19.0635H6.5625V20.001H7.5V19.0635Z" fill="#374151"/>
<path d="M23.4375 16.251H22.5V17.1885H23.4375V16.251Z" fill="#374151"/>
<path d="M23.4375 19.0635H22.5V20.001H23.4375V19.0635Z" fill="#374151"/>
<path d="M15.4688 16.251H14.5312V17.1885H15.4688V16.251Z" fill="#374151"/>
<path d="M15.4688 19.0635H14.5312V20.001H15.4688V19.0635Z" fill="#374151"/>
<path d="M12.1875 12.9697H27.6562C27.7806 12.9697 27.8998 12.9203 27.9877 12.8324C28.0756 12.7445 28.125 12.6253 28.125 12.501V2.65723C28.125 2.53291 28.0756 2.41368 27.9877 2.32577C27.8998 2.23786 27.7806 2.18848 27.6562 2.18848H12.1875C12.0632 2.18848 11.944 2.23786 11.856 2.32577C11.7681 2.41368 11.7188 2.53291 11.7188 2.65723V12.501C11.7188 12.6253 11.7681 12.7445 11.856 12.8324C11.944 12.9203 12.0632 12.9697 12.1875 12.9697ZM12.6562 3.12598H27.1875V12.0322H12.6562V3.12598Z" fill="#374151"/>
<path d="M26.25 3.59473H13.5938C13.4694 3.59473 13.3502 3.64411 13.2623 3.73202C13.1744 3.81993 13.125 3.93916 13.125 4.06348V11.0947C13.125 11.219 13.1744 11.3383 13.2623 11.4262C13.3502 11.5141 13.4694 11.5635 13.5938 11.5635H26.25C26.3743 11.5635 26.4935 11.5141 26.5815 11.4262C26.6694 11.3383 26.7188 11.219 26.7188 11.0947V4.06348C26.7188 3.93916 26.6694 3.81993 26.5815 3.73202C26.4935 3.64411 26.3743 3.59473 26.25 3.59473ZM25.7812 10.626H14.0625V4.53223H25.7812V10.626Z" fill="#374151"/>
</g>
<defs>
<clipPath id="clip0_1_15925">
<rect width="30" height="30" fill="white" transform="translate(0 0.313477)"/>
</clipPath>
</defs>
</svg>
