<svg width="24" height="24" viewBox="0 0 24 24" fill="none" xmlns="http://www.w3.org/2000/svg">
<rect x="8" y="7" width="8" height="8" fill="white"/>
<path fill-rule="evenodd" clip-rule="evenodd" d="M18.3939 5.47635L13.1818 3.24257C12.4271 2.91915 11.5729 2.91914 10.8182 3.24256L5.60608 5.47635C5.2384 5.63393 5 5.99547 5 6.39549V11.6484C5 13.5861 5.93579 15.4045 7.51257 16.5308L10.8375 18.9058C11.5329 19.4025 12.4671 19.4025 13.1625 18.9058L16.4874 16.5308C18.0642 15.4045 19 13.5861 19 11.6484V6.39549C19 5.99547 18.7616 5.63393 18.3939 5.47635ZM15.7809 9.36102C16.1259 8.92976 16.056 8.30047 15.6247 7.95546C15.1934 7.61045 14.5641 7.68037 14.2191 8.11163L10.9171 12.2392L9.70711 11.0292C9.31658 10.6387 8.68342 10.6387 8.29289 11.0292C7.90237 11.4197 7.90237 12.0529 8.29289 12.4434L9.89788 14.0484C10.53 14.6806 11.5714 14.6229 12.1298 13.9248L15.7809 9.36102Z" fill="#33AD5D"/>
</svg>
