<svg width="17" height="16" viewBox="0 0 17 16" fill="none" xmlns="http://www.w3.org/2000/svg">
<path d="M5.9488 4.88092L1.1638 5.57467L1.07905 5.59192C0.950752 5.62598 0.833794 5.69348 0.740117 5.78752C0.64644 5.88156 0.579401 5.99879 0.545845 6.12721C0.512289 6.25564 0.513419 6.39067 0.549119 6.51852C0.584819 6.64637 0.65381 6.76245 0.749048 6.85492L4.21555 10.2292L3.39805 14.9954L3.3883 15.0779C3.38044 15.2106 3.408 15.343 3.46814 15.4615C3.52827 15.5801 3.61884 15.6805 3.73055 15.7526C3.84226 15.8246 3.97111 15.8656 4.10391 15.8715C4.2367 15.8774 4.36867 15.8478 4.4863 15.7859L8.7658 13.5359L13.0355 15.7859L13.1105 15.8204C13.2343 15.8692 13.3689 15.8841 13.5004 15.8637C13.6318 15.8433 13.7555 15.7883 13.8587 15.7044C13.9619 15.6204 14.041 15.5105 14.0877 15.3859C14.1344 15.2613 14.1471 15.1265 14.1245 14.9954L13.3063 10.2292L16.7743 6.85417L16.8328 6.79042C16.9164 6.68749 16.9712 6.56426 16.9916 6.43326C17.012 6.30227 16.9974 6.1682 16.9491 6.04472C16.9009 5.92123 16.8207 5.81274 16.7169 5.7303C16.6131 5.64786 16.4893 5.59442 16.358 5.57542L11.573 4.88092L9.43405 0.545918C9.37215 0.420319 9.27633 0.314555 9.15744 0.240597C9.03854 0.166639 8.90132 0.127441 8.7613 0.127441C8.62128 0.127441 8.48405 0.166639 8.36515 0.240597C8.24626 0.314555 8.15044 0.420319 8.08855 0.545918L5.9488 4.88092Z" fill="#FFD43C"/>
</svg>
