<svg width="10" height="11" viewBox="0 0 10 11" fill="none" xmlns="http://www.w3.org/2000/svg">
<path fill-rule="evenodd" clip-rule="evenodd" d="M8.23389 0.491172C6.83322 -0.393864 4.98029 0.0241415 4.09525 1.42481L0.534141 7.06067C0.239129 7.52756 0.378463 8.1452 0.845353 8.44022L4.22687 10.5769C4.69376 10.8719 5.3114 10.7326 5.60642 10.2657L9.16753 4.62981C10.0526 3.22914 9.63456 1.37621 8.23389 0.491172ZM7.16463 2.18156C7.44477 2.35857 7.8313 2.24973 8.02797 1.93847C8.22465 1.62721 8.15699 1.23139 7.87686 1.05439C7.59672 0.877379 7.21019 0.986213 7.01352 1.29747C6.81684 1.60873 6.8845 2.00455 7.16463 2.18156Z" fill="#222222"/>
</svg>
