<svg width="28" height="28" viewBox="0 0 28 28" fill="none" xmlns="http://www.w3.org/2000/svg">
<path d="M14 28C21.732 28 28 21.732 28 14C28 6.26801 21.732 0 14 0C6.26801 0 0 6.26801 0 14C0 21.732 6.26801 28 14 28Z" fill="white"/>
<path d="M22.9766 8.43246C22.3163 8.72548 21.607 8.92358 20.8613 9.01261C21.6223 8.55687 22.2054 7.83467 22.4807 6.97513C21.7577 7.40453 20.9665 7.70683 20.1414 7.86889C19.4699 7.15316 18.5124 6.7063 17.4531 6.7063C15.4197 6.7063 13.7707 8.35469 13.7707 10.3892C13.7707 10.6775 13.8031 10.9587 13.8655 11.2287C10.8046 11.0749 8.09089 9.6087 6.27445 7.38077C5.95728 7.92489 5.77573 8.55753 5.77573 9.23253C5.77573 10.5101 6.426 11.6373 7.41408 12.2976C6.82916 12.2795 6.25707 12.1216 5.74564 11.8372V11.8837C5.74564 13.6683 7.01495 15.1564 8.6999 15.4948C8.39038 15.5796 8.06555 15.6239 7.7295 15.6239C7.49191 15.6239 7.26139 15.6014 7.0362 15.5591C7.50488 17.0218 8.86505 18.0865 10.4762 18.1166C9.21573 19.1046 7.62748 19.6936 5.90247 19.6936C5.60535 19.6936 5.31171 19.6759 5.02344 19.6412C6.65357 20.6864 8.58909 21.2966 10.669 21.2966C17.443 21.2966 21.1478 15.6846 21.1478 10.8179C21.1478 10.6581 21.1443 10.4995 21.1366 10.3415C21.8584 9.81941 22.4814 9.17298 22.9766 8.43246Z" fill="#0C0C0C"/>
</svg>
