<svg width="13" height="20" viewBox="0 0 13 20" fill="none" xmlns="http://www.w3.org/2000/svg">
<path d="M7.19459 3.70911C8.21875 3.70911 9.04899 2.87886 9.04899 1.85436C9.04899 0.830245 8.21875 0 7.19459 0C6.17009 0 5.33984 0.830245 5.33984 1.8544C5.33984 2.87886 6.17009 3.70911 7.19459 3.70911Z" fill="#008AE4"/>
<path d="M12.2363 9.24865L10.1122 8.13188L9.21683 6.29252C8.76542 5.36462 7.90049 4.70609 6.88559 4.51754L5.96448 4.34621C5.50124 4.26038 5.02264 4.32222 4.59623 4.52363L1.91377 5.79029C1.6158 5.93087 1.3804 6.17556 1.25091 6.47783L0.0579658 9.26334C-0.0178554 9.44041 -0.0193008 9.64037 0.0536689 9.81811C0.126639 9.99627 0.268281 10.1379 0.446096 10.2109L0.472893 10.2216C0.828444 10.3672 1.23587 10.2066 1.39689 9.8578L2.49182 7.48652L4.22497 6.92635L2.50761 14.5589L0.834929 18.7294C0.742271 18.9605 0.752662 19.2199 0.862859 19.4427C0.973016 19.6659 1.17294 19.8316 1.41263 19.8985L1.4849 19.9185C1.86943 20.0258 2.2776 19.8594 2.47788 19.5139L4.46036 16.0895L5.64151 13.7458L7.79708 16.1246L9.38929 19.4978C9.56883 19.8781 9.99344 20.0773 10.4005 19.9718L10.4184 19.9668C10.6549 19.9056 10.8545 19.7486 10.9704 19.5336C11.0852 19.3186 11.1059 19.065 11.0265 18.8342L9.85504 15.4385C9.69051 14.9609 9.44656 14.5149 9.13355 14.1186L7.23122 11.6031L7.92912 7.9734L8.82983 9.11771C8.94108 9.25935 9.08523 9.3724 9.24941 9.44685L11.6189 10.5167C11.7903 10.594 11.9856 10.5987 12.1605 10.5296C12.3354 10.4605 12.4749 10.3236 12.5472 10.1501L12.5547 10.1318C12.6934 9.79952 12.555 9.41642 12.2363 9.24865Z" fill="#008AE4"/>
</svg>
