<svg width="14" height="12" viewBox="0 0 14 12" fill="none" xmlns="http://www.w3.org/2000/svg">
<path d="M0.374041 4.70668C0.714041 5.04668 1.25404 5.08001 1.62071 4.77335C4.73404 2.21335 9.25404 2.21335 12.374 4.76668C12.7474 5.07335 13.294 5.04668 13.634 4.70668C14.0274 4.31335 14.0007 3.66001 13.5674 3.30668C9.76071 0.193346 4.25404 0.193346 0.440708 3.30668C0.00737415 3.65335 -0.0259593 4.30668 0.374041 4.70668ZM5.54738 9.88001L6.52738 10.86C6.78738 11.12 7.20738 11.12 7.46738 10.86L8.44738 9.88001C8.76071 9.56668 8.69404 9.02668 8.29404 8.82001C7.48071 8.40001 6.50738 8.40001 5.68738 8.82001C5.30738 9.02668 5.23404 9.56668 5.54738 9.88001ZM3.06071 7.39335C3.38737 7.72001 3.90071 7.75335 4.28071 7.48001C5.90738 6.32668 8.09404 6.32668 9.72071 7.48001C10.1007 7.74668 10.614 7.72001 10.9407 7.39335L10.9474 7.38668C11.3474 6.98668 11.3207 6.30668 10.8607 5.98001C8.56738 4.32001 5.44071 4.32001 3.14071 5.98001C2.68071 6.31335 2.65404 6.98668 3.06071 7.39335Z" fill="#323232"/>
</svg>
