<svg width="28" height="28" viewBox="0 0 28 28" fill="none" xmlns="http://www.w3.org/2000/svg">
<path d="M14 28C21.732 28 28 21.732 28 14C28 6.26801 21.732 0 14 0C6.26801 0 0 6.26801 0 14C0 21.732 6.26801 28 14 28Z" fill="white"/>
<path fill-rule="evenodd" clip-rule="evenodd" d="M21.5727 11.7948C21.4655 10.3183 21.1964 8.79357 19.3086 8.682C15.7714 8.48035 12.2255 8.48035 8.6883 8.682C6.80048 8.79138 6.53142 10.3183 6.42423 11.7948C6.31432 13.2628 6.31432 14.7369 6.42423 16.2048C6.53142 17.6814 6.80048 19.2061 8.6883 19.3176C12.2255 19.5193 15.7714 19.5193 19.3086 19.3176C21.1964 19.2083 21.4655 17.6814 21.5727 16.2048C21.6826 14.7369 21.6826 13.2628 21.5727 11.7948ZM12.4683 15.9686V11.5936L16.6245 13.7811L12.4683 15.9686Z" fill="#181818"/>
</svg>
